%FSLAX45Y45*%
G04 Gerber Fmt 4.5, Leading zero omitted, Abs format (unit mm)*
G04 Created by KiCad (PCBNEW 5.1.10-88a1d61d58~90~ubuntu20.04.1) date 2021-07-15 12:02:17*
%MOMM*%
%LPD*%
G01*
G04 APERTURE LIST*
%TA.AperFunction,Profile*%
%ADD10C,0.100000*%
%TD*%
%ADD11C,0.200000*%
%ADD12C,0.300000*%
G04 APERTURE END LIST*
D10*
X17385000Y-10838000D02*
X17385000Y-9238000D01*
X17385000Y-10838000D02*
G75*
G02*
X17185000Y-11038000I-200000J0D01*
G01*
X17185000Y-9038000D02*
X13585000Y-9038000D01*
X17185000Y-9038000D02*
G75*
G02*
X17385000Y-9238000I0J-200000D01*
G01*
X13385000Y-9238000D02*
X13385000Y-10838000D01*
X13385000Y-9238000D02*
G75*
G02*
X13585000Y-9038000I200000J0D01*
G01*
X13585000Y-11038000D02*
X17185000Y-11038000D01*
X13585000Y-11038000D02*
G75*
G02*
X13385000Y-10838000I0J200000D01*
G01*
D11*
X13925000Y-9714000D02*
X13995000Y-9784000D01*
X13995000Y-9714000D02*
X13925000Y-9784000D01*
X13925000Y-10292000D02*
X13995000Y-10362000D01*
X13995000Y-10292000D02*
X13925000Y-10362000D01*
D12*
X13666428Y-11508714D02*
X13666428Y-11208714D01*
X13737857Y-11208714D01*
X13780714Y-11223000D01*
X13809286Y-11251571D01*
X13823571Y-11280143D01*
X13837857Y-11337286D01*
X13837857Y-11380143D01*
X13823571Y-11437286D01*
X13809286Y-11465857D01*
X13780714Y-11494429D01*
X13737857Y-11508714D01*
X13666428Y-11508714D01*
X13966428Y-11508714D02*
X13966428Y-11308714D01*
X13966428Y-11365857D02*
X13980714Y-11337286D01*
X13995000Y-11323000D01*
X14023571Y-11308714D01*
X14052143Y-11308714D01*
X14152143Y-11508714D02*
X14152143Y-11308714D01*
X14152143Y-11208714D02*
X14137857Y-11223000D01*
X14152143Y-11237286D01*
X14166428Y-11223000D01*
X14152143Y-11208714D01*
X14152143Y-11237286D01*
X14337857Y-11508714D02*
X14309286Y-11494429D01*
X14295000Y-11465857D01*
X14295000Y-11208714D01*
X14495000Y-11508714D02*
X14466428Y-11494429D01*
X14452143Y-11465857D01*
X14452143Y-11208714D01*
X14837857Y-11508714D02*
X14837857Y-11208714D01*
X14937857Y-11423000D01*
X15037857Y-11208714D01*
X15037857Y-11508714D01*
X15309286Y-11508714D02*
X15309286Y-11351571D01*
X15295000Y-11323000D01*
X15266428Y-11308714D01*
X15209286Y-11308714D01*
X15180714Y-11323000D01*
X15309286Y-11494429D02*
X15280714Y-11508714D01*
X15209286Y-11508714D01*
X15180714Y-11494429D01*
X15166428Y-11465857D01*
X15166428Y-11437286D01*
X15180714Y-11408714D01*
X15209286Y-11394429D01*
X15280714Y-11394429D01*
X15309286Y-11380143D01*
X15452143Y-11308714D02*
X15452143Y-11608714D01*
X15452143Y-11323000D02*
X15480714Y-11308714D01*
X15537857Y-11308714D01*
X15566428Y-11323000D01*
X15580714Y-11337286D01*
X15595000Y-11365857D01*
X15595000Y-11451571D01*
X15580714Y-11480143D01*
X15566428Y-11494429D01*
X15537857Y-11508714D01*
X15480714Y-11508714D01*
X15452143Y-11494429D01*
X15723571Y-11480143D02*
X15737857Y-11494429D01*
X15723571Y-11508714D01*
X15709286Y-11494429D01*
X15723571Y-11480143D01*
X15723571Y-11508714D01*
X15723571Y-11323000D02*
X15737857Y-11337286D01*
X15723571Y-11351571D01*
X15709286Y-11337286D01*
X15723571Y-11323000D01*
X15723571Y-11351571D01*
X13310000Y-11968000D02*
X13380000Y-12038000D01*
X13380000Y-11968000D02*
X13310000Y-12038000D01*
X13723571Y-11838714D02*
X13752143Y-11838714D01*
X13780714Y-11853000D01*
X13795000Y-11867286D01*
X13809286Y-11895857D01*
X13823571Y-11953000D01*
X13823571Y-12024429D01*
X13809286Y-12081571D01*
X13795000Y-12110143D01*
X13780714Y-12124429D01*
X13752143Y-12138714D01*
X13723571Y-12138714D01*
X13695000Y-12124429D01*
X13680714Y-12110143D01*
X13666428Y-12081571D01*
X13652143Y-12024429D01*
X13652143Y-11953000D01*
X13666428Y-11895857D01*
X13680714Y-11867286D01*
X13695000Y-11853000D01*
X13723571Y-11838714D01*
X13952143Y-12110143D02*
X13966428Y-12124429D01*
X13952143Y-12138714D01*
X13937857Y-12124429D01*
X13952143Y-12110143D01*
X13952143Y-12138714D01*
X14066428Y-11838714D02*
X14266428Y-11838714D01*
X14137857Y-12138714D01*
X14437857Y-11838714D02*
X14466428Y-11838714D01*
X14495000Y-11853000D01*
X14509286Y-11867286D01*
X14523571Y-11895857D01*
X14537857Y-11953000D01*
X14537857Y-12024429D01*
X14523571Y-12081571D01*
X14509286Y-12110143D01*
X14495000Y-12124429D01*
X14466428Y-12138714D01*
X14437857Y-12138714D01*
X14409286Y-12124429D01*
X14395000Y-12110143D01*
X14380714Y-12081571D01*
X14366428Y-12024429D01*
X14366428Y-11953000D01*
X14380714Y-11895857D01*
X14395000Y-11867286D01*
X14409286Y-11853000D01*
X14437857Y-11838714D01*
X14723571Y-11838714D02*
X14752143Y-11838714D01*
X14780714Y-11853000D01*
X14795000Y-11867286D01*
X14809286Y-11895857D01*
X14823571Y-11953000D01*
X14823571Y-12024429D01*
X14809286Y-12081571D01*
X14795000Y-12110143D01*
X14780714Y-12124429D01*
X14752143Y-12138714D01*
X14723571Y-12138714D01*
X14695000Y-12124429D01*
X14680714Y-12110143D01*
X14666428Y-12081571D01*
X14652143Y-12024429D01*
X14652143Y-11953000D01*
X14666428Y-11895857D01*
X14680714Y-11867286D01*
X14695000Y-11853000D01*
X14723571Y-11838714D01*
X14952143Y-12138714D02*
X14952143Y-11938714D01*
X14952143Y-11967286D02*
X14966428Y-11953000D01*
X14995000Y-11938714D01*
X15037857Y-11938714D01*
X15066428Y-11953000D01*
X15080714Y-11981571D01*
X15080714Y-12138714D01*
X15080714Y-11981571D02*
X15095000Y-11953000D01*
X15123571Y-11938714D01*
X15166428Y-11938714D01*
X15195000Y-11953000D01*
X15209286Y-11981571D01*
X15209286Y-12138714D01*
X15352143Y-12138714D02*
X15352143Y-11938714D01*
X15352143Y-11967286D02*
X15366428Y-11953000D01*
X15395000Y-11938714D01*
X15437857Y-11938714D01*
X15466428Y-11953000D01*
X15480714Y-11981571D01*
X15480714Y-12138714D01*
X15480714Y-11981571D02*
X15495000Y-11953000D01*
X15523571Y-11938714D01*
X15566428Y-11938714D01*
X15595000Y-11953000D01*
X15609286Y-11981571D01*
X15609286Y-12138714D01*
X16195000Y-11824429D02*
X15937857Y-12210143D01*
X16580714Y-11838714D02*
X16609286Y-11838714D01*
X16637857Y-11853000D01*
X16652143Y-11867286D01*
X16666428Y-11895857D01*
X16680714Y-11953000D01*
X16680714Y-12024429D01*
X16666428Y-12081571D01*
X16652143Y-12110143D01*
X16637857Y-12124429D01*
X16609286Y-12138714D01*
X16580714Y-12138714D01*
X16552143Y-12124429D01*
X16537857Y-12110143D01*
X16523571Y-12081571D01*
X16509286Y-12024429D01*
X16509286Y-11953000D01*
X16523571Y-11895857D01*
X16537857Y-11867286D01*
X16552143Y-11853000D01*
X16580714Y-11838714D01*
X16809286Y-12110143D02*
X16823571Y-12124429D01*
X16809286Y-12138714D01*
X16795000Y-12124429D01*
X16809286Y-12110143D01*
X16809286Y-12138714D01*
X17009286Y-11838714D02*
X17037857Y-11838714D01*
X17066428Y-11853000D01*
X17080714Y-11867286D01*
X17095000Y-11895857D01*
X17109286Y-11953000D01*
X17109286Y-12024429D01*
X17095000Y-12081571D01*
X17080714Y-12110143D01*
X17066428Y-12124429D01*
X17037857Y-12138714D01*
X17009286Y-12138714D01*
X16980714Y-12124429D01*
X16966428Y-12110143D01*
X16952143Y-12081571D01*
X16937857Y-12024429D01*
X16937857Y-11953000D01*
X16952143Y-11895857D01*
X16966428Y-11867286D01*
X16980714Y-11853000D01*
X17009286Y-11838714D01*
X17223571Y-11867286D02*
X17237857Y-11853000D01*
X17266428Y-11838714D01*
X17337857Y-11838714D01*
X17366428Y-11853000D01*
X17380714Y-11867286D01*
X17395000Y-11895857D01*
X17395000Y-11924429D01*
X17380714Y-11967286D01*
X17209286Y-12138714D01*
X17395000Y-12138714D01*
X17495000Y-11838714D02*
X17695000Y-11838714D01*
X17566428Y-12138714D01*
X17937857Y-11838714D02*
X17880714Y-11838714D01*
X17852143Y-11853000D01*
X17837857Y-11867286D01*
X17809286Y-11910143D01*
X17795000Y-11967286D01*
X17795000Y-12081571D01*
X17809286Y-12110143D01*
X17823571Y-12124429D01*
X17852143Y-12138714D01*
X17909286Y-12138714D01*
X17937857Y-12124429D01*
X17952143Y-12110143D01*
X17966428Y-12081571D01*
X17966428Y-12010143D01*
X17952143Y-11981571D01*
X17937857Y-11967286D01*
X17909286Y-11953000D01*
X17852143Y-11953000D01*
X17823571Y-11967286D01*
X17809286Y-11981571D01*
X17795000Y-12010143D01*
X18080714Y-11838714D02*
X18080714Y-11895857D01*
X18195000Y-11838714D02*
X18195000Y-11895857D01*
X18637857Y-12253000D02*
X18623571Y-12238714D01*
X18595000Y-12195857D01*
X18580714Y-12167286D01*
X18566428Y-12124429D01*
X18552143Y-12053000D01*
X18552143Y-11995857D01*
X18566428Y-11924429D01*
X18580714Y-11881571D01*
X18595000Y-11853000D01*
X18623571Y-11810143D01*
X18637857Y-11795857D01*
X18737857Y-11867286D02*
X18752143Y-11853000D01*
X18780714Y-11838714D01*
X18852143Y-11838714D01*
X18880714Y-11853000D01*
X18895000Y-11867286D01*
X18909286Y-11895857D01*
X18909286Y-11924429D01*
X18895000Y-11967286D01*
X18723571Y-12138714D01*
X18909286Y-12138714D01*
X19266428Y-12138714D02*
X19266428Y-11838714D01*
X19395000Y-12138714D02*
X19395000Y-11981571D01*
X19380714Y-11953000D01*
X19352143Y-11938714D01*
X19309286Y-11938714D01*
X19280714Y-11953000D01*
X19266428Y-11967286D01*
X19580714Y-12138714D02*
X19552143Y-12124429D01*
X19537857Y-12110143D01*
X19523571Y-12081571D01*
X19523571Y-11995857D01*
X19537857Y-11967286D01*
X19552143Y-11953000D01*
X19580714Y-11938714D01*
X19623571Y-11938714D01*
X19652143Y-11953000D01*
X19666428Y-11967286D01*
X19680714Y-11995857D01*
X19680714Y-12081571D01*
X19666428Y-12110143D01*
X19652143Y-12124429D01*
X19623571Y-12138714D01*
X19580714Y-12138714D01*
X19852143Y-12138714D02*
X19823571Y-12124429D01*
X19809286Y-12095857D01*
X19809286Y-11838714D01*
X20080714Y-12124429D02*
X20052143Y-12138714D01*
X19995000Y-12138714D01*
X19966428Y-12124429D01*
X19952143Y-12095857D01*
X19952143Y-11981571D01*
X19966428Y-11953000D01*
X19995000Y-11938714D01*
X20052143Y-11938714D01*
X20080714Y-11953000D01*
X20095000Y-11981571D01*
X20095000Y-12010143D01*
X19952143Y-12038714D01*
X20209286Y-12124429D02*
X20237857Y-12138714D01*
X20295000Y-12138714D01*
X20323571Y-12124429D01*
X20337857Y-12095857D01*
X20337857Y-12081571D01*
X20323571Y-12053000D01*
X20295000Y-12038714D01*
X20252143Y-12038714D01*
X20223571Y-12024429D01*
X20209286Y-11995857D01*
X20209286Y-11981571D01*
X20223571Y-11953000D01*
X20252143Y-11938714D01*
X20295000Y-11938714D01*
X20323571Y-11953000D01*
X20437857Y-12253000D02*
X20452143Y-12238714D01*
X20480714Y-12195857D01*
X20495000Y-12167286D01*
X20509286Y-12124429D01*
X20523571Y-12053000D01*
X20523571Y-11995857D01*
X20509286Y-11924429D01*
X20495000Y-11881571D01*
X20480714Y-11853000D01*
X20452143Y-11810143D01*
X20437857Y-11795857D01*
X20980714Y-12253000D02*
X20966428Y-12238714D01*
X20937857Y-12195857D01*
X20923571Y-12167286D01*
X20909286Y-12124429D01*
X20895000Y-12053000D01*
X20895000Y-11995857D01*
X20909286Y-11924429D01*
X20923571Y-11881571D01*
X20937857Y-11853000D01*
X20966428Y-11810143D01*
X20980714Y-11795857D01*
X21095000Y-11938714D02*
X21095000Y-12138714D01*
X21095000Y-11967286D02*
X21109286Y-11953000D01*
X21137857Y-11938714D01*
X21180714Y-11938714D01*
X21209286Y-11953000D01*
X21223571Y-11981571D01*
X21223571Y-12138714D01*
X21409286Y-12138714D02*
X21380714Y-12124429D01*
X21366428Y-12110143D01*
X21352143Y-12081571D01*
X21352143Y-11995857D01*
X21366428Y-11967286D01*
X21380714Y-11953000D01*
X21409286Y-11938714D01*
X21452143Y-11938714D01*
X21480714Y-11953000D01*
X21495000Y-11967286D01*
X21509286Y-11995857D01*
X21509286Y-12081571D01*
X21495000Y-12110143D01*
X21480714Y-12124429D01*
X21452143Y-12138714D01*
X21409286Y-12138714D01*
X21595000Y-11938714D02*
X21709286Y-11938714D01*
X21637857Y-11838714D02*
X21637857Y-12095857D01*
X21652143Y-12124429D01*
X21680714Y-12138714D01*
X21709286Y-12138714D01*
X22037857Y-11938714D02*
X22037857Y-12238714D01*
X22037857Y-11953000D02*
X22066428Y-11938714D01*
X22123571Y-11938714D01*
X22152143Y-11953000D01*
X22166428Y-11967286D01*
X22180714Y-11995857D01*
X22180714Y-12081571D01*
X22166428Y-12110143D01*
X22152143Y-12124429D01*
X22123571Y-12138714D01*
X22066428Y-12138714D01*
X22037857Y-12124429D01*
X22352143Y-12138714D02*
X22323571Y-12124429D01*
X22309286Y-12095857D01*
X22309286Y-11838714D01*
X22595000Y-12138714D02*
X22595000Y-11981571D01*
X22580714Y-11953000D01*
X22552143Y-11938714D01*
X22495000Y-11938714D01*
X22466428Y-11953000D01*
X22595000Y-12124429D02*
X22566428Y-12138714D01*
X22495000Y-12138714D01*
X22466428Y-12124429D01*
X22452143Y-12095857D01*
X22452143Y-12067286D01*
X22466428Y-12038714D01*
X22495000Y-12024429D01*
X22566428Y-12024429D01*
X22595000Y-12010143D01*
X22695000Y-11938714D02*
X22809286Y-11938714D01*
X22737857Y-11838714D02*
X22737857Y-12095857D01*
X22752143Y-12124429D01*
X22780714Y-12138714D01*
X22809286Y-12138714D01*
X23023571Y-12124429D02*
X22995000Y-12138714D01*
X22937857Y-12138714D01*
X22909286Y-12124429D01*
X22895000Y-12095857D01*
X22895000Y-11981571D01*
X22909286Y-11953000D01*
X22937857Y-11938714D01*
X22995000Y-11938714D01*
X23023571Y-11953000D01*
X23037857Y-11981571D01*
X23037857Y-12010143D01*
X22895000Y-12038714D01*
X23295000Y-12138714D02*
X23295000Y-11838714D01*
X23295000Y-12124429D02*
X23266428Y-12138714D01*
X23209286Y-12138714D01*
X23180714Y-12124429D01*
X23166428Y-12110143D01*
X23152143Y-12081571D01*
X23152143Y-11995857D01*
X23166428Y-11967286D01*
X23180714Y-11953000D01*
X23209286Y-11938714D01*
X23266428Y-11938714D01*
X23295000Y-11953000D01*
X23409286Y-12253000D02*
X23423571Y-12238714D01*
X23452143Y-12195857D01*
X23466428Y-12167286D01*
X23480714Y-12124429D01*
X23495000Y-12053000D01*
X23495000Y-11995857D01*
X23480714Y-11924429D01*
X23466428Y-11881571D01*
X23452143Y-11853000D01*
X23423571Y-11810143D01*
X23409286Y-11795857D01*
M02*
