%TF.GenerationSoftware,KiCad,Pcbnew,5.1.10-88a1d61d58~90~ubuntu20.04.1*%
%TF.CreationDate,2021-07-15T12:02:29+05:30*%
%TF.ProjectId,kimchi-uart-adapter,6b696d63-6869-42d7-9561-72742d616461,rev?*%
%TF.SameCoordinates,Original*%
%TF.FileFunction,Copper,L2,Bot*%
%TF.FilePolarity,Positive*%
%FSLAX46Y46*%
G04 Gerber Fmt 4.6, Leading zero omitted, Abs format (unit mm)*
G04 Created by KiCad (PCBNEW 5.1.10-88a1d61d58~90~ubuntu20.04.1) date 2021-07-15 12:02:29*
%MOMM*%
%LPD*%
G01*
G04 APERTURE LIST*
%TA.AperFunction,ComponentPad*%
%ADD10O,2.100000X1.050000*%
%TD*%
%TA.AperFunction,ComponentPad*%
%ADD11O,1.000000X1.000000*%
%TD*%
%TA.AperFunction,ComponentPad*%
%ADD12R,1.000000X1.000000*%
%TD*%
%TA.AperFunction,ViaPad*%
%ADD13C,0.457200*%
%TD*%
%TA.AperFunction,Conductor*%
%ADD14C,0.200000*%
%TD*%
%TA.AperFunction,Conductor*%
%ADD15C,0.254000*%
%TD*%
%TA.AperFunction,Conductor*%
%ADD16C,0.100000*%
%TD*%
G04 APERTURE END LIST*
D10*
%TO.P,J1,S1*%
%TO.N,GND*%
X140130000Y-96060000D03*
%TO.P,J1,S2*%
X140130000Y-104700000D03*
%TO.P,J1,S3*%
X135950000Y-96060000D03*
%TO.P,J1,S4*%
X135950000Y-104700000D03*
%TD*%
D11*
%TO.P,J2,2*%
%TO.N,/RTS*%
X168930000Y-93930000D03*
D12*
%TO.P,J2,1*%
%TO.N,/CTS*%
X170200000Y-93930000D03*
%TD*%
D13*
%TO.N,GND*%
X173270000Y-96250000D03*
X173290000Y-103840000D03*
X172030000Y-103870000D03*
X172020000Y-96260000D03*
X143570000Y-106300000D03*
X143570000Y-94530000D03*
X146370000Y-96370000D03*
X146390000Y-104380000D03*
X154090000Y-107750000D03*
X161420000Y-95400000D03*
X155040002Y-96540000D03*
X155035000Y-92605000D03*
X156600000Y-98870000D03*
X166960000Y-97890000D03*
X157240000Y-101495610D03*
X146780000Y-106689998D03*
X165750000Y-102540000D03*
X166780000Y-101510000D03*
X161823260Y-99668380D03*
X162593260Y-99658380D03*
X161823260Y-101278380D03*
X162593260Y-101278380D03*
X163363260Y-99668380D03*
X157237500Y-105197500D03*
X163363260Y-101278380D03*
X158442660Y-99783900D03*
X159143700Y-99781360D03*
X159143700Y-101056440D03*
X138149100Y-92010000D03*
%TO.N,/CTS*%
X157870000Y-101870000D03*
X166350000Y-99610000D03*
X167340000Y-98880000D03*
X160910002Y-101870000D03*
%TO.N,/RTS*%
X155330000Y-101870000D03*
X167130000Y-102910000D03*
X164990000Y-100780000D03*
%TO.N,/RX*%
X156600000Y-101870000D03*
X160930000Y-102480000D03*
%TO.N,/TX*%
X154700000Y-101870000D03*
X163300000Y-103940000D03*
%TD*%
D14*
%TO.N,/CTS*%
X166350000Y-99610000D02*
X167080000Y-98880000D01*
X167080000Y-98880000D02*
X167340000Y-98880000D01*
X157870000Y-101870000D02*
X160910002Y-101870000D01*
%TO.N,/RTS*%
X165000000Y-100780000D02*
X164990000Y-100780000D01*
X167130000Y-102910000D02*
X165000000Y-100780000D01*
X164628900Y-100418900D02*
X164990000Y-100780000D01*
X156781100Y-100418900D02*
X164628900Y-100418900D01*
X155330000Y-101870000D02*
X156781100Y-100418900D01*
%TO.N,/RX*%
X156600000Y-101870000D02*
X157210000Y-102480000D01*
X157210000Y-102480000D02*
X160930000Y-102480000D01*
%TO.N,/TX*%
X156446711Y-103940000D02*
X163300000Y-103940000D01*
X154700000Y-102193289D02*
X156446711Y-103940000D01*
X154700000Y-101870000D02*
X154700000Y-102193289D01*
%TD*%
D15*
%TO.N,GND*%
X172154352Y-90842909D02*
X172447113Y-90931299D01*
X172717126Y-91074868D01*
X172954115Y-91268151D01*
X173149045Y-91503781D01*
X173294498Y-91772791D01*
X173384928Y-92064924D01*
X173419001Y-92389101D01*
X173419000Y-108358920D01*
X173387091Y-108684352D01*
X173298701Y-108977114D01*
X173155132Y-109247126D01*
X172961849Y-109484115D01*
X172726219Y-109679045D01*
X172457209Y-109824498D01*
X172165076Y-109914928D01*
X171840908Y-109949000D01*
X135871080Y-109949000D01*
X135545648Y-109917091D01*
X135252886Y-109828701D01*
X134982874Y-109685132D01*
X134745885Y-109491849D01*
X134550955Y-109256219D01*
X134405502Y-108987209D01*
X134315072Y-108695076D01*
X134281000Y-108370908D01*
X134281000Y-103198003D01*
X138869000Y-103198003D01*
X138869000Y-103341997D01*
X138897092Y-103483225D01*
X138952196Y-103616258D01*
X139032195Y-103735985D01*
X139134015Y-103837805D01*
X139253742Y-103917804D01*
X139386775Y-103972908D01*
X139528003Y-104001000D01*
X139671997Y-104001000D01*
X139813225Y-103972908D01*
X139946258Y-103917804D01*
X140065985Y-103837805D01*
X140167805Y-103735985D01*
X140247804Y-103616258D01*
X140302908Y-103483225D01*
X140331000Y-103341997D01*
X140331000Y-103198003D01*
X140302908Y-103056775D01*
X140247804Y-102923742D01*
X140167805Y-102804015D01*
X140065985Y-102702195D01*
X139946258Y-102622196D01*
X139813225Y-102567092D01*
X139671997Y-102539000D01*
X139528003Y-102539000D01*
X139386775Y-102567092D01*
X139253742Y-102622196D01*
X139134015Y-102702195D01*
X139032195Y-102804015D01*
X138952196Y-102923742D01*
X138897092Y-103056775D01*
X138869000Y-103198003D01*
X134281000Y-103198003D01*
X134281000Y-101809960D01*
X154090400Y-101809960D01*
X154090400Y-101930040D01*
X154113826Y-102047814D01*
X154159779Y-102158754D01*
X154222520Y-102252653D01*
X154225960Y-102287581D01*
X154253465Y-102378250D01*
X154298129Y-102461811D01*
X154358237Y-102535053D01*
X154376589Y-102550114D01*
X156089886Y-104263412D01*
X156104947Y-104281764D01*
X156178189Y-104341872D01*
X156261750Y-104386536D01*
X156352419Y-104414040D01*
X156423085Y-104421000D01*
X156423086Y-104421000D01*
X156446710Y-104423327D01*
X156470334Y-104421000D01*
X162922615Y-104421000D01*
X163011246Y-104480221D01*
X163122186Y-104526174D01*
X163239960Y-104549600D01*
X163360040Y-104549600D01*
X163477814Y-104526174D01*
X163588754Y-104480221D01*
X163688598Y-104413508D01*
X163773508Y-104328598D01*
X163840221Y-104228754D01*
X163886174Y-104117814D01*
X163909600Y-104000040D01*
X163909600Y-103879960D01*
X163886174Y-103762186D01*
X163840221Y-103651246D01*
X163773508Y-103551402D01*
X163688598Y-103466492D01*
X163588754Y-103399779D01*
X163477814Y-103353826D01*
X163360040Y-103330400D01*
X163239960Y-103330400D01*
X163122186Y-103353826D01*
X163011246Y-103399779D01*
X162922615Y-103459000D01*
X156645948Y-103459000D01*
X155603491Y-102416543D01*
X155618754Y-102410221D01*
X155718598Y-102343508D01*
X155803508Y-102258598D01*
X155870221Y-102158754D01*
X155916174Y-102047814D01*
X155936969Y-101943267D01*
X155990400Y-101889836D01*
X155990400Y-101930040D01*
X156013826Y-102047814D01*
X156059779Y-102158754D01*
X156126492Y-102258598D01*
X156211402Y-102343508D01*
X156311246Y-102410221D01*
X156422186Y-102456174D01*
X156526733Y-102476969D01*
X156853174Y-102803411D01*
X156868236Y-102821764D01*
X156941478Y-102881872D01*
X157025039Y-102926536D01*
X157115708Y-102954040D01*
X157186374Y-102961000D01*
X157186375Y-102961000D01*
X157209999Y-102963327D01*
X157233623Y-102961000D01*
X160552615Y-102961000D01*
X160641246Y-103020221D01*
X160752186Y-103066174D01*
X160869960Y-103089600D01*
X160990040Y-103089600D01*
X161107814Y-103066174D01*
X161218754Y-103020221D01*
X161318598Y-102953508D01*
X161403508Y-102868598D01*
X161470221Y-102768754D01*
X161516174Y-102657814D01*
X161539600Y-102540040D01*
X161539600Y-102419960D01*
X161516174Y-102302186D01*
X161470221Y-102191246D01*
X161449367Y-102160035D01*
X161450223Y-102158754D01*
X161496176Y-102047814D01*
X161519602Y-101930040D01*
X161519602Y-101809960D01*
X161496176Y-101692186D01*
X161450223Y-101581246D01*
X161383510Y-101481402D01*
X161298600Y-101396492D01*
X161198756Y-101329779D01*
X161087816Y-101283826D01*
X160970042Y-101260400D01*
X160849962Y-101260400D01*
X160732188Y-101283826D01*
X160621248Y-101329779D01*
X160532617Y-101389000D01*
X158247385Y-101389000D01*
X158158754Y-101329779D01*
X158047814Y-101283826D01*
X157930040Y-101260400D01*
X157809960Y-101260400D01*
X157692186Y-101283826D01*
X157581246Y-101329779D01*
X157481402Y-101396492D01*
X157396492Y-101481402D01*
X157329779Y-101581246D01*
X157283826Y-101692186D01*
X157260400Y-101809960D01*
X157260400Y-101850163D01*
X157206969Y-101796733D01*
X157186174Y-101692186D01*
X157140221Y-101581246D01*
X157073508Y-101481402D01*
X156988598Y-101396492D01*
X156888754Y-101329779D01*
X156777814Y-101283826D01*
X156660040Y-101260400D01*
X156619837Y-101260400D01*
X156980337Y-100899900D01*
X164392307Y-100899900D01*
X164403826Y-100957814D01*
X164449779Y-101068754D01*
X164516492Y-101168598D01*
X164601402Y-101253508D01*
X164701246Y-101320221D01*
X164812186Y-101366174D01*
X164929216Y-101389452D01*
X166523031Y-102983268D01*
X166543826Y-103087814D01*
X166589779Y-103198754D01*
X166656492Y-103298598D01*
X166741402Y-103383508D01*
X166841246Y-103450221D01*
X166952186Y-103496174D01*
X167069960Y-103519600D01*
X167190040Y-103519600D01*
X167307814Y-103496174D01*
X167418754Y-103450221D01*
X167518598Y-103383508D01*
X167603508Y-103298598D01*
X167670221Y-103198754D01*
X167716174Y-103087814D01*
X167739600Y-102970040D01*
X167739600Y-102849960D01*
X167716174Y-102732186D01*
X167670221Y-102621246D01*
X167603508Y-102521402D01*
X167518598Y-102436492D01*
X167418754Y-102369779D01*
X167307814Y-102323826D01*
X167203268Y-102303031D01*
X165594486Y-100694250D01*
X165576174Y-100602186D01*
X165530221Y-100491246D01*
X165463508Y-100391402D01*
X165378598Y-100306492D01*
X165278754Y-100239779D01*
X165167814Y-100193826D01*
X165063267Y-100173031D01*
X164985730Y-100095494D01*
X164970664Y-100077136D01*
X164897422Y-100017028D01*
X164813861Y-99972364D01*
X164723192Y-99944860D01*
X164652526Y-99937900D01*
X164628900Y-99935573D01*
X164605274Y-99937900D01*
X156804723Y-99937900D01*
X156781099Y-99935573D01*
X156757475Y-99937900D01*
X156757474Y-99937900D01*
X156686808Y-99944860D01*
X156596139Y-99972364D01*
X156512578Y-100017028D01*
X156439336Y-100077136D01*
X156424275Y-100095488D01*
X155256733Y-101263031D01*
X155152186Y-101283826D01*
X155041246Y-101329779D01*
X155015000Y-101347316D01*
X154988754Y-101329779D01*
X154877814Y-101283826D01*
X154760040Y-101260400D01*
X154639960Y-101260400D01*
X154522186Y-101283826D01*
X154411246Y-101329779D01*
X154311402Y-101396492D01*
X154226492Y-101481402D01*
X154159779Y-101581246D01*
X154113826Y-101692186D01*
X154090400Y-101809960D01*
X134281000Y-101809960D01*
X134281000Y-99549960D01*
X165740400Y-99549960D01*
X165740400Y-99670040D01*
X165763826Y-99787814D01*
X165809779Y-99898754D01*
X165876492Y-99998598D01*
X165961402Y-100083508D01*
X166061246Y-100150221D01*
X166172186Y-100196174D01*
X166289960Y-100219600D01*
X166410040Y-100219600D01*
X166527814Y-100196174D01*
X166638754Y-100150221D01*
X166738598Y-100083508D01*
X166823508Y-99998598D01*
X166890221Y-99898754D01*
X166936174Y-99787814D01*
X166956969Y-99683267D01*
X167172092Y-99468144D01*
X167279960Y-99489600D01*
X167400040Y-99489600D01*
X167517814Y-99466174D01*
X167628754Y-99420221D01*
X167728598Y-99353508D01*
X167813508Y-99268598D01*
X167880221Y-99168754D01*
X167926174Y-99057814D01*
X167949600Y-98940040D01*
X167949600Y-98819960D01*
X167926174Y-98702186D01*
X167880221Y-98591246D01*
X167813508Y-98491402D01*
X167728598Y-98406492D01*
X167628754Y-98339779D01*
X167517814Y-98293826D01*
X167400040Y-98270400D01*
X167279960Y-98270400D01*
X167162186Y-98293826D01*
X167051246Y-98339779D01*
X166951402Y-98406492D01*
X166937228Y-98420666D01*
X166895039Y-98433464D01*
X166811478Y-98478128D01*
X166738236Y-98538236D01*
X166723174Y-98556589D01*
X166276733Y-99003031D01*
X166172186Y-99023826D01*
X166061246Y-99069779D01*
X165961402Y-99136492D01*
X165876492Y-99221402D01*
X165809779Y-99321246D01*
X165763826Y-99432186D01*
X165740400Y-99549960D01*
X134281000Y-99549960D01*
X134281000Y-97418003D01*
X138869000Y-97418003D01*
X138869000Y-97561997D01*
X138897092Y-97703225D01*
X138952196Y-97836258D01*
X139032195Y-97955985D01*
X139134015Y-98057805D01*
X139253742Y-98137804D01*
X139386775Y-98192908D01*
X139528003Y-98221000D01*
X139671997Y-98221000D01*
X139813225Y-98192908D01*
X139946258Y-98137804D01*
X140065985Y-98057805D01*
X140167805Y-97955985D01*
X140247804Y-97836258D01*
X140302908Y-97703225D01*
X140331000Y-97561997D01*
X140331000Y-97418003D01*
X140302908Y-97276775D01*
X140247804Y-97143742D01*
X140167805Y-97024015D01*
X140065985Y-96922195D01*
X139946258Y-96842196D01*
X139813225Y-96787092D01*
X139671997Y-96759000D01*
X139528003Y-96759000D01*
X139386775Y-96787092D01*
X139253742Y-96842196D01*
X139134015Y-96922195D01*
X139032195Y-97024015D01*
X138952196Y-97143742D01*
X138897092Y-97276775D01*
X138869000Y-97418003D01*
X134281000Y-97418003D01*
X134281000Y-93843229D01*
X168049000Y-93843229D01*
X168049000Y-94016771D01*
X168082856Y-94186978D01*
X168149268Y-94347310D01*
X168245682Y-94491605D01*
X168368395Y-94614318D01*
X168512690Y-94710732D01*
X168673022Y-94777144D01*
X168843229Y-94811000D01*
X169016771Y-94811000D01*
X169186978Y-94777144D01*
X169347310Y-94710732D01*
X169405568Y-94671806D01*
X169429289Y-94700711D01*
X169487304Y-94748322D01*
X169553492Y-94783701D01*
X169625311Y-94805487D01*
X169700000Y-94812843D01*
X170700000Y-94812843D01*
X170774689Y-94805487D01*
X170846508Y-94783701D01*
X170912696Y-94748322D01*
X170970711Y-94700711D01*
X171018322Y-94642696D01*
X171053701Y-94576508D01*
X171075487Y-94504689D01*
X171082843Y-94430000D01*
X171082843Y-93430000D01*
X171075487Y-93355311D01*
X171053701Y-93283492D01*
X171018322Y-93217304D01*
X170970711Y-93159289D01*
X170912696Y-93111678D01*
X170846508Y-93076299D01*
X170774689Y-93054513D01*
X170700000Y-93047157D01*
X169700000Y-93047157D01*
X169625311Y-93054513D01*
X169553492Y-93076299D01*
X169487304Y-93111678D01*
X169429289Y-93159289D01*
X169405568Y-93188194D01*
X169347310Y-93149268D01*
X169186978Y-93082856D01*
X169016771Y-93049000D01*
X168843229Y-93049000D01*
X168673022Y-93082856D01*
X168512690Y-93149268D01*
X168368395Y-93245682D01*
X168245682Y-93368395D01*
X168149268Y-93512690D01*
X168082856Y-93673022D01*
X168049000Y-93843229D01*
X134281000Y-93843229D01*
X134281000Y-92401080D01*
X134312909Y-92075648D01*
X134401299Y-91782887D01*
X134544868Y-91512874D01*
X134738151Y-91275885D01*
X134973781Y-91080955D01*
X135242791Y-90935502D01*
X135534924Y-90845072D01*
X135859092Y-90811000D01*
X171828920Y-90811000D01*
X172154352Y-90842909D01*
%TA.AperFunction,Conductor*%
D16*
G36*
X172154352Y-90842909D02*
G01*
X172447113Y-90931299D01*
X172717126Y-91074868D01*
X172954115Y-91268151D01*
X173149045Y-91503781D01*
X173294498Y-91772791D01*
X173384928Y-92064924D01*
X173419001Y-92389101D01*
X173419000Y-108358920D01*
X173387091Y-108684352D01*
X173298701Y-108977114D01*
X173155132Y-109247126D01*
X172961849Y-109484115D01*
X172726219Y-109679045D01*
X172457209Y-109824498D01*
X172165076Y-109914928D01*
X171840908Y-109949000D01*
X135871080Y-109949000D01*
X135545648Y-109917091D01*
X135252886Y-109828701D01*
X134982874Y-109685132D01*
X134745885Y-109491849D01*
X134550955Y-109256219D01*
X134405502Y-108987209D01*
X134315072Y-108695076D01*
X134281000Y-108370908D01*
X134281000Y-103198003D01*
X138869000Y-103198003D01*
X138869000Y-103341997D01*
X138897092Y-103483225D01*
X138952196Y-103616258D01*
X139032195Y-103735985D01*
X139134015Y-103837805D01*
X139253742Y-103917804D01*
X139386775Y-103972908D01*
X139528003Y-104001000D01*
X139671997Y-104001000D01*
X139813225Y-103972908D01*
X139946258Y-103917804D01*
X140065985Y-103837805D01*
X140167805Y-103735985D01*
X140247804Y-103616258D01*
X140302908Y-103483225D01*
X140331000Y-103341997D01*
X140331000Y-103198003D01*
X140302908Y-103056775D01*
X140247804Y-102923742D01*
X140167805Y-102804015D01*
X140065985Y-102702195D01*
X139946258Y-102622196D01*
X139813225Y-102567092D01*
X139671997Y-102539000D01*
X139528003Y-102539000D01*
X139386775Y-102567092D01*
X139253742Y-102622196D01*
X139134015Y-102702195D01*
X139032195Y-102804015D01*
X138952196Y-102923742D01*
X138897092Y-103056775D01*
X138869000Y-103198003D01*
X134281000Y-103198003D01*
X134281000Y-101809960D01*
X154090400Y-101809960D01*
X154090400Y-101930040D01*
X154113826Y-102047814D01*
X154159779Y-102158754D01*
X154222520Y-102252653D01*
X154225960Y-102287581D01*
X154253465Y-102378250D01*
X154298129Y-102461811D01*
X154358237Y-102535053D01*
X154376589Y-102550114D01*
X156089886Y-104263412D01*
X156104947Y-104281764D01*
X156178189Y-104341872D01*
X156261750Y-104386536D01*
X156352419Y-104414040D01*
X156423085Y-104421000D01*
X156423086Y-104421000D01*
X156446710Y-104423327D01*
X156470334Y-104421000D01*
X162922615Y-104421000D01*
X163011246Y-104480221D01*
X163122186Y-104526174D01*
X163239960Y-104549600D01*
X163360040Y-104549600D01*
X163477814Y-104526174D01*
X163588754Y-104480221D01*
X163688598Y-104413508D01*
X163773508Y-104328598D01*
X163840221Y-104228754D01*
X163886174Y-104117814D01*
X163909600Y-104000040D01*
X163909600Y-103879960D01*
X163886174Y-103762186D01*
X163840221Y-103651246D01*
X163773508Y-103551402D01*
X163688598Y-103466492D01*
X163588754Y-103399779D01*
X163477814Y-103353826D01*
X163360040Y-103330400D01*
X163239960Y-103330400D01*
X163122186Y-103353826D01*
X163011246Y-103399779D01*
X162922615Y-103459000D01*
X156645948Y-103459000D01*
X155603491Y-102416543D01*
X155618754Y-102410221D01*
X155718598Y-102343508D01*
X155803508Y-102258598D01*
X155870221Y-102158754D01*
X155916174Y-102047814D01*
X155936969Y-101943267D01*
X155990400Y-101889836D01*
X155990400Y-101930040D01*
X156013826Y-102047814D01*
X156059779Y-102158754D01*
X156126492Y-102258598D01*
X156211402Y-102343508D01*
X156311246Y-102410221D01*
X156422186Y-102456174D01*
X156526733Y-102476969D01*
X156853174Y-102803411D01*
X156868236Y-102821764D01*
X156941478Y-102881872D01*
X157025039Y-102926536D01*
X157115708Y-102954040D01*
X157186374Y-102961000D01*
X157186375Y-102961000D01*
X157209999Y-102963327D01*
X157233623Y-102961000D01*
X160552615Y-102961000D01*
X160641246Y-103020221D01*
X160752186Y-103066174D01*
X160869960Y-103089600D01*
X160990040Y-103089600D01*
X161107814Y-103066174D01*
X161218754Y-103020221D01*
X161318598Y-102953508D01*
X161403508Y-102868598D01*
X161470221Y-102768754D01*
X161516174Y-102657814D01*
X161539600Y-102540040D01*
X161539600Y-102419960D01*
X161516174Y-102302186D01*
X161470221Y-102191246D01*
X161449367Y-102160035D01*
X161450223Y-102158754D01*
X161496176Y-102047814D01*
X161519602Y-101930040D01*
X161519602Y-101809960D01*
X161496176Y-101692186D01*
X161450223Y-101581246D01*
X161383510Y-101481402D01*
X161298600Y-101396492D01*
X161198756Y-101329779D01*
X161087816Y-101283826D01*
X160970042Y-101260400D01*
X160849962Y-101260400D01*
X160732188Y-101283826D01*
X160621248Y-101329779D01*
X160532617Y-101389000D01*
X158247385Y-101389000D01*
X158158754Y-101329779D01*
X158047814Y-101283826D01*
X157930040Y-101260400D01*
X157809960Y-101260400D01*
X157692186Y-101283826D01*
X157581246Y-101329779D01*
X157481402Y-101396492D01*
X157396492Y-101481402D01*
X157329779Y-101581246D01*
X157283826Y-101692186D01*
X157260400Y-101809960D01*
X157260400Y-101850163D01*
X157206969Y-101796733D01*
X157186174Y-101692186D01*
X157140221Y-101581246D01*
X157073508Y-101481402D01*
X156988598Y-101396492D01*
X156888754Y-101329779D01*
X156777814Y-101283826D01*
X156660040Y-101260400D01*
X156619837Y-101260400D01*
X156980337Y-100899900D01*
X164392307Y-100899900D01*
X164403826Y-100957814D01*
X164449779Y-101068754D01*
X164516492Y-101168598D01*
X164601402Y-101253508D01*
X164701246Y-101320221D01*
X164812186Y-101366174D01*
X164929216Y-101389452D01*
X166523031Y-102983268D01*
X166543826Y-103087814D01*
X166589779Y-103198754D01*
X166656492Y-103298598D01*
X166741402Y-103383508D01*
X166841246Y-103450221D01*
X166952186Y-103496174D01*
X167069960Y-103519600D01*
X167190040Y-103519600D01*
X167307814Y-103496174D01*
X167418754Y-103450221D01*
X167518598Y-103383508D01*
X167603508Y-103298598D01*
X167670221Y-103198754D01*
X167716174Y-103087814D01*
X167739600Y-102970040D01*
X167739600Y-102849960D01*
X167716174Y-102732186D01*
X167670221Y-102621246D01*
X167603508Y-102521402D01*
X167518598Y-102436492D01*
X167418754Y-102369779D01*
X167307814Y-102323826D01*
X167203268Y-102303031D01*
X165594486Y-100694250D01*
X165576174Y-100602186D01*
X165530221Y-100491246D01*
X165463508Y-100391402D01*
X165378598Y-100306492D01*
X165278754Y-100239779D01*
X165167814Y-100193826D01*
X165063267Y-100173031D01*
X164985730Y-100095494D01*
X164970664Y-100077136D01*
X164897422Y-100017028D01*
X164813861Y-99972364D01*
X164723192Y-99944860D01*
X164652526Y-99937900D01*
X164628900Y-99935573D01*
X164605274Y-99937900D01*
X156804723Y-99937900D01*
X156781099Y-99935573D01*
X156757475Y-99937900D01*
X156757474Y-99937900D01*
X156686808Y-99944860D01*
X156596139Y-99972364D01*
X156512578Y-100017028D01*
X156439336Y-100077136D01*
X156424275Y-100095488D01*
X155256733Y-101263031D01*
X155152186Y-101283826D01*
X155041246Y-101329779D01*
X155015000Y-101347316D01*
X154988754Y-101329779D01*
X154877814Y-101283826D01*
X154760040Y-101260400D01*
X154639960Y-101260400D01*
X154522186Y-101283826D01*
X154411246Y-101329779D01*
X154311402Y-101396492D01*
X154226492Y-101481402D01*
X154159779Y-101581246D01*
X154113826Y-101692186D01*
X154090400Y-101809960D01*
X134281000Y-101809960D01*
X134281000Y-99549960D01*
X165740400Y-99549960D01*
X165740400Y-99670040D01*
X165763826Y-99787814D01*
X165809779Y-99898754D01*
X165876492Y-99998598D01*
X165961402Y-100083508D01*
X166061246Y-100150221D01*
X166172186Y-100196174D01*
X166289960Y-100219600D01*
X166410040Y-100219600D01*
X166527814Y-100196174D01*
X166638754Y-100150221D01*
X166738598Y-100083508D01*
X166823508Y-99998598D01*
X166890221Y-99898754D01*
X166936174Y-99787814D01*
X166956969Y-99683267D01*
X167172092Y-99468144D01*
X167279960Y-99489600D01*
X167400040Y-99489600D01*
X167517814Y-99466174D01*
X167628754Y-99420221D01*
X167728598Y-99353508D01*
X167813508Y-99268598D01*
X167880221Y-99168754D01*
X167926174Y-99057814D01*
X167949600Y-98940040D01*
X167949600Y-98819960D01*
X167926174Y-98702186D01*
X167880221Y-98591246D01*
X167813508Y-98491402D01*
X167728598Y-98406492D01*
X167628754Y-98339779D01*
X167517814Y-98293826D01*
X167400040Y-98270400D01*
X167279960Y-98270400D01*
X167162186Y-98293826D01*
X167051246Y-98339779D01*
X166951402Y-98406492D01*
X166937228Y-98420666D01*
X166895039Y-98433464D01*
X166811478Y-98478128D01*
X166738236Y-98538236D01*
X166723174Y-98556589D01*
X166276733Y-99003031D01*
X166172186Y-99023826D01*
X166061246Y-99069779D01*
X165961402Y-99136492D01*
X165876492Y-99221402D01*
X165809779Y-99321246D01*
X165763826Y-99432186D01*
X165740400Y-99549960D01*
X134281000Y-99549960D01*
X134281000Y-97418003D01*
X138869000Y-97418003D01*
X138869000Y-97561997D01*
X138897092Y-97703225D01*
X138952196Y-97836258D01*
X139032195Y-97955985D01*
X139134015Y-98057805D01*
X139253742Y-98137804D01*
X139386775Y-98192908D01*
X139528003Y-98221000D01*
X139671997Y-98221000D01*
X139813225Y-98192908D01*
X139946258Y-98137804D01*
X140065985Y-98057805D01*
X140167805Y-97955985D01*
X140247804Y-97836258D01*
X140302908Y-97703225D01*
X140331000Y-97561997D01*
X140331000Y-97418003D01*
X140302908Y-97276775D01*
X140247804Y-97143742D01*
X140167805Y-97024015D01*
X140065985Y-96922195D01*
X139946258Y-96842196D01*
X139813225Y-96787092D01*
X139671997Y-96759000D01*
X139528003Y-96759000D01*
X139386775Y-96787092D01*
X139253742Y-96842196D01*
X139134015Y-96922195D01*
X139032195Y-97024015D01*
X138952196Y-97143742D01*
X138897092Y-97276775D01*
X138869000Y-97418003D01*
X134281000Y-97418003D01*
X134281000Y-93843229D01*
X168049000Y-93843229D01*
X168049000Y-94016771D01*
X168082856Y-94186978D01*
X168149268Y-94347310D01*
X168245682Y-94491605D01*
X168368395Y-94614318D01*
X168512690Y-94710732D01*
X168673022Y-94777144D01*
X168843229Y-94811000D01*
X169016771Y-94811000D01*
X169186978Y-94777144D01*
X169347310Y-94710732D01*
X169405568Y-94671806D01*
X169429289Y-94700711D01*
X169487304Y-94748322D01*
X169553492Y-94783701D01*
X169625311Y-94805487D01*
X169700000Y-94812843D01*
X170700000Y-94812843D01*
X170774689Y-94805487D01*
X170846508Y-94783701D01*
X170912696Y-94748322D01*
X170970711Y-94700711D01*
X171018322Y-94642696D01*
X171053701Y-94576508D01*
X171075487Y-94504689D01*
X171082843Y-94430000D01*
X171082843Y-93430000D01*
X171075487Y-93355311D01*
X171053701Y-93283492D01*
X171018322Y-93217304D01*
X170970711Y-93159289D01*
X170912696Y-93111678D01*
X170846508Y-93076299D01*
X170774689Y-93054513D01*
X170700000Y-93047157D01*
X169700000Y-93047157D01*
X169625311Y-93054513D01*
X169553492Y-93076299D01*
X169487304Y-93111678D01*
X169429289Y-93159289D01*
X169405568Y-93188194D01*
X169347310Y-93149268D01*
X169186978Y-93082856D01*
X169016771Y-93049000D01*
X168843229Y-93049000D01*
X168673022Y-93082856D01*
X168512690Y-93149268D01*
X168368395Y-93245682D01*
X168245682Y-93368395D01*
X168149268Y-93512690D01*
X168082856Y-93673022D01*
X168049000Y-93843229D01*
X134281000Y-93843229D01*
X134281000Y-92401080D01*
X134312909Y-92075648D01*
X134401299Y-91782887D01*
X134544868Y-91512874D01*
X134738151Y-91275885D01*
X134973781Y-91080955D01*
X135242791Y-90935502D01*
X135534924Y-90845072D01*
X135859092Y-90811000D01*
X171828920Y-90811000D01*
X172154352Y-90842909D01*
G37*
%TD.AperFunction*%
%TD*%
M02*
