%TF.GenerationSoftware,KiCad,Pcbnew,5.1.10-88a1d61d58~90~ubuntu20.04.1*%
%TF.CreationDate,2021-07-15T12:02:29+05:30*%
%TF.ProjectId,kimchi-uart-adapter,6b696d63-6869-42d7-9561-72742d616461,rev?*%
%TF.SameCoordinates,Original*%
%TF.FileFunction,Legend,Bot*%
%TF.FilePolarity,Positive*%
%FSLAX46Y46*%
G04 Gerber Fmt 4.6, Leading zero omitted, Abs format (unit mm)*
G04 Created by KiCad (PCBNEW 5.1.10-88a1d61d58~90~ubuntu20.04.1) date 2021-07-15 12:02:29*
%MOMM*%
%LPD*%
G01*
G04 APERTURE LIST*
%ADD10C,0.300000*%
%ADD11C,0.010000*%
G04 APERTURE END LIST*
D10*
X142721751Y-93160282D02*
X143936037Y-93160282D01*
X144078894Y-93231711D01*
X144150322Y-93303140D01*
X144221751Y-93445997D01*
X144221751Y-93731711D01*
X144150322Y-93874568D01*
X144078894Y-93945997D01*
X143936037Y-94017425D01*
X142721751Y-94017425D01*
X144150322Y-94660282D02*
X144221751Y-94874568D01*
X144221751Y-95231711D01*
X144150322Y-95374568D01*
X144078894Y-95445997D01*
X143936037Y-95517425D01*
X143793180Y-95517425D01*
X143650322Y-95445997D01*
X143578894Y-95374568D01*
X143507465Y-95231711D01*
X143436037Y-94945997D01*
X143364608Y-94803140D01*
X143293180Y-94731711D01*
X143150322Y-94660282D01*
X143007465Y-94660282D01*
X142864608Y-94731711D01*
X142793180Y-94803140D01*
X142721751Y-94945997D01*
X142721751Y-95303140D01*
X142793180Y-95517425D01*
X143436037Y-96660282D02*
X143507465Y-96874568D01*
X143578894Y-96945997D01*
X143721751Y-97017425D01*
X143936037Y-97017425D01*
X144078894Y-96945997D01*
X144150322Y-96874568D01*
X144221751Y-96731711D01*
X144221751Y-96160282D01*
X142721751Y-96160282D01*
X142721751Y-96660282D01*
X142793180Y-96803140D01*
X142864608Y-96874568D01*
X143007465Y-96945997D01*
X143150322Y-96945997D01*
X143293180Y-96874568D01*
X143364608Y-96803140D01*
X143436037Y-96660282D01*
X143436037Y-96160282D01*
X143221751Y-98588854D02*
X143221751Y-99160282D01*
X142721751Y-98803140D02*
X144007465Y-98803140D01*
X144150322Y-98874568D01*
X144221751Y-99017425D01*
X144221751Y-99160282D01*
X144221751Y-99874568D02*
X144150322Y-99731711D01*
X144078894Y-99660282D01*
X143936037Y-99588854D01*
X143507465Y-99588854D01*
X143364608Y-99660282D01*
X143293180Y-99731711D01*
X143221751Y-99874568D01*
X143221751Y-100088854D01*
X143293180Y-100231711D01*
X143364608Y-100303140D01*
X143507465Y-100374568D01*
X143936037Y-100374568D01*
X144078894Y-100303140D01*
X144150322Y-100231711D01*
X144221751Y-100088854D01*
X144221751Y-99874568D01*
X142721751Y-102160282D02*
X143936037Y-102160282D01*
X144078894Y-102231711D01*
X144150322Y-102303140D01*
X144221751Y-102445997D01*
X144221751Y-102731711D01*
X144150322Y-102874568D01*
X144078894Y-102945997D01*
X143936037Y-103017425D01*
X142721751Y-103017425D01*
X143793180Y-103660282D02*
X143793180Y-104374568D01*
X144221751Y-103517425D02*
X142721751Y-104017425D01*
X144221751Y-104517425D01*
X144221751Y-105874568D02*
X143507465Y-105374568D01*
X144221751Y-105017425D02*
X142721751Y-105017425D01*
X142721751Y-105588854D01*
X142793180Y-105731711D01*
X142864608Y-105803140D01*
X143007465Y-105874568D01*
X143221751Y-105874568D01*
X143364608Y-105803140D01*
X143436037Y-105731711D01*
X143507465Y-105588854D01*
X143507465Y-105017425D01*
X142721751Y-106303140D02*
X142721751Y-107160282D01*
X144221751Y-106731711D02*
X142721751Y-106731711D01*
X146771751Y-96803140D02*
X145986037Y-96803140D01*
X145843180Y-96731711D01*
X145771751Y-96588854D01*
X145771751Y-96303140D01*
X145843180Y-96160282D01*
X146700322Y-96803140D02*
X146771751Y-96660282D01*
X146771751Y-96303140D01*
X146700322Y-96160282D01*
X146557465Y-96088854D01*
X146414608Y-96088854D01*
X146271751Y-96160282D01*
X146200322Y-96303140D01*
X146200322Y-96660282D01*
X146128894Y-96803140D01*
X146771751Y-98160282D02*
X145271751Y-98160282D01*
X146700322Y-98160282D02*
X146771751Y-98017425D01*
X146771751Y-97731711D01*
X146700322Y-97588854D01*
X146628894Y-97517425D01*
X146486037Y-97445997D01*
X146057465Y-97445997D01*
X145914608Y-97517425D01*
X145843180Y-97588854D01*
X145771751Y-97731711D01*
X145771751Y-98017425D01*
X145843180Y-98160282D01*
X146771751Y-99517425D02*
X145986037Y-99517425D01*
X145843180Y-99445997D01*
X145771751Y-99303140D01*
X145771751Y-99017425D01*
X145843180Y-98874568D01*
X146700322Y-99517425D02*
X146771751Y-99374568D01*
X146771751Y-99017425D01*
X146700322Y-98874568D01*
X146557465Y-98803140D01*
X146414608Y-98803140D01*
X146271751Y-98874568D01*
X146200322Y-99017425D01*
X146200322Y-99374568D01*
X146128894Y-99517425D01*
X145771751Y-100231711D02*
X147271751Y-100231711D01*
X145843180Y-100231711D02*
X145771751Y-100374568D01*
X145771751Y-100660282D01*
X145843180Y-100803140D01*
X145914608Y-100874568D01*
X146057465Y-100945997D01*
X146486037Y-100945997D01*
X146628894Y-100874568D01*
X146700322Y-100803140D01*
X146771751Y-100660282D01*
X146771751Y-100374568D01*
X146700322Y-100231711D01*
X145771751Y-101374568D02*
X145771751Y-101945997D01*
X145271751Y-101588854D02*
X146557465Y-101588854D01*
X146700322Y-101660282D01*
X146771751Y-101803140D01*
X146771751Y-101945997D01*
X146700322Y-103017425D02*
X146771751Y-102874568D01*
X146771751Y-102588854D01*
X146700322Y-102445997D01*
X146557465Y-102374568D01*
X145986037Y-102374568D01*
X145843180Y-102445997D01*
X145771751Y-102588854D01*
X145771751Y-102874568D01*
X145843180Y-103017425D01*
X145986037Y-103088854D01*
X146128894Y-103088854D01*
X146271751Y-102374568D01*
X146771751Y-103731711D02*
X145771751Y-103731711D01*
X146057465Y-103731711D02*
X145914608Y-103803140D01*
X145843180Y-103874568D01*
X145771751Y-104017425D01*
X145771751Y-104160282D01*
X149321751Y-93267425D02*
X147821751Y-93267425D01*
X148750322Y-93410282D02*
X149321751Y-93838854D01*
X148321751Y-93838854D02*
X148893180Y-93267425D01*
X149321751Y-94481711D02*
X148321751Y-94481711D01*
X147821751Y-94481711D02*
X147893180Y-94410282D01*
X147964608Y-94481711D01*
X147893180Y-94553140D01*
X147821751Y-94481711D01*
X147964608Y-94481711D01*
X149321751Y-95195997D02*
X148321751Y-95195997D01*
X148464608Y-95195997D02*
X148393180Y-95267425D01*
X148321751Y-95410282D01*
X148321751Y-95624568D01*
X148393180Y-95767425D01*
X148536037Y-95838854D01*
X149321751Y-95838854D01*
X148536037Y-95838854D02*
X148393180Y-95910282D01*
X148321751Y-96053140D01*
X148321751Y-96267425D01*
X148393180Y-96410282D01*
X148536037Y-96481711D01*
X149321751Y-96481711D01*
X149250322Y-97838854D02*
X149321751Y-97695997D01*
X149321751Y-97410282D01*
X149250322Y-97267425D01*
X149178894Y-97195997D01*
X149036037Y-97124568D01*
X148607465Y-97124568D01*
X148464608Y-97195997D01*
X148393180Y-97267425D01*
X148321751Y-97410282D01*
X148321751Y-97695997D01*
X148393180Y-97838854D01*
X149321751Y-98481711D02*
X147821751Y-98481711D01*
X149321751Y-99124568D02*
X148536037Y-99124568D01*
X148393180Y-99053140D01*
X148321751Y-98910282D01*
X148321751Y-98695997D01*
X148393180Y-98553140D01*
X148464608Y-98481711D01*
X149321751Y-99838854D02*
X148321751Y-99838854D01*
X147821751Y-99838854D02*
X147893180Y-99767425D01*
X147964608Y-99838854D01*
X147893180Y-99910282D01*
X147821751Y-99838854D01*
X147964608Y-99838854D01*
X148750322Y-100553140D02*
X148750322Y-101695997D01*
X149321751Y-102410282D02*
X148321751Y-102410282D01*
X148464608Y-102410282D02*
X148393180Y-102481711D01*
X148321751Y-102624568D01*
X148321751Y-102838854D01*
X148393180Y-102981711D01*
X148536037Y-103053140D01*
X149321751Y-103053140D01*
X148536037Y-103053140D02*
X148393180Y-103124568D01*
X148321751Y-103267425D01*
X148321751Y-103481711D01*
X148393180Y-103624568D01*
X148536037Y-103695997D01*
X149321751Y-103695997D01*
X149321751Y-104410282D02*
X148321751Y-104410282D01*
X147821751Y-104410282D02*
X147893180Y-104338854D01*
X147964608Y-104410282D01*
X147893180Y-104481711D01*
X147821751Y-104410282D01*
X147964608Y-104410282D01*
X149250322Y-105767425D02*
X149321751Y-105624568D01*
X149321751Y-105338854D01*
X149250322Y-105195997D01*
X149178894Y-105124568D01*
X149036037Y-105053140D01*
X148607465Y-105053140D01*
X148464608Y-105124568D01*
X148393180Y-105195997D01*
X148321751Y-105338854D01*
X148321751Y-105624568D01*
X148393180Y-105767425D01*
X149321751Y-106410282D02*
X148321751Y-106410282D01*
X148607465Y-106410282D02*
X148464608Y-106481711D01*
X148393180Y-106553140D01*
X148321751Y-106695997D01*
X148321751Y-106838854D01*
X149321751Y-107553140D02*
X149250322Y-107410282D01*
X149178894Y-107338854D01*
X149036037Y-107267425D01*
X148607465Y-107267425D01*
X148464608Y-107338854D01*
X148393180Y-107410282D01*
X148321751Y-107553140D01*
X148321751Y-107767425D01*
X148393180Y-107910282D01*
X148464608Y-107981711D01*
X148607465Y-108053140D01*
X149036037Y-108053140D01*
X149178894Y-107981711D01*
X149250322Y-107910282D01*
X149321751Y-107767425D01*
X149321751Y-107553140D01*
X152148417Y-95307800D02*
X150948417Y-95307800D01*
X150948417Y-95593514D01*
X151005560Y-95764942D01*
X151119845Y-95879228D01*
X151234131Y-95936371D01*
X151462702Y-95993514D01*
X151634131Y-95993514D01*
X151862702Y-95936371D01*
X151976988Y-95879228D01*
X152091274Y-95764942D01*
X152148417Y-95593514D01*
X152148417Y-95307800D01*
X152091274Y-96964942D02*
X152148417Y-96850657D01*
X152148417Y-96622085D01*
X152091274Y-96507800D01*
X151976988Y-96450657D01*
X151519845Y-96450657D01*
X151405560Y-96507800D01*
X151348417Y-96622085D01*
X151348417Y-96850657D01*
X151405560Y-96964942D01*
X151519845Y-97022085D01*
X151634131Y-97022085D01*
X151748417Y-96450657D01*
X152091274Y-97479228D02*
X152148417Y-97593514D01*
X152148417Y-97822085D01*
X152091274Y-97936371D01*
X151976988Y-97993514D01*
X151919845Y-97993514D01*
X151805560Y-97936371D01*
X151748417Y-97822085D01*
X151748417Y-97650657D01*
X151691274Y-97536371D01*
X151576988Y-97479228D01*
X151519845Y-97479228D01*
X151405560Y-97536371D01*
X151348417Y-97650657D01*
X151348417Y-97822085D01*
X151405560Y-97936371D01*
X152148417Y-98507800D02*
X151348417Y-98507800D01*
X150948417Y-98507800D02*
X151005560Y-98450657D01*
X151062702Y-98507800D01*
X151005560Y-98564942D01*
X150948417Y-98507800D01*
X151062702Y-98507800D01*
X151348417Y-99593514D02*
X152319845Y-99593514D01*
X152434131Y-99536371D01*
X152491274Y-99479228D01*
X152548417Y-99364942D01*
X152548417Y-99193514D01*
X152491274Y-99079228D01*
X152091274Y-99593514D02*
X152148417Y-99479228D01*
X152148417Y-99250657D01*
X152091274Y-99136371D01*
X152034131Y-99079228D01*
X151919845Y-99022085D01*
X151576988Y-99022085D01*
X151462702Y-99079228D01*
X151405560Y-99136371D01*
X151348417Y-99250657D01*
X151348417Y-99479228D01*
X151405560Y-99593514D01*
X151348417Y-100164942D02*
X152148417Y-100164942D01*
X151462702Y-100164942D02*
X151405560Y-100222085D01*
X151348417Y-100336371D01*
X151348417Y-100507800D01*
X151405560Y-100622085D01*
X151519845Y-100679228D01*
X152148417Y-100679228D01*
X152091274Y-101707800D02*
X152148417Y-101593514D01*
X152148417Y-101364942D01*
X152091274Y-101250657D01*
X151976988Y-101193514D01*
X151519845Y-101193514D01*
X151405560Y-101250657D01*
X151348417Y-101364942D01*
X151348417Y-101593514D01*
X151405560Y-101707800D01*
X151519845Y-101764942D01*
X151634131Y-101764942D01*
X151748417Y-101193514D01*
X152148417Y-102793514D02*
X150948417Y-102793514D01*
X152091274Y-102793514D02*
X152148417Y-102679228D01*
X152148417Y-102450657D01*
X152091274Y-102336371D01*
X152034131Y-102279228D01*
X151919845Y-102222085D01*
X151576988Y-102222085D01*
X151462702Y-102279228D01*
X151405560Y-102336371D01*
X151348417Y-102450657D01*
X151348417Y-102679228D01*
X151405560Y-102793514D01*
X152148417Y-104279228D02*
X150948417Y-104279228D01*
X151405560Y-104279228D02*
X151348417Y-104393514D01*
X151348417Y-104622085D01*
X151405560Y-104736371D01*
X151462702Y-104793514D01*
X151576988Y-104850657D01*
X151919845Y-104850657D01*
X152034131Y-104793514D01*
X152091274Y-104736371D01*
X152148417Y-104622085D01*
X152148417Y-104393514D01*
X152091274Y-104279228D01*
X151348417Y-105250657D02*
X152148417Y-105536371D01*
X151348417Y-105822085D02*
X152148417Y-105536371D01*
X152434131Y-105422085D01*
X152491274Y-105364942D01*
X152548417Y-105250657D01*
X153048417Y-92679228D02*
X154248417Y-93079228D01*
X153048417Y-93479228D01*
X154191274Y-94336371D02*
X154248417Y-94222085D01*
X154248417Y-93993514D01*
X154191274Y-93879228D01*
X154076988Y-93822085D01*
X153619845Y-93822085D01*
X153505560Y-93879228D01*
X153448417Y-93993514D01*
X153448417Y-94222085D01*
X153505560Y-94336371D01*
X153619845Y-94393514D01*
X153734131Y-94393514D01*
X153848417Y-93822085D01*
X154248417Y-95422085D02*
X153048417Y-95422085D01*
X154191274Y-95422085D02*
X154248417Y-95307800D01*
X154248417Y-95079228D01*
X154191274Y-94964942D01*
X154134131Y-94907800D01*
X154019845Y-94850657D01*
X153676988Y-94850657D01*
X153562702Y-94907800D01*
X153505560Y-94964942D01*
X153448417Y-95079228D01*
X153448417Y-95307800D01*
X153505560Y-95422085D01*
X154248417Y-96507800D02*
X153619845Y-96507800D01*
X153505560Y-96450657D01*
X153448417Y-96336371D01*
X153448417Y-96107800D01*
X153505560Y-95993514D01*
X154191274Y-96507800D02*
X154248417Y-96393514D01*
X154248417Y-96107800D01*
X154191274Y-95993514D01*
X154076988Y-95936371D01*
X153962702Y-95936371D01*
X153848417Y-95993514D01*
X153791274Y-96107800D01*
X153791274Y-96393514D01*
X153734131Y-96507800D01*
X153448417Y-97079228D02*
X154248417Y-97079228D01*
X153562702Y-97079228D02*
X153505560Y-97136371D01*
X153448417Y-97250657D01*
X153448417Y-97422085D01*
X153505560Y-97536371D01*
X153619845Y-97593514D01*
X154248417Y-97593514D01*
X153448417Y-97993514D02*
X153448417Y-98450657D01*
X153048417Y-98164942D02*
X154076988Y-98164942D01*
X154191274Y-98222085D01*
X154248417Y-98336371D01*
X154248417Y-98450657D01*
X154248417Y-99764942D02*
X153048417Y-99764942D01*
X153048417Y-100222085D01*
X153105560Y-100336371D01*
X153162702Y-100393514D01*
X153276988Y-100450657D01*
X153448417Y-100450657D01*
X153562702Y-100393514D01*
X153619845Y-100336371D01*
X153676988Y-100222085D01*
X153676988Y-99764942D01*
X154248417Y-101479228D02*
X153619845Y-101479228D01*
X153505560Y-101422085D01*
X153448417Y-101307800D01*
X153448417Y-101079228D01*
X153505560Y-100964942D01*
X154191274Y-101479228D02*
X154248417Y-101364942D01*
X154248417Y-101079228D01*
X154191274Y-100964942D01*
X154076988Y-100907800D01*
X153962702Y-100907800D01*
X153848417Y-100964942D01*
X153791274Y-101079228D01*
X153791274Y-101364942D01*
X153734131Y-101479228D01*
X154248417Y-102050657D02*
X153448417Y-102050657D01*
X153676988Y-102050657D02*
X153562702Y-102107800D01*
X153505560Y-102164942D01*
X153448417Y-102279228D01*
X153448417Y-102393514D01*
X154248417Y-103307800D02*
X153619845Y-103307800D01*
X153505560Y-103250657D01*
X153448417Y-103136371D01*
X153448417Y-102907800D01*
X153505560Y-102793514D01*
X154191274Y-103307800D02*
X154248417Y-103193514D01*
X154248417Y-102907800D01*
X154191274Y-102793514D01*
X154076988Y-102736371D01*
X153962702Y-102736371D01*
X153848417Y-102793514D01*
X153791274Y-102907800D01*
X153791274Y-103193514D01*
X153734131Y-103307800D01*
X153448417Y-103879228D02*
X154248417Y-103879228D01*
X153562702Y-103879228D02*
X153505560Y-103936371D01*
X153448417Y-104050657D01*
X153448417Y-104222085D01*
X153505560Y-104336371D01*
X153619845Y-104393514D01*
X154248417Y-104393514D01*
X153448417Y-104964942D02*
X154476988Y-104964942D01*
X154591274Y-104907800D01*
X154648417Y-104793514D01*
X154648417Y-104736371D01*
X153048417Y-104964942D02*
X153105560Y-104907800D01*
X153162702Y-104964942D01*
X153105560Y-105022085D01*
X153048417Y-104964942D01*
X153162702Y-104964942D01*
X154248417Y-106050657D02*
X153619845Y-106050657D01*
X153505560Y-105993514D01*
X153448417Y-105879228D01*
X153448417Y-105650657D01*
X153505560Y-105536371D01*
X154191274Y-106050657D02*
X154248417Y-105936371D01*
X154248417Y-105650657D01*
X154191274Y-105536371D01*
X154076988Y-105479228D01*
X153962702Y-105479228D01*
X153848417Y-105536371D01*
X153791274Y-105650657D01*
X153791274Y-105936371D01*
X153734131Y-106050657D01*
X153448417Y-106622085D02*
X154648417Y-106622085D01*
X153505560Y-106622085D02*
X153448417Y-106736371D01*
X153448417Y-106964942D01*
X153505560Y-107079228D01*
X153562702Y-107136371D01*
X153676988Y-107193514D01*
X154019845Y-107193514D01*
X154134131Y-107136371D01*
X154191274Y-107079228D01*
X154248417Y-106964942D01*
X154248417Y-106736371D01*
X154191274Y-106622085D01*
X154191274Y-108164942D02*
X154248417Y-108050657D01*
X154248417Y-107822085D01*
X154191274Y-107707800D01*
X154076988Y-107650657D01*
X153619845Y-107650657D01*
X153505560Y-107707800D01*
X153448417Y-107822085D01*
X153448417Y-108050657D01*
X153505560Y-108164942D01*
X153619845Y-108222085D01*
X153734131Y-108222085D01*
X153848417Y-107650657D01*
X155548417Y-96393514D02*
X156348417Y-96679228D01*
X155548417Y-96964942D01*
X156291274Y-97879228D02*
X156348417Y-97764942D01*
X156348417Y-97536371D01*
X156291274Y-97422085D01*
X156176988Y-97364942D01*
X155719845Y-97364942D01*
X155605560Y-97422085D01*
X155548417Y-97536371D01*
X155548417Y-97764942D01*
X155605560Y-97879228D01*
X155719845Y-97936371D01*
X155834131Y-97936371D01*
X155948417Y-97364942D01*
X155148417Y-98679228D02*
X155148417Y-98793514D01*
X155205560Y-98907800D01*
X155262702Y-98964942D01*
X155376988Y-99022085D01*
X155605560Y-99079228D01*
X155891274Y-99079228D01*
X156119845Y-99022085D01*
X156234131Y-98964942D01*
X156291274Y-98907800D01*
X156348417Y-98793514D01*
X156348417Y-98679228D01*
X156291274Y-98564942D01*
X156234131Y-98507800D01*
X156119845Y-98450657D01*
X155891274Y-98393514D01*
X155605560Y-98393514D01*
X155376988Y-98450657D01*
X155262702Y-98507800D01*
X155205560Y-98564942D01*
X155148417Y-98679228D01*
X156348417Y-99479228D02*
X155548417Y-100107800D01*
X155548417Y-99479228D02*
X156348417Y-100107800D01*
X156348417Y-101193514D02*
X156348417Y-100507800D01*
X156348417Y-100850657D02*
X155148417Y-100850657D01*
X155319845Y-100736371D01*
X155434131Y-100622085D01*
X155491274Y-100507800D01*
X155148417Y-101936371D02*
X155148417Y-102050657D01*
X155205560Y-102164942D01*
X155262702Y-102222085D01*
X155376988Y-102279228D01*
X155605560Y-102336371D01*
X155891274Y-102336371D01*
X156119845Y-102279228D01*
X156234131Y-102222085D01*
X156291274Y-102164942D01*
X156348417Y-102050657D01*
X156348417Y-101936371D01*
X156291274Y-101822085D01*
X156234131Y-101764942D01*
X156119845Y-101707800D01*
X155891274Y-101650657D01*
X155605560Y-101650657D01*
X155376988Y-101707800D01*
X155262702Y-101764942D01*
X155205560Y-101822085D01*
X155148417Y-101936371D01*
X156234131Y-102850657D02*
X156291274Y-102907800D01*
X156348417Y-102850657D01*
X156291274Y-102793514D01*
X156234131Y-102850657D01*
X156348417Y-102850657D01*
X156348417Y-103422085D02*
X155548417Y-103422085D01*
X155148417Y-103422085D02*
X155205560Y-103364942D01*
X155262702Y-103422085D01*
X155205560Y-103479228D01*
X155148417Y-103422085D01*
X155262702Y-103422085D01*
X155548417Y-103993514D02*
X156348417Y-103993514D01*
X155662702Y-103993514D02*
X155605560Y-104050657D01*
X155548417Y-104164942D01*
X155548417Y-104336371D01*
X155605560Y-104450657D01*
X155719845Y-104507800D01*
X156348417Y-104507800D01*
D11*
%TO.C,REF\u002A\u002A*%
G36*
X136177808Y-100345010D02*
G01*
X136178238Y-100423554D01*
X136179402Y-100480398D01*
X136181667Y-100519205D01*
X136185400Y-100543638D01*
X136190966Y-100557362D01*
X136198733Y-100564040D01*
X136209065Y-100567336D01*
X136210403Y-100567656D01*
X136234539Y-100572662D01*
X136282161Y-100581929D01*
X136348201Y-100594492D01*
X136427588Y-100609387D01*
X136515256Y-100625651D01*
X136518335Y-100626219D01*
X136604249Y-100642510D01*
X136680156Y-100657752D01*
X136741505Y-100670961D01*
X136783742Y-100681154D01*
X136802315Y-100687348D01*
X136802644Y-100687643D01*
X136811713Y-100705888D01*
X136826827Y-100743505D01*
X136844722Y-100792371D01*
X136844818Y-100792643D01*
X136867953Y-100854193D01*
X136897425Y-100926757D01*
X136927057Y-100995157D01*
X136928522Y-100998394D01*
X136979086Y-101109802D01*
X136810620Y-101356499D01*
X136759263Y-101432177D01*
X136713349Y-101500731D01*
X136675490Y-101558188D01*
X136648297Y-101600576D01*
X136634381Y-101623925D01*
X136633349Y-101626142D01*
X136637944Y-101643110D01*
X136660115Y-101674801D01*
X136700907Y-101722452D01*
X136761365Y-101787298D01*
X136825687Y-101853497D01*
X136889072Y-101917314D01*
X136946911Y-101974429D01*
X136995635Y-102021405D01*
X137031670Y-102054803D01*
X137051444Y-102071185D01*
X137052462Y-102071794D01*
X137066032Y-102073605D01*
X137088193Y-102066783D01*
X137121938Y-102049640D01*
X137170260Y-102020493D01*
X137236152Y-101977655D01*
X137320977Y-101920548D01*
X137395637Y-101869866D01*
X137462600Y-101824561D01*
X137517976Y-101787250D01*
X137557880Y-101760552D01*
X137578422Y-101747085D01*
X137579816Y-101746237D01*
X137599498Y-101747881D01*
X137637753Y-101760345D01*
X137687349Y-101781148D01*
X137703188Y-101788562D01*
X137773750Y-101820914D01*
X137853813Y-101855428D01*
X137923089Y-101883465D01*
X137974505Y-101903668D01*
X138013579Y-101919715D01*
X138034001Y-101928988D01*
X138035574Y-101930141D01*
X138038181Y-101947196D01*
X138045323Y-101987398D01*
X138055983Y-102045402D01*
X138069145Y-102115863D01*
X138083793Y-102193435D01*
X138098909Y-102272772D01*
X138113478Y-102348531D01*
X138126482Y-102415364D01*
X138136905Y-102467928D01*
X138143730Y-102500876D01*
X138145659Y-102508957D01*
X138150422Y-102517305D01*
X138161178Y-102523606D01*
X138181558Y-102528145D01*
X138215194Y-102531204D01*
X138265715Y-102533067D01*
X138336752Y-102534018D01*
X138431936Y-102534340D01*
X138470952Y-102534357D01*
X138788259Y-102534357D01*
X138803299Y-102458157D01*
X138811455Y-102415763D01*
X138823359Y-102352500D01*
X138837576Y-102276062D01*
X138852670Y-102194143D01*
X138856815Y-102171500D01*
X138871513Y-102095906D01*
X138885965Y-102030053D01*
X138898835Y-101979466D01*
X138908782Y-101949674D01*
X138911747Y-101944712D01*
X138932743Y-101932526D01*
X138973427Y-101915053D01*
X139025782Y-101895677D01*
X139037060Y-101891834D01*
X139106983Y-101866439D01*
X139185878Y-101834917D01*
X139256726Y-101804069D01*
X139257055Y-101803917D01*
X139368193Y-101752547D01*
X139616713Y-101921499D01*
X139865232Y-102090452D01*
X140082518Y-101873529D01*
X140147186Y-101807919D01*
X140204193Y-101748079D01*
X140250493Y-101697367D01*
X140283044Y-101659146D01*
X140298803Y-101636775D01*
X140299803Y-101633566D01*
X140291929Y-101614726D01*
X140270038Y-101576280D01*
X140236727Y-101522430D01*
X140194591Y-101457376D01*
X140147403Y-101387040D01*
X140099270Y-101315655D01*
X140057388Y-101252008D01*
X140024331Y-101200141D01*
X140002678Y-101164095D01*
X139995003Y-101147967D01*
X140001497Y-101128289D01*
X140018610Y-101090975D01*
X140042786Y-101043721D01*
X140045473Y-101038712D01*
X140077387Y-100975077D01*
X140093039Y-100931441D01*
X140093205Y-100904302D01*
X140078664Y-100890157D01*
X140078460Y-100890075D01*
X140061239Y-100883005D01*
X140020359Y-100866142D01*
X139958985Y-100840795D01*
X139880279Y-100808271D01*
X139787407Y-100769878D01*
X139683532Y-100726922D01*
X139582962Y-100685322D01*
X139471976Y-100639604D01*
X139369163Y-100597626D01*
X139277675Y-100560648D01*
X139200661Y-100529927D01*
X139141275Y-100506722D01*
X139102669Y-100492290D01*
X139088260Y-100487843D01*
X139071732Y-100498996D01*
X139045390Y-100528169D01*
X139016347Y-100567071D01*
X138924499Y-100677857D01*
X138819219Y-100764451D01*
X138702726Y-100825816D01*
X138577236Y-100860915D01*
X138444967Y-100868708D01*
X138383917Y-100863043D01*
X138257255Y-100832178D01*
X138145401Y-100779020D01*
X138049461Y-100706867D01*
X137970536Y-100619017D01*
X137909730Y-100518765D01*
X137868147Y-100409410D01*
X137846888Y-100294247D01*
X137847059Y-100176575D01*
X137869761Y-100059690D01*
X137916098Y-99946889D01*
X137987173Y-99841469D01*
X138027371Y-99797468D01*
X138130589Y-99713079D01*
X138243385Y-99654322D01*
X138362470Y-99620804D01*
X138484555Y-99612135D01*
X138606353Y-99627923D01*
X138724576Y-99667778D01*
X138835935Y-99731307D01*
X138937144Y-99818121D01*
X139016347Y-99915129D01*
X139046622Y-99955537D01*
X139072679Y-99984082D01*
X139088285Y-99994357D01*
X139105303Y-99988977D01*
X139145960Y-99973675D01*
X139207102Y-99949712D01*
X139285579Y-99918344D01*
X139378240Y-99880832D01*
X139481932Y-99838433D01*
X139582986Y-99796763D01*
X139694067Y-99750790D01*
X139797001Y-99708207D01*
X139888625Y-99670321D01*
X139965776Y-99638440D01*
X140025291Y-99613871D01*
X140064004Y-99597920D01*
X140078460Y-99592010D01*
X140093145Y-99578048D01*
X140093102Y-99551040D01*
X140077559Y-99507513D01*
X140045744Y-99443990D01*
X140045473Y-99443488D01*
X140020783Y-99395660D01*
X140002798Y-99356997D01*
X139995074Y-99335195D01*
X139995003Y-99334233D01*
X140002838Y-99317821D01*
X140024625Y-99281587D01*
X140057788Y-99229574D01*
X140099751Y-99165825D01*
X140147403Y-99095160D01*
X140195651Y-99023216D01*
X140237611Y-98958374D01*
X140270687Y-98904835D01*
X140292281Y-98866797D01*
X140299803Y-98848633D01*
X140289917Y-98831908D01*
X140262286Y-98798280D01*
X140219955Y-98751110D01*
X140165965Y-98693758D01*
X140103359Y-98629584D01*
X140082443Y-98608597D01*
X139865083Y-98391599D01*
X139622680Y-98556768D01*
X139548241Y-98606964D01*
X139481432Y-98651019D01*
X139426125Y-98686462D01*
X139386189Y-98710819D01*
X139365496Y-98721622D01*
X139364023Y-98721938D01*
X139344518Y-98716243D01*
X139305282Y-98700926D01*
X139252890Y-98678637D01*
X139217815Y-98662993D01*
X139150661Y-98633741D01*
X139082818Y-98606194D01*
X139025494Y-98584837D01*
X139008032Y-98579035D01*
X138961398Y-98562552D01*
X138925365Y-98546440D01*
X138911747Y-98537590D01*
X138903412Y-98518060D01*
X138891597Y-98475434D01*
X138877641Y-98415245D01*
X138862882Y-98343022D01*
X138856815Y-98310700D01*
X138841733Y-98228622D01*
X138827129Y-98149895D01*
X138814440Y-98082209D01*
X138805102Y-98033260D01*
X138803299Y-98024043D01*
X138788259Y-97947843D01*
X138470952Y-97947843D01*
X138366614Y-97948014D01*
X138287673Y-97948716D01*
X138230498Y-97950234D01*
X138191459Y-97952849D01*
X138166925Y-97956846D01*
X138153265Y-97962509D01*
X138146849Y-97970120D01*
X138145659Y-97973243D01*
X138141440Y-97992078D01*
X138133022Y-98033688D01*
X138121421Y-98092730D01*
X138107655Y-98163857D01*
X138092740Y-98241725D01*
X138077692Y-98320987D01*
X138063529Y-98396298D01*
X138051266Y-98462313D01*
X138041921Y-98513687D01*
X138036510Y-98545075D01*
X138035574Y-98552059D01*
X138023056Y-98558385D01*
X137989706Y-98572390D01*
X137941837Y-98591455D01*
X137923089Y-98598734D01*
X137850655Y-98628096D01*
X137770630Y-98662671D01*
X137703188Y-98693637D01*
X137651619Y-98716423D01*
X137609245Y-98731582D01*
X137583294Y-98736642D01*
X137579816Y-98735836D01*
X137563396Y-98725141D01*
X137526877Y-98700720D01*
X137474147Y-98665195D01*
X137409095Y-98621187D01*
X137335611Y-98571317D01*
X137321105Y-98561456D01*
X137235164Y-98503592D01*
X137169721Y-98461056D01*
X137121764Y-98432154D01*
X137088280Y-98415190D01*
X137066255Y-98408467D01*
X137052677Y-98410290D01*
X137052591Y-98410336D01*
X137034757Y-98424686D01*
X137000277Y-98456423D01*
X136952728Y-98502110D01*
X136895682Y-98558304D01*
X136832715Y-98621568D01*
X136825687Y-98628702D01*
X136748480Y-98708430D01*
X136691790Y-98769957D01*
X136654570Y-98814521D01*
X136635775Y-98843357D01*
X136633349Y-98856058D01*
X136643931Y-98874594D01*
X136668376Y-98913061D01*
X136704072Y-98967486D01*
X136748407Y-99033898D01*
X136798771Y-99108325D01*
X136810620Y-99125701D01*
X136979086Y-99372397D01*
X136928522Y-99483806D01*
X136899055Y-99551557D01*
X136869419Y-99624283D01*
X136845790Y-99686803D01*
X136844818Y-99689557D01*
X136826917Y-99738460D01*
X136811780Y-99776157D01*
X136802670Y-99794525D01*
X136802644Y-99794556D01*
X136786177Y-99800385D01*
X136745679Y-99810292D01*
X136685702Y-99823295D01*
X136610800Y-99838409D01*
X136525524Y-99854652D01*
X136518335Y-99855981D01*
X136430474Y-99872275D01*
X136350720Y-99887233D01*
X136284141Y-99899891D01*
X136235807Y-99909286D01*
X136210785Y-99914454D01*
X136210403Y-99914544D01*
X136199759Y-99917689D01*
X136191722Y-99923804D01*
X136185927Y-99936553D01*
X136182007Y-99959600D01*
X136179595Y-99996609D01*
X136178325Y-100051244D01*
X136177831Y-100127167D01*
X136177746Y-100228044D01*
X136177746Y-100241100D01*
X136177808Y-100345010D01*
G37*
X136177808Y-100345010D02*
X136178238Y-100423554D01*
X136179402Y-100480398D01*
X136181667Y-100519205D01*
X136185400Y-100543638D01*
X136190966Y-100557362D01*
X136198733Y-100564040D01*
X136209065Y-100567336D01*
X136210403Y-100567656D01*
X136234539Y-100572662D01*
X136282161Y-100581929D01*
X136348201Y-100594492D01*
X136427588Y-100609387D01*
X136515256Y-100625651D01*
X136518335Y-100626219D01*
X136604249Y-100642510D01*
X136680156Y-100657752D01*
X136741505Y-100670961D01*
X136783742Y-100681154D01*
X136802315Y-100687348D01*
X136802644Y-100687643D01*
X136811713Y-100705888D01*
X136826827Y-100743505D01*
X136844722Y-100792371D01*
X136844818Y-100792643D01*
X136867953Y-100854193D01*
X136897425Y-100926757D01*
X136927057Y-100995157D01*
X136928522Y-100998394D01*
X136979086Y-101109802D01*
X136810620Y-101356499D01*
X136759263Y-101432177D01*
X136713349Y-101500731D01*
X136675490Y-101558188D01*
X136648297Y-101600576D01*
X136634381Y-101623925D01*
X136633349Y-101626142D01*
X136637944Y-101643110D01*
X136660115Y-101674801D01*
X136700907Y-101722452D01*
X136761365Y-101787298D01*
X136825687Y-101853497D01*
X136889072Y-101917314D01*
X136946911Y-101974429D01*
X136995635Y-102021405D01*
X137031670Y-102054803D01*
X137051444Y-102071185D01*
X137052462Y-102071794D01*
X137066032Y-102073605D01*
X137088193Y-102066783D01*
X137121938Y-102049640D01*
X137170260Y-102020493D01*
X137236152Y-101977655D01*
X137320977Y-101920548D01*
X137395637Y-101869866D01*
X137462600Y-101824561D01*
X137517976Y-101787250D01*
X137557880Y-101760552D01*
X137578422Y-101747085D01*
X137579816Y-101746237D01*
X137599498Y-101747881D01*
X137637753Y-101760345D01*
X137687349Y-101781148D01*
X137703188Y-101788562D01*
X137773750Y-101820914D01*
X137853813Y-101855428D01*
X137923089Y-101883465D01*
X137974505Y-101903668D01*
X138013579Y-101919715D01*
X138034001Y-101928988D01*
X138035574Y-101930141D01*
X138038181Y-101947196D01*
X138045323Y-101987398D01*
X138055983Y-102045402D01*
X138069145Y-102115863D01*
X138083793Y-102193435D01*
X138098909Y-102272772D01*
X138113478Y-102348531D01*
X138126482Y-102415364D01*
X138136905Y-102467928D01*
X138143730Y-102500876D01*
X138145659Y-102508957D01*
X138150422Y-102517305D01*
X138161178Y-102523606D01*
X138181558Y-102528145D01*
X138215194Y-102531204D01*
X138265715Y-102533067D01*
X138336752Y-102534018D01*
X138431936Y-102534340D01*
X138470952Y-102534357D01*
X138788259Y-102534357D01*
X138803299Y-102458157D01*
X138811455Y-102415763D01*
X138823359Y-102352500D01*
X138837576Y-102276062D01*
X138852670Y-102194143D01*
X138856815Y-102171500D01*
X138871513Y-102095906D01*
X138885965Y-102030053D01*
X138898835Y-101979466D01*
X138908782Y-101949674D01*
X138911747Y-101944712D01*
X138932743Y-101932526D01*
X138973427Y-101915053D01*
X139025782Y-101895677D01*
X139037060Y-101891834D01*
X139106983Y-101866439D01*
X139185878Y-101834917D01*
X139256726Y-101804069D01*
X139257055Y-101803917D01*
X139368193Y-101752547D01*
X139616713Y-101921499D01*
X139865232Y-102090452D01*
X140082518Y-101873529D01*
X140147186Y-101807919D01*
X140204193Y-101748079D01*
X140250493Y-101697367D01*
X140283044Y-101659146D01*
X140298803Y-101636775D01*
X140299803Y-101633566D01*
X140291929Y-101614726D01*
X140270038Y-101576280D01*
X140236727Y-101522430D01*
X140194591Y-101457376D01*
X140147403Y-101387040D01*
X140099270Y-101315655D01*
X140057388Y-101252008D01*
X140024331Y-101200141D01*
X140002678Y-101164095D01*
X139995003Y-101147967D01*
X140001497Y-101128289D01*
X140018610Y-101090975D01*
X140042786Y-101043721D01*
X140045473Y-101038712D01*
X140077387Y-100975077D01*
X140093039Y-100931441D01*
X140093205Y-100904302D01*
X140078664Y-100890157D01*
X140078460Y-100890075D01*
X140061239Y-100883005D01*
X140020359Y-100866142D01*
X139958985Y-100840795D01*
X139880279Y-100808271D01*
X139787407Y-100769878D01*
X139683532Y-100726922D01*
X139582962Y-100685322D01*
X139471976Y-100639604D01*
X139369163Y-100597626D01*
X139277675Y-100560648D01*
X139200661Y-100529927D01*
X139141275Y-100506722D01*
X139102669Y-100492290D01*
X139088260Y-100487843D01*
X139071732Y-100498996D01*
X139045390Y-100528169D01*
X139016347Y-100567071D01*
X138924499Y-100677857D01*
X138819219Y-100764451D01*
X138702726Y-100825816D01*
X138577236Y-100860915D01*
X138444967Y-100868708D01*
X138383917Y-100863043D01*
X138257255Y-100832178D01*
X138145401Y-100779020D01*
X138049461Y-100706867D01*
X137970536Y-100619017D01*
X137909730Y-100518765D01*
X137868147Y-100409410D01*
X137846888Y-100294247D01*
X137847059Y-100176575D01*
X137869761Y-100059690D01*
X137916098Y-99946889D01*
X137987173Y-99841469D01*
X138027371Y-99797468D01*
X138130589Y-99713079D01*
X138243385Y-99654322D01*
X138362470Y-99620804D01*
X138484555Y-99612135D01*
X138606353Y-99627923D01*
X138724576Y-99667778D01*
X138835935Y-99731307D01*
X138937144Y-99818121D01*
X139016347Y-99915129D01*
X139046622Y-99955537D01*
X139072679Y-99984082D01*
X139088285Y-99994357D01*
X139105303Y-99988977D01*
X139145960Y-99973675D01*
X139207102Y-99949712D01*
X139285579Y-99918344D01*
X139378240Y-99880832D01*
X139481932Y-99838433D01*
X139582986Y-99796763D01*
X139694067Y-99750790D01*
X139797001Y-99708207D01*
X139888625Y-99670321D01*
X139965776Y-99638440D01*
X140025291Y-99613871D01*
X140064004Y-99597920D01*
X140078460Y-99592010D01*
X140093145Y-99578048D01*
X140093102Y-99551040D01*
X140077559Y-99507513D01*
X140045744Y-99443990D01*
X140045473Y-99443488D01*
X140020783Y-99395660D01*
X140002798Y-99356997D01*
X139995074Y-99335195D01*
X139995003Y-99334233D01*
X140002838Y-99317821D01*
X140024625Y-99281587D01*
X140057788Y-99229574D01*
X140099751Y-99165825D01*
X140147403Y-99095160D01*
X140195651Y-99023216D01*
X140237611Y-98958374D01*
X140270687Y-98904835D01*
X140292281Y-98866797D01*
X140299803Y-98848633D01*
X140289917Y-98831908D01*
X140262286Y-98798280D01*
X140219955Y-98751110D01*
X140165965Y-98693758D01*
X140103359Y-98629584D01*
X140082443Y-98608597D01*
X139865083Y-98391599D01*
X139622680Y-98556768D01*
X139548241Y-98606964D01*
X139481432Y-98651019D01*
X139426125Y-98686462D01*
X139386189Y-98710819D01*
X139365496Y-98721622D01*
X139364023Y-98721938D01*
X139344518Y-98716243D01*
X139305282Y-98700926D01*
X139252890Y-98678637D01*
X139217815Y-98662993D01*
X139150661Y-98633741D01*
X139082818Y-98606194D01*
X139025494Y-98584837D01*
X139008032Y-98579035D01*
X138961398Y-98562552D01*
X138925365Y-98546440D01*
X138911747Y-98537590D01*
X138903412Y-98518060D01*
X138891597Y-98475434D01*
X138877641Y-98415245D01*
X138862882Y-98343022D01*
X138856815Y-98310700D01*
X138841733Y-98228622D01*
X138827129Y-98149895D01*
X138814440Y-98082209D01*
X138805102Y-98033260D01*
X138803299Y-98024043D01*
X138788259Y-97947843D01*
X138470952Y-97947843D01*
X138366614Y-97948014D01*
X138287673Y-97948716D01*
X138230498Y-97950234D01*
X138191459Y-97952849D01*
X138166925Y-97956846D01*
X138153265Y-97962509D01*
X138146849Y-97970120D01*
X138145659Y-97973243D01*
X138141440Y-97992078D01*
X138133022Y-98033688D01*
X138121421Y-98092730D01*
X138107655Y-98163857D01*
X138092740Y-98241725D01*
X138077692Y-98320987D01*
X138063529Y-98396298D01*
X138051266Y-98462313D01*
X138041921Y-98513687D01*
X138036510Y-98545075D01*
X138035574Y-98552059D01*
X138023056Y-98558385D01*
X137989706Y-98572390D01*
X137941837Y-98591455D01*
X137923089Y-98598734D01*
X137850655Y-98628096D01*
X137770630Y-98662671D01*
X137703188Y-98693637D01*
X137651619Y-98716423D01*
X137609245Y-98731582D01*
X137583294Y-98736642D01*
X137579816Y-98735836D01*
X137563396Y-98725141D01*
X137526877Y-98700720D01*
X137474147Y-98665195D01*
X137409095Y-98621187D01*
X137335611Y-98571317D01*
X137321105Y-98561456D01*
X137235164Y-98503592D01*
X137169721Y-98461056D01*
X137121764Y-98432154D01*
X137088280Y-98415190D01*
X137066255Y-98408467D01*
X137052677Y-98410290D01*
X137052591Y-98410336D01*
X137034757Y-98424686D01*
X137000277Y-98456423D01*
X136952728Y-98502110D01*
X136895682Y-98558304D01*
X136832715Y-98621568D01*
X136825687Y-98628702D01*
X136748480Y-98708430D01*
X136691790Y-98769957D01*
X136654570Y-98814521D01*
X136635775Y-98843357D01*
X136633349Y-98856058D01*
X136643931Y-98874594D01*
X136668376Y-98913061D01*
X136704072Y-98967486D01*
X136748407Y-99033898D01*
X136798771Y-99108325D01*
X136810620Y-99125701D01*
X136979086Y-99372397D01*
X136928522Y-99483806D01*
X136899055Y-99551557D01*
X136869419Y-99624283D01*
X136845790Y-99686803D01*
X136844818Y-99689557D01*
X136826917Y-99738460D01*
X136811780Y-99776157D01*
X136802670Y-99794525D01*
X136802644Y-99794556D01*
X136786177Y-99800385D01*
X136745679Y-99810292D01*
X136685702Y-99823295D01*
X136610800Y-99838409D01*
X136525524Y-99854652D01*
X136518335Y-99855981D01*
X136430474Y-99872275D01*
X136350720Y-99887233D01*
X136284141Y-99899891D01*
X136235807Y-99909286D01*
X136210785Y-99914454D01*
X136210403Y-99914544D01*
X136199759Y-99917689D01*
X136191722Y-99923804D01*
X136185927Y-99936553D01*
X136182007Y-99959600D01*
X136179595Y-99996609D01*
X136178325Y-100051244D01*
X136177831Y-100127167D01*
X136177746Y-100228044D01*
X136177746Y-100241100D01*
X136177808Y-100345010D01*
G36*
X140902426Y-103394695D02*
G01*
X140939957Y-103452121D01*
X140973556Y-103479819D01*
X141034524Y-103501762D01*
X141082768Y-103503505D01*
X141147276Y-103499557D01*
X141212394Y-103350786D01*
X141245662Y-103278449D01*
X141272424Y-103231184D01*
X141295604Y-103206607D01*
X141318127Y-103202337D01*
X141342915Y-103215989D01*
X141359346Y-103231043D01*
X141385695Y-103274846D01*
X141387541Y-103322489D01*
X141367006Y-103366245D01*
X141326212Y-103398389D01*
X141311807Y-103404138D01*
X141266816Y-103431676D01*
X141247642Y-103463358D01*
X141231239Y-103506814D01*
X141293426Y-103506814D01*
X141335743Y-103502972D01*
X141371429Y-103487923D01*
X141412403Y-103456380D01*
X141417727Y-103451692D01*
X141454180Y-103416606D01*
X141473743Y-103386447D01*
X141482743Y-103348715D01*
X141485690Y-103317435D01*
X141486425Y-103261485D01*
X141477120Y-103221655D01*
X141463306Y-103196808D01*
X141432927Y-103157756D01*
X141400073Y-103130725D01*
X141358754Y-103113617D01*
X141302981Y-103104338D01*
X141226765Y-103100793D01*
X141188082Y-103100510D01*
X141141707Y-103101472D01*
X141141707Y-103189107D01*
X141166586Y-103190123D01*
X141170660Y-103192656D01*
X141165125Y-103209374D01*
X141150477Y-103245349D01*
X141129650Y-103293431D01*
X141125174Y-103303486D01*
X141094274Y-103364252D01*
X141067117Y-103397732D01*
X141041680Y-103405090D01*
X141015941Y-103387491D01*
X141004569Y-103372956D01*
X140981824Y-103320510D01*
X140985582Y-103271422D01*
X141013344Y-103230327D01*
X141062612Y-103201858D01*
X141101717Y-103192731D01*
X141141707Y-103189107D01*
X141141707Y-103101472D01*
X141097709Y-103102385D01*
X141030844Y-103109296D01*
X140982155Y-103122984D01*
X140946309Y-103145196D01*
X140917973Y-103177674D01*
X140908815Y-103191833D01*
X140884967Y-103256153D01*
X140883466Y-103326573D01*
X140902426Y-103394695D01*
G37*
X140902426Y-103394695D02*
X140939957Y-103452121D01*
X140973556Y-103479819D01*
X141034524Y-103501762D01*
X141082768Y-103503505D01*
X141147276Y-103499557D01*
X141212394Y-103350786D01*
X141245662Y-103278449D01*
X141272424Y-103231184D01*
X141295604Y-103206607D01*
X141318127Y-103202337D01*
X141342915Y-103215989D01*
X141359346Y-103231043D01*
X141385695Y-103274846D01*
X141387541Y-103322489D01*
X141367006Y-103366245D01*
X141326212Y-103398389D01*
X141311807Y-103404138D01*
X141266816Y-103431676D01*
X141247642Y-103463358D01*
X141231239Y-103506814D01*
X141293426Y-103506814D01*
X141335743Y-103502972D01*
X141371429Y-103487923D01*
X141412403Y-103456380D01*
X141417727Y-103451692D01*
X141454180Y-103416606D01*
X141473743Y-103386447D01*
X141482743Y-103348715D01*
X141485690Y-103317435D01*
X141486425Y-103261485D01*
X141477120Y-103221655D01*
X141463306Y-103196808D01*
X141432927Y-103157756D01*
X141400073Y-103130725D01*
X141358754Y-103113617D01*
X141302981Y-103104338D01*
X141226765Y-103100793D01*
X141188082Y-103100510D01*
X141141707Y-103101472D01*
X141141707Y-103189107D01*
X141166586Y-103190123D01*
X141170660Y-103192656D01*
X141165125Y-103209374D01*
X141150477Y-103245349D01*
X141129650Y-103293431D01*
X141125174Y-103303486D01*
X141094274Y-103364252D01*
X141067117Y-103397732D01*
X141041680Y-103405090D01*
X141015941Y-103387491D01*
X141004569Y-103372956D01*
X140981824Y-103320510D01*
X140985582Y-103271422D01*
X141013344Y-103230327D01*
X141062612Y-103201858D01*
X141101717Y-103192731D01*
X141141707Y-103189107D01*
X141141707Y-103101472D01*
X141097709Y-103102385D01*
X141030844Y-103109296D01*
X140982155Y-103122984D01*
X140946309Y-103145196D01*
X140917973Y-103177674D01*
X140908815Y-103191833D01*
X140884967Y-103256153D01*
X140883466Y-103326573D01*
X140902426Y-103394695D01*
G36*
X140894212Y-102893700D02*
G01*
X140901794Y-102911048D01*
X140934588Y-102952456D01*
X140982007Y-102987865D01*
X141032611Y-103009764D01*
X141057558Y-103013329D01*
X141092387Y-103001379D01*
X141110817Y-102975167D01*
X141121976Y-102947064D01*
X141124032Y-102934195D01*
X141109109Y-102927929D01*
X141076635Y-102915556D01*
X141061962Y-102910128D01*
X141011204Y-102879690D01*
X140985887Y-102835620D01*
X140986666Y-102779110D01*
X140987663Y-102774925D01*
X141001967Y-102744755D01*
X141029853Y-102722576D01*
X141074747Y-102707427D01*
X141140075Y-102698350D01*
X141229264Y-102694386D01*
X141276721Y-102694014D01*
X141351531Y-102693830D01*
X141402529Y-102692622D01*
X141434931Y-102689409D01*
X141453955Y-102683209D01*
X141464816Y-102673040D01*
X141472732Y-102657919D01*
X141473130Y-102657046D01*
X141485441Y-102627928D01*
X141489974Y-102613503D01*
X141476269Y-102611286D01*
X141438385Y-102609389D01*
X141381175Y-102607947D01*
X141309487Y-102607098D01*
X141257025Y-102606929D01*
X141155507Y-102607792D01*
X141078492Y-102611170D01*
X141021483Y-102618242D01*
X140979986Y-102630188D01*
X140949503Y-102648190D01*
X140925540Y-102673427D01*
X140908815Y-102698347D01*
X140886557Y-102758271D01*
X140881536Y-102828011D01*
X140894212Y-102893700D01*
G37*
X140894212Y-102893700D02*
X140901794Y-102911048D01*
X140934588Y-102952456D01*
X140982007Y-102987865D01*
X141032611Y-103009764D01*
X141057558Y-103013329D01*
X141092387Y-103001379D01*
X141110817Y-102975167D01*
X141121976Y-102947064D01*
X141124032Y-102934195D01*
X141109109Y-102927929D01*
X141076635Y-102915556D01*
X141061962Y-102910128D01*
X141011204Y-102879690D01*
X140985887Y-102835620D01*
X140986666Y-102779110D01*
X140987663Y-102774925D01*
X141001967Y-102744755D01*
X141029853Y-102722576D01*
X141074747Y-102707427D01*
X141140075Y-102698350D01*
X141229264Y-102694386D01*
X141276721Y-102694014D01*
X141351531Y-102693830D01*
X141402529Y-102692622D01*
X141434931Y-102689409D01*
X141453955Y-102683209D01*
X141464816Y-102673040D01*
X141472732Y-102657919D01*
X141473130Y-102657046D01*
X141485441Y-102627928D01*
X141489974Y-102613503D01*
X141476269Y-102611286D01*
X141438385Y-102609389D01*
X141381175Y-102607947D01*
X141309487Y-102607098D01*
X141257025Y-102606929D01*
X141155507Y-102607792D01*
X141078492Y-102611170D01*
X141021483Y-102618242D01*
X140979986Y-102630188D01*
X140949503Y-102648190D01*
X140925540Y-102673427D01*
X140908815Y-102698347D01*
X140886557Y-102758271D01*
X140881536Y-102828011D01*
X140894212Y-102893700D01*
G36*
X140891795Y-102385976D02*
G01*
X140910804Y-102427767D01*
X140933838Y-102460569D01*
X140959593Y-102484603D01*
X140992818Y-102501197D01*
X141038260Y-102511677D01*
X141100667Y-102517371D01*
X141184787Y-102519607D01*
X141240181Y-102519843D01*
X141456286Y-102519843D01*
X141473130Y-102482874D01*
X141485441Y-102453756D01*
X141489974Y-102439331D01*
X141476485Y-102436572D01*
X141440113Y-102434382D01*
X141387002Y-102433042D01*
X141344832Y-102432757D01*
X141283907Y-102431534D01*
X141235575Y-102428236D01*
X141205978Y-102423421D01*
X141199689Y-102419596D01*
X141206112Y-102393883D01*
X141222585Y-102353518D01*
X141244918Y-102306779D01*
X141268917Y-102261945D01*
X141290390Y-102227293D01*
X141305145Y-102211102D01*
X141305305Y-102211038D01*
X141332612Y-102212430D01*
X141358679Y-102224918D01*
X141379852Y-102246843D01*
X141386934Y-102278843D01*
X141386109Y-102306192D01*
X141385502Y-102344926D01*
X141394576Y-102365258D01*
X141418552Y-102377469D01*
X141423073Y-102379009D01*
X141457266Y-102384303D01*
X141478028Y-102370147D01*
X141487922Y-102333248D01*
X141489752Y-102293389D01*
X141476187Y-102221662D01*
X141456815Y-102184532D01*
X141411305Y-102138676D01*
X141355443Y-102114356D01*
X141296417Y-102112173D01*
X141241413Y-102132729D01*
X141206946Y-102163649D01*
X141187649Y-102194520D01*
X141163219Y-102243042D01*
X141138445Y-102299585D01*
X141134659Y-102309010D01*
X141107251Y-102371119D01*
X141083094Y-102406922D01*
X141059079Y-102418437D01*
X141032095Y-102407680D01*
X141011003Y-102389214D01*
X140985032Y-102345569D01*
X140983084Y-102297546D01*
X141003097Y-102253506D01*
X141043011Y-102221809D01*
X141053308Y-102217649D01*
X141091184Y-102193427D01*
X141119302Y-102158065D01*
X141142377Y-102113443D01*
X141076945Y-102113443D01*
X141036966Y-102116069D01*
X141005457Y-102127330D01*
X140971838Y-102152299D01*
X140945944Y-102176269D01*
X140909277Y-102213541D01*
X140889581Y-102242501D01*
X140881680Y-102273605D01*
X140880374Y-102308813D01*
X140891795Y-102385976D01*
G37*
X140891795Y-102385976D02*
X140910804Y-102427767D01*
X140933838Y-102460569D01*
X140959593Y-102484603D01*
X140992818Y-102501197D01*
X141038260Y-102511677D01*
X141100667Y-102517371D01*
X141184787Y-102519607D01*
X141240181Y-102519843D01*
X141456286Y-102519843D01*
X141473130Y-102482874D01*
X141485441Y-102453756D01*
X141489974Y-102439331D01*
X141476485Y-102436572D01*
X141440113Y-102434382D01*
X141387002Y-102433042D01*
X141344832Y-102432757D01*
X141283907Y-102431534D01*
X141235575Y-102428236D01*
X141205978Y-102423421D01*
X141199689Y-102419596D01*
X141206112Y-102393883D01*
X141222585Y-102353518D01*
X141244918Y-102306779D01*
X141268917Y-102261945D01*
X141290390Y-102227293D01*
X141305145Y-102211102D01*
X141305305Y-102211038D01*
X141332612Y-102212430D01*
X141358679Y-102224918D01*
X141379852Y-102246843D01*
X141386934Y-102278843D01*
X141386109Y-102306192D01*
X141385502Y-102344926D01*
X141394576Y-102365258D01*
X141418552Y-102377469D01*
X141423073Y-102379009D01*
X141457266Y-102384303D01*
X141478028Y-102370147D01*
X141487922Y-102333248D01*
X141489752Y-102293389D01*
X141476187Y-102221662D01*
X141456815Y-102184532D01*
X141411305Y-102138676D01*
X141355443Y-102114356D01*
X141296417Y-102112173D01*
X141241413Y-102132729D01*
X141206946Y-102163649D01*
X141187649Y-102194520D01*
X141163219Y-102243042D01*
X141138445Y-102299585D01*
X141134659Y-102309010D01*
X141107251Y-102371119D01*
X141083094Y-102406922D01*
X141059079Y-102418437D01*
X141032095Y-102407680D01*
X141011003Y-102389214D01*
X140985032Y-102345569D01*
X140983084Y-102297546D01*
X141003097Y-102253506D01*
X141043011Y-102221809D01*
X141053308Y-102217649D01*
X141091184Y-102193427D01*
X141119302Y-102158065D01*
X141142377Y-102113443D01*
X141076945Y-102113443D01*
X141036966Y-102116069D01*
X141005457Y-102127330D01*
X140971838Y-102152299D01*
X140945944Y-102176269D01*
X140909277Y-102213541D01*
X140889581Y-102242501D01*
X140881680Y-102273605D01*
X140880374Y-102308813D01*
X140891795Y-102385976D01*
G36*
X140894123Y-102020933D02*
G01*
X140932310Y-102023148D01*
X140990346Y-102024884D01*
X141063640Y-102025999D01*
X141140515Y-102026357D01*
X141400656Y-102026357D01*
X141446587Y-101980426D01*
X141474889Y-101948775D01*
X141486353Y-101920990D01*
X141485628Y-101883015D01*
X141483781Y-101867940D01*
X141478408Y-101820826D01*
X141475329Y-101781856D01*
X141475045Y-101772357D01*
X141476905Y-101740333D01*
X141481574Y-101694532D01*
X141483781Y-101676774D01*
X141487195Y-101633157D01*
X141479780Y-101603845D01*
X141456887Y-101574780D01*
X141446587Y-101564288D01*
X141400656Y-101518357D01*
X140914062Y-101518357D01*
X140897218Y-101555326D01*
X140884742Y-101587159D01*
X140880374Y-101605783D01*
X140894178Y-101610558D01*
X140932746Y-101615021D01*
X140991816Y-101618875D01*
X141067123Y-101621822D01*
X141130746Y-101623243D01*
X141381117Y-101627214D01*
X141386016Y-101661859D01*
X141382591Y-101693368D01*
X141371501Y-101708808D01*
X141350768Y-101713123D01*
X141306605Y-101716808D01*
X141244606Y-101719569D01*
X141170369Y-101721112D01*
X141132166Y-101721335D01*
X140912243Y-101721557D01*
X140896309Y-101767266D01*
X140885475Y-101799618D01*
X140880422Y-101817215D01*
X140880374Y-101817723D01*
X140894108Y-101819488D01*
X140932190Y-101821429D01*
X140989942Y-101823382D01*
X141062687Y-101825184D01*
X141130746Y-101826443D01*
X141381117Y-101830414D01*
X141381117Y-101917500D01*
X141152700Y-101921496D01*
X140924282Y-101925492D01*
X140902328Y-101967947D01*
X140887253Y-101999292D01*
X140880411Y-102017844D01*
X140880374Y-102018379D01*
X140894123Y-102020933D01*
G37*
X140894123Y-102020933D02*
X140932310Y-102023148D01*
X140990346Y-102024884D01*
X141063640Y-102025999D01*
X141140515Y-102026357D01*
X141400656Y-102026357D01*
X141446587Y-101980426D01*
X141474889Y-101948775D01*
X141486353Y-101920990D01*
X141485628Y-101883015D01*
X141483781Y-101867940D01*
X141478408Y-101820826D01*
X141475329Y-101781856D01*
X141475045Y-101772357D01*
X141476905Y-101740333D01*
X141481574Y-101694532D01*
X141483781Y-101676774D01*
X141487195Y-101633157D01*
X141479780Y-101603845D01*
X141456887Y-101574780D01*
X141446587Y-101564288D01*
X141400656Y-101518357D01*
X140914062Y-101518357D01*
X140897218Y-101555326D01*
X140884742Y-101587159D01*
X140880374Y-101605783D01*
X140894178Y-101610558D01*
X140932746Y-101615021D01*
X140991816Y-101618875D01*
X141067123Y-101621822D01*
X141130746Y-101623243D01*
X141381117Y-101627214D01*
X141386016Y-101661859D01*
X141382591Y-101693368D01*
X141371501Y-101708808D01*
X141350768Y-101713123D01*
X141306605Y-101716808D01*
X141244606Y-101719569D01*
X141170369Y-101721112D01*
X141132166Y-101721335D01*
X140912243Y-101721557D01*
X140896309Y-101767266D01*
X140885475Y-101799618D01*
X140880422Y-101817215D01*
X140880374Y-101817723D01*
X140894108Y-101819488D01*
X140932190Y-101821429D01*
X140989942Y-101823382D01*
X141062687Y-101825184D01*
X141130746Y-101826443D01*
X141381117Y-101830414D01*
X141381117Y-101917500D01*
X141152700Y-101921496D01*
X140924282Y-101925492D01*
X140902328Y-101967947D01*
X140887253Y-101999292D01*
X140880411Y-102017844D01*
X140880374Y-102018379D01*
X140894123Y-102020933D01*
G36*
X141000818Y-101431217D02*
G01*
X141109297Y-101431033D01*
X141192747Y-101430319D01*
X141255164Y-101428775D01*
X141300545Y-101426101D01*
X141332889Y-101421994D01*
X141356193Y-101416155D01*
X141374455Y-101408282D01*
X141384878Y-101402321D01*
X141441405Y-101352955D01*
X141476837Y-101290364D01*
X141489550Y-101221113D01*
X141477923Y-101151768D01*
X141457028Y-101110475D01*
X141420882Y-101067125D01*
X141376736Y-101037581D01*
X141318922Y-101019755D01*
X141241773Y-101011563D01*
X141185174Y-101010402D01*
X141181107Y-101010558D01*
X141181107Y-101111957D01*
X141246010Y-101112576D01*
X141288974Y-101115414D01*
X141317082Y-101121940D01*
X141337413Y-101133623D01*
X141352748Y-101147583D01*
X141382350Y-101194465D01*
X141384879Y-101244801D01*
X141360165Y-101292376D01*
X141356816Y-101296079D01*
X141339395Y-101311883D01*
X141318669Y-101321793D01*
X141287822Y-101327158D01*
X141240037Y-101329328D01*
X141187208Y-101329671D01*
X141120841Y-101328927D01*
X141076566Y-101325848D01*
X141047469Y-101319161D01*
X141026633Y-101307596D01*
X141015567Y-101298113D01*
X140987658Y-101254060D01*
X140984303Y-101203324D01*
X141005619Y-101154896D01*
X141013533Y-101145550D01*
X141031107Y-101129640D01*
X141052047Y-101119710D01*
X141083242Y-101114378D01*
X141131582Y-101112263D01*
X141181107Y-101111957D01*
X141181107Y-101010558D01*
X141094028Y-101013910D01*
X141025546Y-101025826D01*
X140974060Y-101048235D01*
X140933903Y-101083224D01*
X140913321Y-101110475D01*
X140891085Y-101160007D01*
X140880764Y-101217416D01*
X140883527Y-101270782D01*
X140894672Y-101300643D01*
X140897843Y-101312361D01*
X140886017Y-101320137D01*
X140854326Y-101325565D01*
X140806053Y-101329671D01*
X140752289Y-101334167D01*
X140719942Y-101340413D01*
X140701445Y-101351776D01*
X140689230Y-101371628D01*
X140683822Y-101384100D01*
X140664061Y-101431271D01*
X141000818Y-101431217D01*
G37*
X141000818Y-101431217D02*
X141109297Y-101431033D01*
X141192747Y-101430319D01*
X141255164Y-101428775D01*
X141300545Y-101426101D01*
X141332889Y-101421994D01*
X141356193Y-101416155D01*
X141374455Y-101408282D01*
X141384878Y-101402321D01*
X141441405Y-101352955D01*
X141476837Y-101290364D01*
X141489550Y-101221113D01*
X141477923Y-101151768D01*
X141457028Y-101110475D01*
X141420882Y-101067125D01*
X141376736Y-101037581D01*
X141318922Y-101019755D01*
X141241773Y-101011563D01*
X141185174Y-101010402D01*
X141181107Y-101010558D01*
X141181107Y-101111957D01*
X141246010Y-101112576D01*
X141288974Y-101115414D01*
X141317082Y-101121940D01*
X141337413Y-101133623D01*
X141352748Y-101147583D01*
X141382350Y-101194465D01*
X141384879Y-101244801D01*
X141360165Y-101292376D01*
X141356816Y-101296079D01*
X141339395Y-101311883D01*
X141318669Y-101321793D01*
X141287822Y-101327158D01*
X141240037Y-101329328D01*
X141187208Y-101329671D01*
X141120841Y-101328927D01*
X141076566Y-101325848D01*
X141047469Y-101319161D01*
X141026633Y-101307596D01*
X141015567Y-101298113D01*
X140987658Y-101254060D01*
X140984303Y-101203324D01*
X141005619Y-101154896D01*
X141013533Y-101145550D01*
X141031107Y-101129640D01*
X141052047Y-101119710D01*
X141083242Y-101114378D01*
X141131582Y-101112263D01*
X141181107Y-101111957D01*
X141181107Y-101010558D01*
X141094028Y-101013910D01*
X141025546Y-101025826D01*
X140974060Y-101048235D01*
X140933903Y-101083224D01*
X140913321Y-101110475D01*
X140891085Y-101160007D01*
X140880764Y-101217416D01*
X140883527Y-101270782D01*
X140894672Y-101300643D01*
X140897843Y-101312361D01*
X140886017Y-101320137D01*
X140854326Y-101325565D01*
X140806053Y-101329671D01*
X140752289Y-101334167D01*
X140719942Y-101340413D01*
X140701445Y-101351776D01*
X140689230Y-101371628D01*
X140683822Y-101384100D01*
X140664061Y-101431271D01*
X141000818Y-101431217D01*
G36*
X140885215Y-100771026D02*
G01*
X140909544Y-100836958D01*
X140952577Y-100890373D01*
X140982869Y-100911264D01*
X141038454Y-100934039D01*
X141078646Y-100933566D01*
X141105677Y-100909662D01*
X141110273Y-100900817D01*
X141124604Y-100862630D01*
X141120932Y-100843128D01*
X141096867Y-100836522D01*
X141083574Y-100836186D01*
X141034670Y-100824092D01*
X141000459Y-100792571D01*
X140983936Y-100748759D01*
X140988094Y-100699795D01*
X141009687Y-100659994D01*
X141022004Y-100646550D01*
X141036947Y-100637021D01*
X141059535Y-100630585D01*
X141094788Y-100626417D01*
X141147726Y-100623697D01*
X141223367Y-100621602D01*
X141247317Y-100621060D01*
X141329250Y-100619081D01*
X141386915Y-100616831D01*
X141425068Y-100613457D01*
X141448464Y-100608106D01*
X141461858Y-100599924D01*
X141470005Y-100588059D01*
X141473604Y-100580462D01*
X141485912Y-100548202D01*
X141489974Y-100529211D01*
X141476408Y-100522936D01*
X141435394Y-100519106D01*
X141366459Y-100517700D01*
X141269129Y-100518698D01*
X141254117Y-100519008D01*
X141165319Y-100521201D01*
X141100479Y-100523793D01*
X141054527Y-100527482D01*
X141022395Y-100532964D01*
X140999013Y-100540935D01*
X140979312Y-100552093D01*
X140970870Y-100557930D01*
X140933517Y-100591396D01*
X140904463Y-100628827D01*
X140901927Y-100633409D01*
X140881903Y-100700526D01*
X140885215Y-100771026D01*
G37*
X140885215Y-100771026D02*
X140909544Y-100836958D01*
X140952577Y-100890373D01*
X140982869Y-100911264D01*
X141038454Y-100934039D01*
X141078646Y-100933566D01*
X141105677Y-100909662D01*
X141110273Y-100900817D01*
X141124604Y-100862630D01*
X141120932Y-100843128D01*
X141096867Y-100836522D01*
X141083574Y-100836186D01*
X141034670Y-100824092D01*
X141000459Y-100792571D01*
X140983936Y-100748759D01*
X140988094Y-100699795D01*
X141009687Y-100659994D01*
X141022004Y-100646550D01*
X141036947Y-100637021D01*
X141059535Y-100630585D01*
X141094788Y-100626417D01*
X141147726Y-100623697D01*
X141223367Y-100621602D01*
X141247317Y-100621060D01*
X141329250Y-100619081D01*
X141386915Y-100616831D01*
X141425068Y-100613457D01*
X141448464Y-100608106D01*
X141461858Y-100599924D01*
X141470005Y-100588059D01*
X141473604Y-100580462D01*
X141485912Y-100548202D01*
X141489974Y-100529211D01*
X141476408Y-100522936D01*
X141435394Y-100519106D01*
X141366459Y-100517700D01*
X141269129Y-100518698D01*
X141254117Y-100519008D01*
X141165319Y-100521201D01*
X141100479Y-100523793D01*
X141054527Y-100527482D01*
X141022395Y-100532964D01*
X140999013Y-100540935D01*
X140979312Y-100552093D01*
X140970870Y-100557930D01*
X140933517Y-100591396D01*
X140904463Y-100628827D01*
X140901927Y-100633409D01*
X140881903Y-100700526D01*
X140885215Y-100771026D01*
G36*
X140886428Y-100280844D02*
G01*
X140907547Y-100337716D01*
X140907953Y-100338367D01*
X140933840Y-100373540D01*
X140964093Y-100399507D01*
X141003518Y-100417770D01*
X141056922Y-100429832D01*
X141129111Y-100437196D01*
X141224892Y-100441364D01*
X141238538Y-100441729D01*
X141444302Y-100446976D01*
X141467138Y-100402816D01*
X141482570Y-100370863D01*
X141489883Y-100351570D01*
X141489974Y-100350678D01*
X141476482Y-100347339D01*
X141440086Y-100344687D01*
X141386912Y-100343056D01*
X141343853Y-100342700D01*
X141274101Y-100342692D01*
X141230297Y-100339503D01*
X141209404Y-100328388D01*
X141208385Y-100304601D01*
X141224201Y-100263396D01*
X141253275Y-100201186D01*
X141277423Y-100155441D01*
X141298373Y-100131913D01*
X141321207Y-100124996D01*
X141322337Y-100124986D01*
X141361672Y-100136399D01*
X141382922Y-100170192D01*
X141385999Y-100221909D01*
X141385466Y-100259161D01*
X141396195Y-100278803D01*
X141421965Y-100291052D01*
X141454797Y-100298102D01*
X141473426Y-100287942D01*
X141476092Y-100284117D01*
X141486800Y-100248101D01*
X141488316Y-100197666D01*
X141481219Y-100145726D01*
X141468248Y-100108922D01*
X141425045Y-100058038D01*
X141364906Y-100029114D01*
X141317922Y-100023386D01*
X141275542Y-100027757D01*
X141240948Y-100043575D01*
X141210223Y-100074897D01*
X141179450Y-100125778D01*
X141144712Y-100200276D01*
X141142748Y-100204814D01*
X141111747Y-100271921D01*
X141086322Y-100313332D01*
X141063474Y-100331081D01*
X141040205Y-100327207D01*
X141013516Y-100303743D01*
X141007374Y-100296727D01*
X140983560Y-100249730D01*
X140984563Y-100201033D01*
X141007911Y-100158622D01*
X141051135Y-100130484D01*
X141059620Y-100127869D01*
X141100768Y-100102408D01*
X141120588Y-100070101D01*
X141140230Y-100023386D01*
X141089410Y-100023386D01*
X141015542Y-100037596D01*
X140947787Y-100079775D01*
X140925121Y-100101724D01*
X140896029Y-100151617D01*
X140882860Y-100215067D01*
X140886428Y-100280844D01*
G37*
X140886428Y-100280844D02*
X140907547Y-100337716D01*
X140907953Y-100338367D01*
X140933840Y-100373540D01*
X140964093Y-100399507D01*
X141003518Y-100417770D01*
X141056922Y-100429832D01*
X141129111Y-100437196D01*
X141224892Y-100441364D01*
X141238538Y-100441729D01*
X141444302Y-100446976D01*
X141467138Y-100402816D01*
X141482570Y-100370863D01*
X141489883Y-100351570D01*
X141489974Y-100350678D01*
X141476482Y-100347339D01*
X141440086Y-100344687D01*
X141386912Y-100343056D01*
X141343853Y-100342700D01*
X141274101Y-100342692D01*
X141230297Y-100339503D01*
X141209404Y-100328388D01*
X141208385Y-100304601D01*
X141224201Y-100263396D01*
X141253275Y-100201186D01*
X141277423Y-100155441D01*
X141298373Y-100131913D01*
X141321207Y-100124996D01*
X141322337Y-100124986D01*
X141361672Y-100136399D01*
X141382922Y-100170192D01*
X141385999Y-100221909D01*
X141385466Y-100259161D01*
X141396195Y-100278803D01*
X141421965Y-100291052D01*
X141454797Y-100298102D01*
X141473426Y-100287942D01*
X141476092Y-100284117D01*
X141486800Y-100248101D01*
X141488316Y-100197666D01*
X141481219Y-100145726D01*
X141468248Y-100108922D01*
X141425045Y-100058038D01*
X141364906Y-100029114D01*
X141317922Y-100023386D01*
X141275542Y-100027757D01*
X141240948Y-100043575D01*
X141210223Y-100074897D01*
X141179450Y-100125778D01*
X141144712Y-100200276D01*
X141142748Y-100204814D01*
X141111747Y-100271921D01*
X141086322Y-100313332D01*
X141063474Y-100331081D01*
X141040205Y-100327207D01*
X141013516Y-100303743D01*
X141007374Y-100296727D01*
X140983560Y-100249730D01*
X140984563Y-100201033D01*
X141007911Y-100158622D01*
X141051135Y-100130484D01*
X141059620Y-100127869D01*
X141100768Y-100102408D01*
X141120588Y-100070101D01*
X141140230Y-100023386D01*
X141089410Y-100023386D01*
X141015542Y-100037596D01*
X140947787Y-100079775D01*
X140925121Y-100101724D01*
X140896029Y-100151617D01*
X140882860Y-100215067D01*
X140886428Y-100280844D01*
G36*
X140786749Y-99616986D02*
G01*
X140846073Y-99621239D01*
X140881032Y-99626125D01*
X140896280Y-99632895D01*
X140896475Y-99642802D01*
X140894655Y-99646014D01*
X140881475Y-99688744D01*
X140882245Y-99744327D01*
X140895793Y-99800837D01*
X140913321Y-99836182D01*
X140941321Y-99872421D01*
X140973009Y-99898913D01*
X141013273Y-99917099D01*
X141067003Y-99928422D01*
X141139086Y-99934322D01*
X141234411Y-99936243D01*
X141252697Y-99936277D01*
X141458106Y-99936300D01*
X141474040Y-99890591D01*
X141484880Y-99858127D01*
X141489928Y-99840315D01*
X141489974Y-99839791D01*
X141476288Y-99838037D01*
X141438536Y-99836544D01*
X141381684Y-99835426D01*
X141310694Y-99834797D01*
X141267533Y-99834700D01*
X141182433Y-99834498D01*
X141121441Y-99833458D01*
X141079637Y-99830931D01*
X141052102Y-99826264D01*
X141033916Y-99818807D01*
X141020158Y-99807911D01*
X141013533Y-99801107D01*
X140986835Y-99754372D01*
X140984835Y-99703372D01*
X141007415Y-99657101D01*
X141015567Y-99648544D01*
X141030896Y-99635993D01*
X141049078Y-99627288D01*
X141075369Y-99621731D01*
X141115022Y-99618626D01*
X141173292Y-99617276D01*
X141253633Y-99616986D01*
X141458106Y-99616986D01*
X141474040Y-99571277D01*
X141484880Y-99538813D01*
X141489928Y-99521001D01*
X141489974Y-99520477D01*
X141476083Y-99519137D01*
X141436899Y-99517928D01*
X141376160Y-99516901D01*
X141297601Y-99516102D01*
X141204958Y-99515581D01*
X141101969Y-99515386D01*
X140704802Y-99515386D01*
X140684904Y-99562557D01*
X140665007Y-99609729D01*
X140786749Y-99616986D01*
G37*
X140786749Y-99616986D02*
X140846073Y-99621239D01*
X140881032Y-99626125D01*
X140896280Y-99632895D01*
X140896475Y-99642802D01*
X140894655Y-99646014D01*
X140881475Y-99688744D01*
X140882245Y-99744327D01*
X140895793Y-99800837D01*
X140913321Y-99836182D01*
X140941321Y-99872421D01*
X140973009Y-99898913D01*
X141013273Y-99917099D01*
X141067003Y-99928422D01*
X141139086Y-99934322D01*
X141234411Y-99936243D01*
X141252697Y-99936277D01*
X141458106Y-99936300D01*
X141474040Y-99890591D01*
X141484880Y-99858127D01*
X141489928Y-99840315D01*
X141489974Y-99839791D01*
X141476288Y-99838037D01*
X141438536Y-99836544D01*
X141381684Y-99835426D01*
X141310694Y-99834797D01*
X141267533Y-99834700D01*
X141182433Y-99834498D01*
X141121441Y-99833458D01*
X141079637Y-99830931D01*
X141052102Y-99826264D01*
X141033916Y-99818807D01*
X141020158Y-99807911D01*
X141013533Y-99801107D01*
X140986835Y-99754372D01*
X140984835Y-99703372D01*
X141007415Y-99657101D01*
X141015567Y-99648544D01*
X141030896Y-99635993D01*
X141049078Y-99627288D01*
X141075369Y-99621731D01*
X141115022Y-99618626D01*
X141173292Y-99617276D01*
X141253633Y-99616986D01*
X141458106Y-99616986D01*
X141474040Y-99571277D01*
X141484880Y-99538813D01*
X141489928Y-99521001D01*
X141489974Y-99520477D01*
X141476083Y-99519137D01*
X141436899Y-99517928D01*
X141376160Y-99516901D01*
X141297601Y-99516102D01*
X141204958Y-99515581D01*
X141101969Y-99515386D01*
X140704802Y-99515386D01*
X140684904Y-99562557D01*
X140665007Y-99609729D01*
X140786749Y-99616986D01*
G36*
X140866699Y-98409403D02*
G01*
X140905195Y-98466627D01*
X140960795Y-98510849D01*
X141031546Y-98537267D01*
X141083622Y-98542610D01*
X141105353Y-98542003D01*
X141121991Y-98536922D01*
X141136897Y-98522955D01*
X141153433Y-98495689D01*
X141174958Y-98450712D01*
X141204834Y-98383611D01*
X141204984Y-98383271D01*
X141233273Y-98321507D01*
X141258393Y-98270859D01*
X141277639Y-98236504D01*
X141288308Y-98223618D01*
X141288394Y-98223614D01*
X141311626Y-98234972D01*
X141337234Y-98261531D01*
X141355681Y-98292023D01*
X141359346Y-98307470D01*
X141346672Y-98349615D01*
X141314931Y-98385908D01*
X141280032Y-98403617D01*
X141254305Y-98420652D01*
X141225006Y-98454022D01*
X141199695Y-98493249D01*
X141185931Y-98527856D01*
X141185174Y-98535093D01*
X141197620Y-98543239D01*
X141229432Y-98543730D01*
X141272326Y-98537743D01*
X141318018Y-98526457D01*
X141358221Y-98511050D01*
X141359782Y-98510271D01*
X141424522Y-98463904D01*
X141468557Y-98403811D01*
X141490171Y-98335565D01*
X141487645Y-98264738D01*
X141459264Y-98196904D01*
X141457268Y-98193888D01*
X141408908Y-98140527D01*
X141345812Y-98105440D01*
X141262847Y-98086022D01*
X141239538Y-98083416D01*
X141129515Y-98078801D01*
X141078208Y-98084333D01*
X141078208Y-98223614D01*
X141110213Y-98225424D01*
X141119553Y-98235322D01*
X141112565Y-98259998D01*
X141096047Y-98298895D01*
X141075341Y-98342375D01*
X141074793Y-98343456D01*
X141055409Y-98380309D01*
X141042473Y-98395100D01*
X141028911Y-98391453D01*
X141011092Y-98376095D01*
X140985305Y-98337023D01*
X140983410Y-98294946D01*
X141002177Y-98257203D01*
X141038375Y-98231134D01*
X141078208Y-98223614D01*
X141078208Y-98084333D01*
X141041487Y-98088294D01*
X140971672Y-98112650D01*
X140922762Y-98146556D01*
X140873338Y-98207753D01*
X140848819Y-98275163D01*
X140847257Y-98343980D01*
X140866699Y-98409403D01*
G37*
X140866699Y-98409403D02*
X140905195Y-98466627D01*
X140960795Y-98510849D01*
X141031546Y-98537267D01*
X141083622Y-98542610D01*
X141105353Y-98542003D01*
X141121991Y-98536922D01*
X141136897Y-98522955D01*
X141153433Y-98495689D01*
X141174958Y-98450712D01*
X141204834Y-98383611D01*
X141204984Y-98383271D01*
X141233273Y-98321507D01*
X141258393Y-98270859D01*
X141277639Y-98236504D01*
X141288308Y-98223618D01*
X141288394Y-98223614D01*
X141311626Y-98234972D01*
X141337234Y-98261531D01*
X141355681Y-98292023D01*
X141359346Y-98307470D01*
X141346672Y-98349615D01*
X141314931Y-98385908D01*
X141280032Y-98403617D01*
X141254305Y-98420652D01*
X141225006Y-98454022D01*
X141199695Y-98493249D01*
X141185931Y-98527856D01*
X141185174Y-98535093D01*
X141197620Y-98543239D01*
X141229432Y-98543730D01*
X141272326Y-98537743D01*
X141318018Y-98526457D01*
X141358221Y-98511050D01*
X141359782Y-98510271D01*
X141424522Y-98463904D01*
X141468557Y-98403811D01*
X141490171Y-98335565D01*
X141487645Y-98264738D01*
X141459264Y-98196904D01*
X141457268Y-98193888D01*
X141408908Y-98140527D01*
X141345812Y-98105440D01*
X141262847Y-98086022D01*
X141239538Y-98083416D01*
X141129515Y-98078801D01*
X141078208Y-98084333D01*
X141078208Y-98223614D01*
X141110213Y-98225424D01*
X141119553Y-98235322D01*
X141112565Y-98259998D01*
X141096047Y-98298895D01*
X141075341Y-98342375D01*
X141074793Y-98343456D01*
X141055409Y-98380309D01*
X141042473Y-98395100D01*
X141028911Y-98391453D01*
X141011092Y-98376095D01*
X140985305Y-98337023D01*
X140983410Y-98294946D01*
X141002177Y-98257203D01*
X141038375Y-98231134D01*
X141078208Y-98223614D01*
X141078208Y-98084333D01*
X141041487Y-98088294D01*
X140971672Y-98112650D01*
X140922762Y-98146556D01*
X140873338Y-98207753D01*
X140848819Y-98275163D01*
X140847257Y-98343980D01*
X140866699Y-98409403D01*
G36*
X140857422Y-97282215D02*
G01*
X140893193Y-97350245D01*
X140950761Y-97400451D01*
X140987772Y-97418285D01*
X141043342Y-97432163D01*
X141113556Y-97439267D01*
X141190187Y-97439940D01*
X141265012Y-97434527D01*
X141329802Y-97423370D01*
X141376333Y-97406814D01*
X141384347Y-97401726D01*
X141444167Y-97341455D01*
X141479995Y-97269869D01*
X141490480Y-97192192D01*
X141474270Y-97113648D01*
X141464552Y-97091789D01*
X141434603Y-97049222D01*
X141394893Y-97011863D01*
X141389857Y-97008332D01*
X141365584Y-96993981D01*
X141339638Y-96984494D01*
X141305482Y-96978890D01*
X141256579Y-96976186D01*
X141186395Y-96975399D01*
X141170660Y-96975386D01*
X141165652Y-96975422D01*
X141165652Y-97120529D01*
X141231890Y-97121373D01*
X141275846Y-97124696D01*
X141304239Y-97131683D01*
X141323785Y-97143516D01*
X141330317Y-97149557D01*
X141355140Y-97184286D01*
X141354008Y-97218003D01*
X141332476Y-97252095D01*
X141309489Y-97272429D01*
X141275938Y-97284471D01*
X141223029Y-97291234D01*
X141216859Y-97291698D01*
X141120973Y-97292852D01*
X141049759Y-97280788D01*
X141003654Y-97255670D01*
X140983095Y-97217660D01*
X140981974Y-97204092D01*
X140987612Y-97168464D01*
X141007146Y-97144094D01*
X141044502Y-97129193D01*
X141103610Y-97121975D01*
X141165652Y-97120529D01*
X141165652Y-96975422D01*
X141095873Y-96975926D01*
X141043619Y-96978196D01*
X141007409Y-96983168D01*
X140980759Y-96991813D01*
X140957182Y-97005105D01*
X140952798Y-97008043D01*
X140893709Y-97057413D01*
X140859407Y-97111209D01*
X140845791Y-97176702D01*
X140845125Y-97198942D01*
X140857422Y-97282215D01*
G37*
X140857422Y-97282215D02*
X140893193Y-97350245D01*
X140950761Y-97400451D01*
X140987772Y-97418285D01*
X141043342Y-97432163D01*
X141113556Y-97439267D01*
X141190187Y-97439940D01*
X141265012Y-97434527D01*
X141329802Y-97423370D01*
X141376333Y-97406814D01*
X141384347Y-97401726D01*
X141444167Y-97341455D01*
X141479995Y-97269869D01*
X141490480Y-97192192D01*
X141474270Y-97113648D01*
X141464552Y-97091789D01*
X141434603Y-97049222D01*
X141394893Y-97011863D01*
X141389857Y-97008332D01*
X141365584Y-96993981D01*
X141339638Y-96984494D01*
X141305482Y-96978890D01*
X141256579Y-96976186D01*
X141186395Y-96975399D01*
X141170660Y-96975386D01*
X141165652Y-96975422D01*
X141165652Y-97120529D01*
X141231890Y-97121373D01*
X141275846Y-97124696D01*
X141304239Y-97131683D01*
X141323785Y-97143516D01*
X141330317Y-97149557D01*
X141355140Y-97184286D01*
X141354008Y-97218003D01*
X141332476Y-97252095D01*
X141309489Y-97272429D01*
X141275938Y-97284471D01*
X141223029Y-97291234D01*
X141216859Y-97291698D01*
X141120973Y-97292852D01*
X141049759Y-97280788D01*
X141003654Y-97255670D01*
X140983095Y-97217660D01*
X140981974Y-97204092D01*
X140987612Y-97168464D01*
X141007146Y-97144094D01*
X141044502Y-97129193D01*
X141103610Y-97121975D01*
X141165652Y-97120529D01*
X141165652Y-96975422D01*
X141095873Y-96975926D01*
X141043619Y-96978196D01*
X141007409Y-96983168D01*
X140980759Y-96991813D01*
X140957182Y-97005105D01*
X140952798Y-97008043D01*
X140893709Y-97057413D01*
X140859407Y-97111209D01*
X140845791Y-97176702D01*
X140845125Y-97198942D01*
X140857422Y-97282215D01*
G36*
X140863240Y-98957193D02*
G01*
X140890183Y-99003772D01*
X140916926Y-99036157D01*
X140944944Y-99059842D01*
X140979208Y-99076159D01*
X141024687Y-99086439D01*
X141086352Y-99092014D01*
X141169171Y-99094216D01*
X141228706Y-99094471D01*
X141447851Y-99094471D01*
X141475504Y-99032786D01*
X141503157Y-98971100D01*
X141263130Y-98963843D01*
X141173488Y-98960844D01*
X141108422Y-98957698D01*
X141063486Y-98953801D01*
X141034230Y-98948547D01*
X141016208Y-98941331D01*
X141004971Y-98931550D01*
X141002539Y-98928412D01*
X140983543Y-98880861D01*
X140991060Y-98832797D01*
X141011003Y-98804186D01*
X141025135Y-98792547D01*
X141043680Y-98784491D01*
X141071794Y-98779371D01*
X141114633Y-98776541D01*
X141177355Y-98775356D01*
X141242721Y-98775157D01*
X141324728Y-98775118D01*
X141382776Y-98773714D01*
X141421925Y-98769014D01*
X141447240Y-98759087D01*
X141463783Y-98742003D01*
X141476616Y-98715832D01*
X141489951Y-98680875D01*
X141504467Y-98642696D01*
X141246849Y-98647241D01*
X141153979Y-98649071D01*
X141085349Y-98651212D01*
X141036171Y-98654281D01*
X141001658Y-98658894D01*
X140977022Y-98665668D01*
X140957476Y-98675219D01*
X140940230Y-98686734D01*
X140885140Y-98742290D01*
X140853282Y-98810080D01*
X140845651Y-98883813D01*
X140863240Y-98957193D01*
G37*
X140863240Y-98957193D02*
X140890183Y-99003772D01*
X140916926Y-99036157D01*
X140944944Y-99059842D01*
X140979208Y-99076159D01*
X141024687Y-99086439D01*
X141086352Y-99092014D01*
X141169171Y-99094216D01*
X141228706Y-99094471D01*
X141447851Y-99094471D01*
X141475504Y-99032786D01*
X141503157Y-98971100D01*
X141263130Y-98963843D01*
X141173488Y-98960844D01*
X141108422Y-98957698D01*
X141063486Y-98953801D01*
X141034230Y-98948547D01*
X141016208Y-98941331D01*
X141004971Y-98931550D01*
X141002539Y-98928412D01*
X140983543Y-98880861D01*
X140991060Y-98832797D01*
X141011003Y-98804186D01*
X141025135Y-98792547D01*
X141043680Y-98784491D01*
X141071794Y-98779371D01*
X141114633Y-98776541D01*
X141177355Y-98775356D01*
X141242721Y-98775157D01*
X141324728Y-98775118D01*
X141382776Y-98773714D01*
X141421925Y-98769014D01*
X141447240Y-98759087D01*
X141463783Y-98742003D01*
X141476616Y-98715832D01*
X141489951Y-98680875D01*
X141504467Y-98642696D01*
X141246849Y-98647241D01*
X141153979Y-98649071D01*
X141085349Y-98651212D01*
X141036171Y-98654281D01*
X141001658Y-98658894D01*
X140977022Y-98665668D01*
X140957476Y-98675219D01*
X140940230Y-98686734D01*
X140885140Y-98742290D01*
X140853282Y-98810080D01*
X140845651Y-98883813D01*
X140863240Y-98957193D01*
G36*
X140855378Y-97840844D02*
G01*
X140883028Y-97896301D01*
X140933940Y-97945248D01*
X140952798Y-97958729D01*
X140977475Y-97973414D01*
X141004276Y-97982942D01*
X141040047Y-97988393D01*
X141091629Y-97990847D01*
X141159727Y-97991386D01*
X141253048Y-97988952D01*
X141323117Y-97980494D01*
X141375391Y-97964274D01*
X141415329Y-97938554D01*
X141448389Y-97901597D01*
X141450346Y-97898882D01*
X141470368Y-97862460D01*
X141480275Y-97818602D01*
X141482717Y-97762824D01*
X141482717Y-97672148D01*
X141570743Y-97672110D01*
X141619768Y-97671266D01*
X141648525Y-97666124D01*
X141665771Y-97652687D01*
X141680268Y-97626958D01*
X141683229Y-97620779D01*
X141697108Y-97591864D01*
X141705874Y-97569476D01*
X141706631Y-97552829D01*
X141696483Y-97541136D01*
X141672533Y-97533610D01*
X141631886Y-97529466D01*
X141571646Y-97527915D01*
X141488915Y-97528171D01*
X141380799Y-97529449D01*
X141348460Y-97529848D01*
X141236984Y-97531285D01*
X141164063Y-97532572D01*
X141164063Y-97672071D01*
X141225959Y-97672855D01*
X141266457Y-97676340D01*
X141293168Y-97684224D01*
X141313704Y-97698205D01*
X141323720Y-97707697D01*
X141353027Y-97746504D01*
X141355412Y-97780863D01*
X141331210Y-97816316D01*
X141330317Y-97817214D01*
X141311613Y-97831639D01*
X141286192Y-97840413D01*
X141247044Y-97844839D01*
X141187157Y-97846218D01*
X141173890Y-97846243D01*
X141091361Y-97842912D01*
X141034151Y-97832069D01*
X140999226Y-97812440D01*
X140983554Y-97782750D01*
X140981974Y-97765591D01*
X140989386Y-97724866D01*
X141013790Y-97696932D01*
X141058440Y-97680117D01*
X141126590Y-97672750D01*
X141164063Y-97672071D01*
X141164063Y-97532572D01*
X141150705Y-97532808D01*
X141085793Y-97534777D01*
X141038418Y-97537550D01*
X141004750Y-97541488D01*
X140980958Y-97546949D01*
X140963213Y-97554292D01*
X140947684Y-97563877D01*
X140941841Y-97567987D01*
X140886645Y-97622505D01*
X140855350Y-97691436D01*
X140846625Y-97771172D01*
X140855378Y-97840844D01*
G37*
X140855378Y-97840844D02*
X140883028Y-97896301D01*
X140933940Y-97945248D01*
X140952798Y-97958729D01*
X140977475Y-97973414D01*
X141004276Y-97982942D01*
X141040047Y-97988393D01*
X141091629Y-97990847D01*
X141159727Y-97991386D01*
X141253048Y-97988952D01*
X141323117Y-97980494D01*
X141375391Y-97964274D01*
X141415329Y-97938554D01*
X141448389Y-97901597D01*
X141450346Y-97898882D01*
X141470368Y-97862460D01*
X141480275Y-97818602D01*
X141482717Y-97762824D01*
X141482717Y-97672148D01*
X141570743Y-97672110D01*
X141619768Y-97671266D01*
X141648525Y-97666124D01*
X141665771Y-97652687D01*
X141680268Y-97626958D01*
X141683229Y-97620779D01*
X141697108Y-97591864D01*
X141705874Y-97569476D01*
X141706631Y-97552829D01*
X141696483Y-97541136D01*
X141672533Y-97533610D01*
X141631886Y-97529466D01*
X141571646Y-97527915D01*
X141488915Y-97528171D01*
X141380799Y-97529449D01*
X141348460Y-97529848D01*
X141236984Y-97531285D01*
X141164063Y-97532572D01*
X141164063Y-97672071D01*
X141225959Y-97672855D01*
X141266457Y-97676340D01*
X141293168Y-97684224D01*
X141313704Y-97698205D01*
X141323720Y-97707697D01*
X141353027Y-97746504D01*
X141355412Y-97780863D01*
X141331210Y-97816316D01*
X141330317Y-97817214D01*
X141311613Y-97831639D01*
X141286192Y-97840413D01*
X141247044Y-97844839D01*
X141187157Y-97846218D01*
X141173890Y-97846243D01*
X141091361Y-97842912D01*
X141034151Y-97832069D01*
X140999226Y-97812440D01*
X140983554Y-97782750D01*
X140981974Y-97765591D01*
X140989386Y-97724866D01*
X141013790Y-97696932D01*
X141058440Y-97680117D01*
X141126590Y-97672750D01*
X141164063Y-97672071D01*
X141164063Y-97532572D01*
X141150705Y-97532808D01*
X141085793Y-97534777D01*
X141038418Y-97537550D01*
X141004750Y-97541488D01*
X140980958Y-97546949D01*
X140963213Y-97554292D01*
X140947684Y-97563877D01*
X140941841Y-97567987D01*
X140886645Y-97622505D01*
X140855350Y-97691436D01*
X140846625Y-97771172D01*
X140855378Y-97840844D01*
%TD*%
M02*
