%TF.GenerationSoftware,KiCad,Pcbnew,5.1.10-88a1d61d58~90~ubuntu20.04.1*%
%TF.CreationDate,2021-07-15T12:02:29+05:30*%
%TF.ProjectId,kimchi-uart-adapter,6b696d63-6869-42d7-9561-72742d616461,rev?*%
%TF.SameCoordinates,Original*%
%TF.FileFunction,Soldermask,Top*%
%TF.FilePolarity,Negative*%
%FSLAX46Y46*%
G04 Gerber Fmt 4.6, Leading zero omitted, Abs format (unit mm)*
G04 Created by KiCad (PCBNEW 5.1.10-88a1d61d58~90~ubuntu20.04.1) date 2021-07-15 12:02:29*
%MOMM*%
%LPD*%
G01*
G04 APERTURE LIST*
%ADD10R,1.450000X0.600000*%
%ADD11R,1.450000X0.300000*%
%ADD12O,2.100000X1.050000*%
%ADD13C,0.700000*%
%ADD14R,0.400000X1.200000*%
%ADD15R,0.500000X0.800000*%
%ADD16R,0.400000X0.800000*%
%ADD17O,1.000000X1.000000*%
%ADD18R,1.000000X1.000000*%
%ADD19R,1.200000X0.600000*%
%ADD20R,1.550000X0.600000*%
%ADD21R,1.800000X1.200000*%
%ADD22C,0.100000*%
%ADD23R,1.500000X1.000000*%
G04 APERTURE END LIST*
D10*
%TO.C,J1*%
X141045000Y-97130000D03*
X141045000Y-97930000D03*
D11*
X141045000Y-100130000D03*
X141045000Y-99630000D03*
X141045000Y-99130000D03*
X141045000Y-98630000D03*
X141045000Y-100630000D03*
X141045000Y-101130000D03*
X141045000Y-101630000D03*
X141045000Y-102130000D03*
D10*
X141045000Y-102830000D03*
X141045000Y-103630000D03*
D12*
X140130000Y-96060000D03*
X140130000Y-104700000D03*
X135950000Y-96060000D03*
X135950000Y-104700000D03*
D13*
X139600000Y-97490000D03*
X139600000Y-103270000D03*
%TD*%
D14*
%TO.C,U2*%
X154697500Y-102980000D03*
X155332500Y-102980000D03*
X155967500Y-102980000D03*
X156602500Y-102980000D03*
X157237500Y-102980000D03*
X157872500Y-102980000D03*
X158507500Y-102980000D03*
X159142500Y-102980000D03*
X159142500Y-97780000D03*
X158507500Y-97780000D03*
X157872500Y-97780000D03*
X157237500Y-97780000D03*
X156602500Y-97780000D03*
X155967500Y-97780000D03*
X155332500Y-97780000D03*
X154697500Y-97780000D03*
%TD*%
%TO.C,C4*%
G36*
G01*
X146620000Y-98295000D02*
X146120000Y-98295000D01*
G75*
G02*
X145895000Y-98070000I0J225000D01*
G01*
X145895000Y-97620000D01*
G75*
G02*
X146120000Y-97395000I225000J0D01*
G01*
X146620000Y-97395000D01*
G75*
G02*
X146845000Y-97620000I0J-225000D01*
G01*
X146845000Y-98070000D01*
G75*
G02*
X146620000Y-98295000I-225000J0D01*
G01*
G37*
G36*
G01*
X146620000Y-99845000D02*
X146120000Y-99845000D01*
G75*
G02*
X145895000Y-99620000I0J225000D01*
G01*
X145895000Y-99170000D01*
G75*
G02*
X146120000Y-98945000I225000J0D01*
G01*
X146620000Y-98945000D01*
G75*
G02*
X146845000Y-99170000I0J-225000D01*
G01*
X146845000Y-99620000D01*
G75*
G02*
X146620000Y-99845000I-225000J0D01*
G01*
G37*
%TD*%
D15*
%TO.C,RN1*%
X163790000Y-107610000D03*
D16*
X164590000Y-107610000D03*
D15*
X166190000Y-107610000D03*
D16*
X165390000Y-107610000D03*
D15*
X163790000Y-105810000D03*
D16*
X165390000Y-105810000D03*
X164590000Y-105810000D03*
D15*
X166190000Y-105810000D03*
%TD*%
D17*
%TO.C,J2*%
X168930000Y-93930000D03*
D18*
X170200000Y-93930000D03*
%TD*%
%TO.C,C1*%
G36*
G01*
X141765000Y-91760000D02*
X141765000Y-92260000D01*
G75*
G02*
X141540000Y-92485000I-225000J0D01*
G01*
X141090000Y-92485000D01*
G75*
G02*
X140865000Y-92260000I0J225000D01*
G01*
X140865000Y-91760000D01*
G75*
G02*
X141090000Y-91535000I225000J0D01*
G01*
X141540000Y-91535000D01*
G75*
G02*
X141765000Y-91760000I0J-225000D01*
G01*
G37*
G36*
G01*
X140215000Y-91760000D02*
X140215000Y-92260000D01*
G75*
G02*
X139990000Y-92485000I-225000J0D01*
G01*
X139540000Y-92485000D01*
G75*
G02*
X139315000Y-92260000I0J225000D01*
G01*
X139315000Y-91760000D01*
G75*
G02*
X139540000Y-91535000I225000J0D01*
G01*
X139990000Y-91535000D01*
G75*
G02*
X140215000Y-91760000I0J-225000D01*
G01*
G37*
%TD*%
%TO.C,C3*%
G36*
G01*
X146120000Y-100852520D02*
X146620000Y-100852520D01*
G75*
G02*
X146845000Y-101077520I0J-225000D01*
G01*
X146845000Y-101527520D01*
G75*
G02*
X146620000Y-101752520I-225000J0D01*
G01*
X146120000Y-101752520D01*
G75*
G02*
X145895000Y-101527520I0J225000D01*
G01*
X145895000Y-101077520D01*
G75*
G02*
X146120000Y-100852520I225000J0D01*
G01*
G37*
G36*
G01*
X146120000Y-102402520D02*
X146620000Y-102402520D01*
G75*
G02*
X146845000Y-102627520I0J-225000D01*
G01*
X146845000Y-103077520D01*
G75*
G02*
X146620000Y-103302520I-225000J0D01*
G01*
X146120000Y-103302520D01*
G75*
G02*
X145895000Y-103077520I0J225000D01*
G01*
X145895000Y-102627520D01*
G75*
G02*
X146120000Y-102402520I225000J0D01*
G01*
G37*
%TD*%
%TO.C,C5*%
G36*
G01*
X147650000Y-106240000D02*
X148150000Y-106240000D01*
G75*
G02*
X148375000Y-106465000I0J-225000D01*
G01*
X148375000Y-106915000D01*
G75*
G02*
X148150000Y-107140000I-225000J0D01*
G01*
X147650000Y-107140000D01*
G75*
G02*
X147425000Y-106915000I0J225000D01*
G01*
X147425000Y-106465000D01*
G75*
G02*
X147650000Y-106240000I225000J0D01*
G01*
G37*
G36*
G01*
X147650000Y-104690000D02*
X148150000Y-104690000D01*
G75*
G02*
X148375000Y-104915000I0J-225000D01*
G01*
X148375000Y-105365000D01*
G75*
G02*
X148150000Y-105590000I-225000J0D01*
G01*
X147650000Y-105590000D01*
G75*
G02*
X147425000Y-105365000I0J225000D01*
G01*
X147425000Y-104915000D01*
G75*
G02*
X147650000Y-104690000I225000J0D01*
G01*
G37*
%TD*%
%TO.C,C6*%
G36*
G01*
X158055000Y-95650000D02*
X158055000Y-95150000D01*
G75*
G02*
X158280000Y-94925000I225000J0D01*
G01*
X158730000Y-94925000D01*
G75*
G02*
X158955000Y-95150000I0J-225000D01*
G01*
X158955000Y-95650000D01*
G75*
G02*
X158730000Y-95875000I-225000J0D01*
G01*
X158280000Y-95875000D01*
G75*
G02*
X158055000Y-95650000I0J225000D01*
G01*
G37*
G36*
G01*
X159605000Y-95650000D02*
X159605000Y-95150000D01*
G75*
G02*
X159830000Y-94925000I225000J0D01*
G01*
X160280000Y-94925000D01*
G75*
G02*
X160505000Y-95150000I0J-225000D01*
G01*
X160505000Y-95650000D01*
G75*
G02*
X160280000Y-95875000I-225000J0D01*
G01*
X159830000Y-95875000D01*
G75*
G02*
X159605000Y-95650000I0J225000D01*
G01*
G37*
%TD*%
%TO.C,C7*%
G36*
G01*
X153840000Y-104695000D02*
X154340000Y-104695000D01*
G75*
G02*
X154565000Y-104920000I0J-225000D01*
G01*
X154565000Y-105370000D01*
G75*
G02*
X154340000Y-105595000I-225000J0D01*
G01*
X153840000Y-105595000D01*
G75*
G02*
X153615000Y-105370000I0J225000D01*
G01*
X153615000Y-104920000D01*
G75*
G02*
X153840000Y-104695000I225000J0D01*
G01*
G37*
G36*
G01*
X153840000Y-106245000D02*
X154340000Y-106245000D01*
G75*
G02*
X154565000Y-106470000I0J-225000D01*
G01*
X154565000Y-106920000D01*
G75*
G02*
X154340000Y-107145000I-225000J0D01*
G01*
X153840000Y-107145000D01*
G75*
G02*
X153615000Y-106920000I0J225000D01*
G01*
X153615000Y-106470000D01*
G75*
G02*
X153840000Y-106245000I225000J0D01*
G01*
G37*
%TD*%
%TO.C,C8*%
G36*
G01*
X157035000Y-93630000D02*
X157035000Y-94130000D01*
G75*
G02*
X156810000Y-94355000I-225000J0D01*
G01*
X156360000Y-94355000D01*
G75*
G02*
X156135000Y-94130000I0J225000D01*
G01*
X156135000Y-93630000D01*
G75*
G02*
X156360000Y-93405000I225000J0D01*
G01*
X156810000Y-93405000D01*
G75*
G02*
X157035000Y-93630000I0J-225000D01*
G01*
G37*
G36*
G01*
X155485000Y-93630000D02*
X155485000Y-94130000D01*
G75*
G02*
X155260000Y-94355000I-225000J0D01*
G01*
X154810000Y-94355000D01*
G75*
G02*
X154585000Y-94130000I0J225000D01*
G01*
X154585000Y-93630000D01*
G75*
G02*
X154810000Y-93405000I225000J0D01*
G01*
X155260000Y-93405000D01*
G75*
G02*
X155485000Y-93630000I0J-225000D01*
G01*
G37*
%TD*%
%TO.C,C9*%
G36*
G01*
X155485000Y-94990000D02*
X155485000Y-95490000D01*
G75*
G02*
X155260000Y-95715000I-225000J0D01*
G01*
X154810000Y-95715000D01*
G75*
G02*
X154585000Y-95490000I0J225000D01*
G01*
X154585000Y-94990000D01*
G75*
G02*
X154810000Y-94765000I225000J0D01*
G01*
X155260000Y-94765000D01*
G75*
G02*
X155485000Y-94990000I0J-225000D01*
G01*
G37*
G36*
G01*
X157035000Y-94990000D02*
X157035000Y-95490000D01*
G75*
G02*
X156810000Y-95715000I-225000J0D01*
G01*
X156360000Y-95715000D01*
G75*
G02*
X156135000Y-95490000I0J225000D01*
G01*
X156135000Y-94990000D01*
G75*
G02*
X156360000Y-94765000I225000J0D01*
G01*
X156810000Y-94765000D01*
G75*
G02*
X157035000Y-94990000I0J-225000D01*
G01*
G37*
%TD*%
%TO.C,D1*%
G36*
G01*
X148310000Y-97403750D02*
X148310000Y-97916250D01*
G75*
G02*
X148091250Y-98135000I-218750J0D01*
G01*
X147653750Y-98135000D01*
G75*
G02*
X147435000Y-97916250I0J218750D01*
G01*
X147435000Y-97403750D01*
G75*
G02*
X147653750Y-97185000I218750J0D01*
G01*
X148091250Y-97185000D01*
G75*
G02*
X148310000Y-97403750I0J-218750D01*
G01*
G37*
G36*
G01*
X149885000Y-97403750D02*
X149885000Y-97916250D01*
G75*
G02*
X149666250Y-98135000I-218750J0D01*
G01*
X149228750Y-98135000D01*
G75*
G02*
X149010000Y-97916250I0J218750D01*
G01*
X149010000Y-97403750D01*
G75*
G02*
X149228750Y-97185000I218750J0D01*
G01*
X149666250Y-97185000D01*
G75*
G02*
X149885000Y-97403750I0J-218750D01*
G01*
G37*
%TD*%
%TO.C,D2*%
G36*
G01*
X149885000Y-102843750D02*
X149885000Y-103356250D01*
G75*
G02*
X149666250Y-103575000I-218750J0D01*
G01*
X149228750Y-103575000D01*
G75*
G02*
X149010000Y-103356250I0J218750D01*
G01*
X149010000Y-102843750D01*
G75*
G02*
X149228750Y-102625000I218750J0D01*
G01*
X149666250Y-102625000D01*
G75*
G02*
X149885000Y-102843750I0J-218750D01*
G01*
G37*
G36*
G01*
X148310000Y-102843750D02*
X148310000Y-103356250D01*
G75*
G02*
X148091250Y-103575000I-218750J0D01*
G01*
X147653750Y-103575000D01*
G75*
G02*
X147435000Y-103356250I0J218750D01*
G01*
X147435000Y-102843750D01*
G75*
G02*
X147653750Y-102625000I218750J0D01*
G01*
X148091250Y-102625000D01*
G75*
G02*
X148310000Y-102843750I0J-218750D01*
G01*
G37*
%TD*%
%TO.C,FB1*%
G36*
G01*
X141765000Y-93605000D02*
X141765000Y-94155000D01*
G75*
G02*
X141565000Y-94355000I-200000J0D01*
G01*
X141165000Y-94355000D01*
G75*
G02*
X140965000Y-94155000I0J200000D01*
G01*
X140965000Y-93605000D01*
G75*
G02*
X141165000Y-93405000I200000J0D01*
G01*
X141565000Y-93405000D01*
G75*
G02*
X141765000Y-93605000I0J-200000D01*
G01*
G37*
G36*
G01*
X140115000Y-93605000D02*
X140115000Y-94155000D01*
G75*
G02*
X139915000Y-94355000I-200000J0D01*
G01*
X139515000Y-94355000D01*
G75*
G02*
X139315000Y-94155000I0J200000D01*
G01*
X139315000Y-93605000D01*
G75*
G02*
X139515000Y-93405000I200000J0D01*
G01*
X139915000Y-93405000D01*
G75*
G02*
X140115000Y-93605000I0J-200000D01*
G01*
G37*
%TD*%
D19*
%TO.C,IC1*%
X149730000Y-105240000D03*
X149730000Y-106190000D03*
X149730000Y-107140000D03*
X152230000Y-107140000D03*
X152230000Y-105240000D03*
%TD*%
D20*
%TO.C,J3*%
X168770000Y-97880000D03*
X168770000Y-102880000D03*
X168770000Y-101880000D03*
X168770000Y-100880000D03*
X168770000Y-99880000D03*
X168770000Y-98880000D03*
D21*
X172645000Y-104180000D03*
X172645000Y-96580000D03*
%TD*%
D22*
%TO.C,JP1*%
G36*
X161030000Y-107900000D02*
G01*
X161030000Y-108450000D01*
X161029398Y-108450000D01*
X161029398Y-108474534D01*
X161024588Y-108523365D01*
X161015016Y-108571490D01*
X161000772Y-108618445D01*
X160981995Y-108663778D01*
X160958864Y-108707051D01*
X160931604Y-108747850D01*
X160900476Y-108785779D01*
X160865779Y-108820476D01*
X160827850Y-108851604D01*
X160787051Y-108878864D01*
X160743778Y-108901995D01*
X160698445Y-108920772D01*
X160651490Y-108935016D01*
X160603365Y-108944588D01*
X160554534Y-108949398D01*
X160530000Y-108949398D01*
X160530000Y-108950000D01*
X160030000Y-108950000D01*
X160030000Y-108949398D01*
X160005466Y-108949398D01*
X159956635Y-108944588D01*
X159908510Y-108935016D01*
X159861555Y-108920772D01*
X159816222Y-108901995D01*
X159772949Y-108878864D01*
X159732150Y-108851604D01*
X159694221Y-108820476D01*
X159659524Y-108785779D01*
X159628396Y-108747850D01*
X159601136Y-108707051D01*
X159578005Y-108663778D01*
X159559228Y-108618445D01*
X159544984Y-108571490D01*
X159535412Y-108523365D01*
X159530602Y-108474534D01*
X159530602Y-108450000D01*
X159530000Y-108450000D01*
X159530000Y-107900000D01*
X161030000Y-107900000D01*
G37*
G36*
X159530602Y-105850000D02*
G01*
X159530602Y-105825466D01*
X159535412Y-105776635D01*
X159544984Y-105728510D01*
X159559228Y-105681555D01*
X159578005Y-105636222D01*
X159601136Y-105592949D01*
X159628396Y-105552150D01*
X159659524Y-105514221D01*
X159694221Y-105479524D01*
X159732150Y-105448396D01*
X159772949Y-105421136D01*
X159816222Y-105398005D01*
X159861555Y-105379228D01*
X159908510Y-105364984D01*
X159956635Y-105355412D01*
X160005466Y-105350602D01*
X160030000Y-105350602D01*
X160030000Y-105350000D01*
X160530000Y-105350000D01*
X160530000Y-105350602D01*
X160554534Y-105350602D01*
X160603365Y-105355412D01*
X160651490Y-105364984D01*
X160698445Y-105379228D01*
X160743778Y-105398005D01*
X160787051Y-105421136D01*
X160827850Y-105448396D01*
X160865779Y-105479524D01*
X160900476Y-105514221D01*
X160931604Y-105552150D01*
X160958864Y-105592949D01*
X160981995Y-105636222D01*
X161000772Y-105681555D01*
X161015016Y-105728510D01*
X161024588Y-105776635D01*
X161029398Y-105825466D01*
X161029398Y-105850000D01*
X161030000Y-105850000D01*
X161030000Y-106400000D01*
X159530000Y-106400000D01*
X159530000Y-105850000D01*
X159530602Y-105850000D01*
G37*
D23*
X160280000Y-107150000D03*
%TD*%
D22*
%TO.C,JP2*%
G36*
X169740000Y-107410000D02*
G01*
X169740000Y-107910000D01*
X169739398Y-107910000D01*
X169739398Y-107934534D01*
X169734588Y-107983365D01*
X169725016Y-108031490D01*
X169710772Y-108078445D01*
X169691995Y-108123778D01*
X169668864Y-108167051D01*
X169641604Y-108207850D01*
X169610476Y-108245779D01*
X169575779Y-108280476D01*
X169537850Y-108311604D01*
X169497051Y-108338864D01*
X169453778Y-108361995D01*
X169408445Y-108380772D01*
X169361490Y-108395016D01*
X169313365Y-108404588D01*
X169264534Y-108409398D01*
X169240000Y-108409398D01*
X169240000Y-108410000D01*
X168740000Y-108410000D01*
X168740000Y-108409398D01*
X168715466Y-108409398D01*
X168666635Y-108404588D01*
X168618510Y-108395016D01*
X168571555Y-108380772D01*
X168526222Y-108361995D01*
X168482949Y-108338864D01*
X168442150Y-108311604D01*
X168404221Y-108280476D01*
X168369524Y-108245779D01*
X168338396Y-108207850D01*
X168311136Y-108167051D01*
X168288005Y-108123778D01*
X168269228Y-108078445D01*
X168254984Y-108031490D01*
X168245412Y-107983365D01*
X168240602Y-107934534D01*
X168240602Y-107910000D01*
X168240000Y-107910000D01*
X168240000Y-107410000D01*
X169740000Y-107410000D01*
G37*
G36*
X168240602Y-106610000D02*
G01*
X168240602Y-106585466D01*
X168245412Y-106536635D01*
X168254984Y-106488510D01*
X168269228Y-106441555D01*
X168288005Y-106396222D01*
X168311136Y-106352949D01*
X168338396Y-106312150D01*
X168369524Y-106274221D01*
X168404221Y-106239524D01*
X168442150Y-106208396D01*
X168482949Y-106181136D01*
X168526222Y-106158005D01*
X168571555Y-106139228D01*
X168618510Y-106124984D01*
X168666635Y-106115412D01*
X168715466Y-106110602D01*
X168740000Y-106110602D01*
X168740000Y-106110000D01*
X169240000Y-106110000D01*
X169240000Y-106110602D01*
X169264534Y-106110602D01*
X169313365Y-106115412D01*
X169361490Y-106124984D01*
X169408445Y-106139228D01*
X169453778Y-106158005D01*
X169497051Y-106181136D01*
X169537850Y-106208396D01*
X169575779Y-106239524D01*
X169610476Y-106274221D01*
X169641604Y-106312150D01*
X169668864Y-106352949D01*
X169691995Y-106396222D01*
X169710772Y-106441555D01*
X169725016Y-106488510D01*
X169734588Y-106536635D01*
X169739398Y-106585466D01*
X169739398Y-106610000D01*
X169740000Y-106610000D01*
X169740000Y-107110000D01*
X168240000Y-107110000D01*
X168240000Y-106610000D01*
X168240602Y-106610000D01*
G37*
%TD*%
%TO.C,R1*%
G36*
G01*
X143845000Y-97990000D02*
X143295000Y-97990000D01*
G75*
G02*
X143095000Y-97790000I0J200000D01*
G01*
X143095000Y-97390000D01*
G75*
G02*
X143295000Y-97190000I200000J0D01*
G01*
X143845000Y-97190000D01*
G75*
G02*
X144045000Y-97390000I0J-200000D01*
G01*
X144045000Y-97790000D01*
G75*
G02*
X143845000Y-97990000I-200000J0D01*
G01*
G37*
G36*
G01*
X143845000Y-96340000D02*
X143295000Y-96340000D01*
G75*
G02*
X143095000Y-96140000I0J200000D01*
G01*
X143095000Y-95740000D01*
G75*
G02*
X143295000Y-95540000I200000J0D01*
G01*
X143845000Y-95540000D01*
G75*
G02*
X144045000Y-95740000I0J-200000D01*
G01*
X144045000Y-96140000D01*
G75*
G02*
X143845000Y-96340000I-200000J0D01*
G01*
G37*
%TD*%
%TO.C,R2*%
G36*
G01*
X143295000Y-104415000D02*
X143845000Y-104415000D01*
G75*
G02*
X144045000Y-104615000I0J-200000D01*
G01*
X144045000Y-105015000D01*
G75*
G02*
X143845000Y-105215000I-200000J0D01*
G01*
X143295000Y-105215000D01*
G75*
G02*
X143095000Y-105015000I0J200000D01*
G01*
X143095000Y-104615000D01*
G75*
G02*
X143295000Y-104415000I200000J0D01*
G01*
G37*
G36*
G01*
X143295000Y-102765000D02*
X143845000Y-102765000D01*
G75*
G02*
X144045000Y-102965000I0J-200000D01*
G01*
X144045000Y-103365000D01*
G75*
G02*
X143845000Y-103565000I-200000J0D01*
G01*
X143295000Y-103565000D01*
G75*
G02*
X143095000Y-103365000I0J200000D01*
G01*
X143095000Y-102965000D01*
G75*
G02*
X143295000Y-102765000I200000J0D01*
G01*
G37*
%TD*%
%TO.C,R3*%
G36*
G01*
X148245000Y-101026666D02*
X148245000Y-101576666D01*
G75*
G02*
X148045000Y-101776666I-200000J0D01*
G01*
X147645000Y-101776666D01*
G75*
G02*
X147445000Y-101576666I0J200000D01*
G01*
X147445000Y-101026666D01*
G75*
G02*
X147645000Y-100826666I200000J0D01*
G01*
X148045000Y-100826666D01*
G75*
G02*
X148245000Y-101026666I0J-200000D01*
G01*
G37*
G36*
G01*
X149895000Y-101026666D02*
X149895000Y-101576666D01*
G75*
G02*
X149695000Y-101776666I-200000J0D01*
G01*
X149295000Y-101776666D01*
G75*
G02*
X149095000Y-101576666I0J200000D01*
G01*
X149095000Y-101026666D01*
G75*
G02*
X149295000Y-100826666I200000J0D01*
G01*
X149695000Y-100826666D01*
G75*
G02*
X149895000Y-101026666I0J-200000D01*
G01*
G37*
%TD*%
%TO.C,R4*%
G36*
G01*
X148225000Y-99118333D02*
X148225000Y-99668333D01*
G75*
G02*
X148025000Y-99868333I-200000J0D01*
G01*
X147625000Y-99868333D01*
G75*
G02*
X147425000Y-99668333I0J200000D01*
G01*
X147425000Y-99118333D01*
G75*
G02*
X147625000Y-98918333I200000J0D01*
G01*
X148025000Y-98918333D01*
G75*
G02*
X148225000Y-99118333I0J-200000D01*
G01*
G37*
G36*
G01*
X149875000Y-99118333D02*
X149875000Y-99668333D01*
G75*
G02*
X149675000Y-99868333I-200000J0D01*
G01*
X149275000Y-99868333D01*
G75*
G02*
X149075000Y-99668333I0J200000D01*
G01*
X149075000Y-99118333D01*
G75*
G02*
X149275000Y-98918333I200000J0D01*
G01*
X149675000Y-98918333D01*
G75*
G02*
X149875000Y-99118333I0J-200000D01*
G01*
G37*
%TD*%
%TO.C,R5*%
G36*
G01*
X166460000Y-103673332D02*
X166460000Y-104223332D01*
G75*
G02*
X166260000Y-104423332I-200000J0D01*
G01*
X165860000Y-104423332D01*
G75*
G02*
X165660000Y-104223332I0J200000D01*
G01*
X165660000Y-103673332D01*
G75*
G02*
X165860000Y-103473332I200000J0D01*
G01*
X166260000Y-103473332D01*
G75*
G02*
X166460000Y-103673332I0J-200000D01*
G01*
G37*
G36*
G01*
X164810000Y-103673332D02*
X164810000Y-104223332D01*
G75*
G02*
X164610000Y-104423332I-200000J0D01*
G01*
X164210000Y-104423332D01*
G75*
G02*
X164010000Y-104223332I0J200000D01*
G01*
X164010000Y-103673332D01*
G75*
G02*
X164210000Y-103473332I200000J0D01*
G01*
X164610000Y-103473332D01*
G75*
G02*
X164810000Y-103673332I0J-200000D01*
G01*
G37*
%TD*%
%TO.C,R6*%
G36*
G01*
X166515000Y-96536666D02*
X166515000Y-97086666D01*
G75*
G02*
X166315000Y-97286666I-200000J0D01*
G01*
X165915000Y-97286666D01*
G75*
G02*
X165715000Y-97086666I0J200000D01*
G01*
X165715000Y-96536666D01*
G75*
G02*
X165915000Y-96336666I200000J0D01*
G01*
X166315000Y-96336666D01*
G75*
G02*
X166515000Y-96536666I0J-200000D01*
G01*
G37*
G36*
G01*
X164865000Y-96536666D02*
X164865000Y-97086666D01*
G75*
G02*
X164665000Y-97286666I-200000J0D01*
G01*
X164265000Y-97286666D01*
G75*
G02*
X164065000Y-97086666I0J200000D01*
G01*
X164065000Y-96536666D01*
G75*
G02*
X164265000Y-96336666I200000J0D01*
G01*
X164665000Y-96336666D01*
G75*
G02*
X164865000Y-96536666I0J-200000D01*
G01*
G37*
%TD*%
%TO.C,R7*%
G36*
G01*
X151985000Y-97385000D02*
X151985000Y-97935000D01*
G75*
G02*
X151785000Y-98135000I-200000J0D01*
G01*
X151385000Y-98135000D01*
G75*
G02*
X151185000Y-97935000I0J200000D01*
G01*
X151185000Y-97385000D01*
G75*
G02*
X151385000Y-97185000I200000J0D01*
G01*
X151785000Y-97185000D01*
G75*
G02*
X151985000Y-97385000I0J-200000D01*
G01*
G37*
G36*
G01*
X153635000Y-97385000D02*
X153635000Y-97935000D01*
G75*
G02*
X153435000Y-98135000I-200000J0D01*
G01*
X153035000Y-98135000D01*
G75*
G02*
X152835000Y-97935000I0J200000D01*
G01*
X152835000Y-97385000D01*
G75*
G02*
X153035000Y-97185000I200000J0D01*
G01*
X153435000Y-97185000D01*
G75*
G02*
X153635000Y-97385000I0J-200000D01*
G01*
G37*
%TD*%
%TO.C,R8*%
G36*
G01*
X151195000Y-103375000D02*
X151195000Y-102825000D01*
G75*
G02*
X151395000Y-102625000I200000J0D01*
G01*
X151795000Y-102625000D01*
G75*
G02*
X151995000Y-102825000I0J-200000D01*
G01*
X151995000Y-103375000D01*
G75*
G02*
X151795000Y-103575000I-200000J0D01*
G01*
X151395000Y-103575000D01*
G75*
G02*
X151195000Y-103375000I0J200000D01*
G01*
G37*
G36*
G01*
X152845000Y-103375000D02*
X152845000Y-102825000D01*
G75*
G02*
X153045000Y-102625000I200000J0D01*
G01*
X153445000Y-102625000D01*
G75*
G02*
X153645000Y-102825000I0J-200000D01*
G01*
X153645000Y-103375000D01*
G75*
G02*
X153445000Y-103575000I-200000J0D01*
G01*
X153045000Y-103575000D01*
G75*
G02*
X152845000Y-103375000I0J200000D01*
G01*
G37*
%TD*%
M02*
