%TF.GenerationSoftware,KiCad,Pcbnew,5.1.10-88a1d61d58~90~ubuntu20.04.1*%
%TF.CreationDate,2021-07-15T12:02:29+05:30*%
%TF.ProjectId,kimchi-uart-adapter,6b696d63-6869-42d7-9561-72742d616461,rev?*%
%TF.SameCoordinates,Original*%
%TF.FileFunction,Paste,Top*%
%TF.FilePolarity,Positive*%
%FSLAX46Y46*%
G04 Gerber Fmt 4.6, Leading zero omitted, Abs format (unit mm)*
G04 Created by KiCad (PCBNEW 5.1.10-88a1d61d58~90~ubuntu20.04.1) date 2021-07-15 12:02:29*
%MOMM*%
%LPD*%
G01*
G04 APERTURE LIST*
%ADD10R,1.450000X0.600000*%
%ADD11R,1.450000X0.300000*%
%ADD12R,0.400000X1.200000*%
%ADD13R,0.500000X0.800000*%
%ADD14R,0.400000X0.800000*%
%ADD15R,1.200000X0.600000*%
%ADD16R,1.550000X0.600000*%
%ADD17R,1.800000X1.200000*%
G04 APERTURE END LIST*
D10*
%TO.C,J1*%
X141045000Y-97130000D03*
X141045000Y-97930000D03*
D11*
X141045000Y-100130000D03*
X141045000Y-99630000D03*
X141045000Y-99130000D03*
X141045000Y-98630000D03*
X141045000Y-100630000D03*
X141045000Y-101130000D03*
X141045000Y-101630000D03*
X141045000Y-102130000D03*
D10*
X141045000Y-102830000D03*
X141045000Y-103630000D03*
%TD*%
D12*
%TO.C,U2*%
X154697500Y-102980000D03*
X155332500Y-102980000D03*
X155967500Y-102980000D03*
X156602500Y-102980000D03*
X157237500Y-102980000D03*
X157872500Y-102980000D03*
X158507500Y-102980000D03*
X159142500Y-102980000D03*
X159142500Y-97780000D03*
X158507500Y-97780000D03*
X157872500Y-97780000D03*
X157237500Y-97780000D03*
X156602500Y-97780000D03*
X155967500Y-97780000D03*
X155332500Y-97780000D03*
X154697500Y-97780000D03*
%TD*%
%TO.C,C4*%
G36*
G01*
X146620000Y-98295000D02*
X146120000Y-98295000D01*
G75*
G02*
X145895000Y-98070000I0J225000D01*
G01*
X145895000Y-97620000D01*
G75*
G02*
X146120000Y-97395000I225000J0D01*
G01*
X146620000Y-97395000D01*
G75*
G02*
X146845000Y-97620000I0J-225000D01*
G01*
X146845000Y-98070000D01*
G75*
G02*
X146620000Y-98295000I-225000J0D01*
G01*
G37*
G36*
G01*
X146620000Y-99845000D02*
X146120000Y-99845000D01*
G75*
G02*
X145895000Y-99620000I0J225000D01*
G01*
X145895000Y-99170000D01*
G75*
G02*
X146120000Y-98945000I225000J0D01*
G01*
X146620000Y-98945000D01*
G75*
G02*
X146845000Y-99170000I0J-225000D01*
G01*
X146845000Y-99620000D01*
G75*
G02*
X146620000Y-99845000I-225000J0D01*
G01*
G37*
%TD*%
D13*
%TO.C,RN1*%
X163790000Y-107610000D03*
D14*
X164590000Y-107610000D03*
D13*
X166190000Y-107610000D03*
D14*
X165390000Y-107610000D03*
D13*
X163790000Y-105810000D03*
D14*
X165390000Y-105810000D03*
X164590000Y-105810000D03*
D13*
X166190000Y-105810000D03*
%TD*%
%TO.C,C1*%
G36*
G01*
X141765000Y-91760000D02*
X141765000Y-92260000D01*
G75*
G02*
X141540000Y-92485000I-225000J0D01*
G01*
X141090000Y-92485000D01*
G75*
G02*
X140865000Y-92260000I0J225000D01*
G01*
X140865000Y-91760000D01*
G75*
G02*
X141090000Y-91535000I225000J0D01*
G01*
X141540000Y-91535000D01*
G75*
G02*
X141765000Y-91760000I0J-225000D01*
G01*
G37*
G36*
G01*
X140215000Y-91760000D02*
X140215000Y-92260000D01*
G75*
G02*
X139990000Y-92485000I-225000J0D01*
G01*
X139540000Y-92485000D01*
G75*
G02*
X139315000Y-92260000I0J225000D01*
G01*
X139315000Y-91760000D01*
G75*
G02*
X139540000Y-91535000I225000J0D01*
G01*
X139990000Y-91535000D01*
G75*
G02*
X140215000Y-91760000I0J-225000D01*
G01*
G37*
%TD*%
%TO.C,C3*%
G36*
G01*
X146120000Y-100852520D02*
X146620000Y-100852520D01*
G75*
G02*
X146845000Y-101077520I0J-225000D01*
G01*
X146845000Y-101527520D01*
G75*
G02*
X146620000Y-101752520I-225000J0D01*
G01*
X146120000Y-101752520D01*
G75*
G02*
X145895000Y-101527520I0J225000D01*
G01*
X145895000Y-101077520D01*
G75*
G02*
X146120000Y-100852520I225000J0D01*
G01*
G37*
G36*
G01*
X146120000Y-102402520D02*
X146620000Y-102402520D01*
G75*
G02*
X146845000Y-102627520I0J-225000D01*
G01*
X146845000Y-103077520D01*
G75*
G02*
X146620000Y-103302520I-225000J0D01*
G01*
X146120000Y-103302520D01*
G75*
G02*
X145895000Y-103077520I0J225000D01*
G01*
X145895000Y-102627520D01*
G75*
G02*
X146120000Y-102402520I225000J0D01*
G01*
G37*
%TD*%
%TO.C,C5*%
G36*
G01*
X147650000Y-106240000D02*
X148150000Y-106240000D01*
G75*
G02*
X148375000Y-106465000I0J-225000D01*
G01*
X148375000Y-106915000D01*
G75*
G02*
X148150000Y-107140000I-225000J0D01*
G01*
X147650000Y-107140000D01*
G75*
G02*
X147425000Y-106915000I0J225000D01*
G01*
X147425000Y-106465000D01*
G75*
G02*
X147650000Y-106240000I225000J0D01*
G01*
G37*
G36*
G01*
X147650000Y-104690000D02*
X148150000Y-104690000D01*
G75*
G02*
X148375000Y-104915000I0J-225000D01*
G01*
X148375000Y-105365000D01*
G75*
G02*
X148150000Y-105590000I-225000J0D01*
G01*
X147650000Y-105590000D01*
G75*
G02*
X147425000Y-105365000I0J225000D01*
G01*
X147425000Y-104915000D01*
G75*
G02*
X147650000Y-104690000I225000J0D01*
G01*
G37*
%TD*%
%TO.C,C6*%
G36*
G01*
X158055000Y-95650000D02*
X158055000Y-95150000D01*
G75*
G02*
X158280000Y-94925000I225000J0D01*
G01*
X158730000Y-94925000D01*
G75*
G02*
X158955000Y-95150000I0J-225000D01*
G01*
X158955000Y-95650000D01*
G75*
G02*
X158730000Y-95875000I-225000J0D01*
G01*
X158280000Y-95875000D01*
G75*
G02*
X158055000Y-95650000I0J225000D01*
G01*
G37*
G36*
G01*
X159605000Y-95650000D02*
X159605000Y-95150000D01*
G75*
G02*
X159830000Y-94925000I225000J0D01*
G01*
X160280000Y-94925000D01*
G75*
G02*
X160505000Y-95150000I0J-225000D01*
G01*
X160505000Y-95650000D01*
G75*
G02*
X160280000Y-95875000I-225000J0D01*
G01*
X159830000Y-95875000D01*
G75*
G02*
X159605000Y-95650000I0J225000D01*
G01*
G37*
%TD*%
%TO.C,C7*%
G36*
G01*
X153840000Y-104695000D02*
X154340000Y-104695000D01*
G75*
G02*
X154565000Y-104920000I0J-225000D01*
G01*
X154565000Y-105370000D01*
G75*
G02*
X154340000Y-105595000I-225000J0D01*
G01*
X153840000Y-105595000D01*
G75*
G02*
X153615000Y-105370000I0J225000D01*
G01*
X153615000Y-104920000D01*
G75*
G02*
X153840000Y-104695000I225000J0D01*
G01*
G37*
G36*
G01*
X153840000Y-106245000D02*
X154340000Y-106245000D01*
G75*
G02*
X154565000Y-106470000I0J-225000D01*
G01*
X154565000Y-106920000D01*
G75*
G02*
X154340000Y-107145000I-225000J0D01*
G01*
X153840000Y-107145000D01*
G75*
G02*
X153615000Y-106920000I0J225000D01*
G01*
X153615000Y-106470000D01*
G75*
G02*
X153840000Y-106245000I225000J0D01*
G01*
G37*
%TD*%
%TO.C,C8*%
G36*
G01*
X157035000Y-93630000D02*
X157035000Y-94130000D01*
G75*
G02*
X156810000Y-94355000I-225000J0D01*
G01*
X156360000Y-94355000D01*
G75*
G02*
X156135000Y-94130000I0J225000D01*
G01*
X156135000Y-93630000D01*
G75*
G02*
X156360000Y-93405000I225000J0D01*
G01*
X156810000Y-93405000D01*
G75*
G02*
X157035000Y-93630000I0J-225000D01*
G01*
G37*
G36*
G01*
X155485000Y-93630000D02*
X155485000Y-94130000D01*
G75*
G02*
X155260000Y-94355000I-225000J0D01*
G01*
X154810000Y-94355000D01*
G75*
G02*
X154585000Y-94130000I0J225000D01*
G01*
X154585000Y-93630000D01*
G75*
G02*
X154810000Y-93405000I225000J0D01*
G01*
X155260000Y-93405000D01*
G75*
G02*
X155485000Y-93630000I0J-225000D01*
G01*
G37*
%TD*%
%TO.C,C9*%
G36*
G01*
X155485000Y-94990000D02*
X155485000Y-95490000D01*
G75*
G02*
X155260000Y-95715000I-225000J0D01*
G01*
X154810000Y-95715000D01*
G75*
G02*
X154585000Y-95490000I0J225000D01*
G01*
X154585000Y-94990000D01*
G75*
G02*
X154810000Y-94765000I225000J0D01*
G01*
X155260000Y-94765000D01*
G75*
G02*
X155485000Y-94990000I0J-225000D01*
G01*
G37*
G36*
G01*
X157035000Y-94990000D02*
X157035000Y-95490000D01*
G75*
G02*
X156810000Y-95715000I-225000J0D01*
G01*
X156360000Y-95715000D01*
G75*
G02*
X156135000Y-95490000I0J225000D01*
G01*
X156135000Y-94990000D01*
G75*
G02*
X156360000Y-94765000I225000J0D01*
G01*
X156810000Y-94765000D01*
G75*
G02*
X157035000Y-94990000I0J-225000D01*
G01*
G37*
%TD*%
%TO.C,D1*%
G36*
G01*
X148310000Y-97403750D02*
X148310000Y-97916250D01*
G75*
G02*
X148091250Y-98135000I-218750J0D01*
G01*
X147653750Y-98135000D01*
G75*
G02*
X147435000Y-97916250I0J218750D01*
G01*
X147435000Y-97403750D01*
G75*
G02*
X147653750Y-97185000I218750J0D01*
G01*
X148091250Y-97185000D01*
G75*
G02*
X148310000Y-97403750I0J-218750D01*
G01*
G37*
G36*
G01*
X149885000Y-97403750D02*
X149885000Y-97916250D01*
G75*
G02*
X149666250Y-98135000I-218750J0D01*
G01*
X149228750Y-98135000D01*
G75*
G02*
X149010000Y-97916250I0J218750D01*
G01*
X149010000Y-97403750D01*
G75*
G02*
X149228750Y-97185000I218750J0D01*
G01*
X149666250Y-97185000D01*
G75*
G02*
X149885000Y-97403750I0J-218750D01*
G01*
G37*
%TD*%
%TO.C,D2*%
G36*
G01*
X149885000Y-102843750D02*
X149885000Y-103356250D01*
G75*
G02*
X149666250Y-103575000I-218750J0D01*
G01*
X149228750Y-103575000D01*
G75*
G02*
X149010000Y-103356250I0J218750D01*
G01*
X149010000Y-102843750D01*
G75*
G02*
X149228750Y-102625000I218750J0D01*
G01*
X149666250Y-102625000D01*
G75*
G02*
X149885000Y-102843750I0J-218750D01*
G01*
G37*
G36*
G01*
X148310000Y-102843750D02*
X148310000Y-103356250D01*
G75*
G02*
X148091250Y-103575000I-218750J0D01*
G01*
X147653750Y-103575000D01*
G75*
G02*
X147435000Y-103356250I0J218750D01*
G01*
X147435000Y-102843750D01*
G75*
G02*
X147653750Y-102625000I218750J0D01*
G01*
X148091250Y-102625000D01*
G75*
G02*
X148310000Y-102843750I0J-218750D01*
G01*
G37*
%TD*%
%TO.C,FB1*%
G36*
G01*
X141765000Y-93605000D02*
X141765000Y-94155000D01*
G75*
G02*
X141565000Y-94355000I-200000J0D01*
G01*
X141165000Y-94355000D01*
G75*
G02*
X140965000Y-94155000I0J200000D01*
G01*
X140965000Y-93605000D01*
G75*
G02*
X141165000Y-93405000I200000J0D01*
G01*
X141565000Y-93405000D01*
G75*
G02*
X141765000Y-93605000I0J-200000D01*
G01*
G37*
G36*
G01*
X140115000Y-93605000D02*
X140115000Y-94155000D01*
G75*
G02*
X139915000Y-94355000I-200000J0D01*
G01*
X139515000Y-94355000D01*
G75*
G02*
X139315000Y-94155000I0J200000D01*
G01*
X139315000Y-93605000D01*
G75*
G02*
X139515000Y-93405000I200000J0D01*
G01*
X139915000Y-93405000D01*
G75*
G02*
X140115000Y-93605000I0J-200000D01*
G01*
G37*
%TD*%
D15*
%TO.C,IC1*%
X149730000Y-105240000D03*
X149730000Y-106190000D03*
X149730000Y-107140000D03*
X152230000Y-107140000D03*
X152230000Y-105240000D03*
%TD*%
D16*
%TO.C,J3*%
X168770000Y-97880000D03*
X168770000Y-102880000D03*
X168770000Y-101880000D03*
X168770000Y-100880000D03*
X168770000Y-99880000D03*
X168770000Y-98880000D03*
D17*
X172645000Y-104180000D03*
X172645000Y-96580000D03*
%TD*%
%TO.C,R1*%
G36*
G01*
X143845000Y-97990000D02*
X143295000Y-97990000D01*
G75*
G02*
X143095000Y-97790000I0J200000D01*
G01*
X143095000Y-97390000D01*
G75*
G02*
X143295000Y-97190000I200000J0D01*
G01*
X143845000Y-97190000D01*
G75*
G02*
X144045000Y-97390000I0J-200000D01*
G01*
X144045000Y-97790000D01*
G75*
G02*
X143845000Y-97990000I-200000J0D01*
G01*
G37*
G36*
G01*
X143845000Y-96340000D02*
X143295000Y-96340000D01*
G75*
G02*
X143095000Y-96140000I0J200000D01*
G01*
X143095000Y-95740000D01*
G75*
G02*
X143295000Y-95540000I200000J0D01*
G01*
X143845000Y-95540000D01*
G75*
G02*
X144045000Y-95740000I0J-200000D01*
G01*
X144045000Y-96140000D01*
G75*
G02*
X143845000Y-96340000I-200000J0D01*
G01*
G37*
%TD*%
%TO.C,R2*%
G36*
G01*
X143295000Y-104415000D02*
X143845000Y-104415000D01*
G75*
G02*
X144045000Y-104615000I0J-200000D01*
G01*
X144045000Y-105015000D01*
G75*
G02*
X143845000Y-105215000I-200000J0D01*
G01*
X143295000Y-105215000D01*
G75*
G02*
X143095000Y-105015000I0J200000D01*
G01*
X143095000Y-104615000D01*
G75*
G02*
X143295000Y-104415000I200000J0D01*
G01*
G37*
G36*
G01*
X143295000Y-102765000D02*
X143845000Y-102765000D01*
G75*
G02*
X144045000Y-102965000I0J-200000D01*
G01*
X144045000Y-103365000D01*
G75*
G02*
X143845000Y-103565000I-200000J0D01*
G01*
X143295000Y-103565000D01*
G75*
G02*
X143095000Y-103365000I0J200000D01*
G01*
X143095000Y-102965000D01*
G75*
G02*
X143295000Y-102765000I200000J0D01*
G01*
G37*
%TD*%
%TO.C,R3*%
G36*
G01*
X148245000Y-101026666D02*
X148245000Y-101576666D01*
G75*
G02*
X148045000Y-101776666I-200000J0D01*
G01*
X147645000Y-101776666D01*
G75*
G02*
X147445000Y-101576666I0J200000D01*
G01*
X147445000Y-101026666D01*
G75*
G02*
X147645000Y-100826666I200000J0D01*
G01*
X148045000Y-100826666D01*
G75*
G02*
X148245000Y-101026666I0J-200000D01*
G01*
G37*
G36*
G01*
X149895000Y-101026666D02*
X149895000Y-101576666D01*
G75*
G02*
X149695000Y-101776666I-200000J0D01*
G01*
X149295000Y-101776666D01*
G75*
G02*
X149095000Y-101576666I0J200000D01*
G01*
X149095000Y-101026666D01*
G75*
G02*
X149295000Y-100826666I200000J0D01*
G01*
X149695000Y-100826666D01*
G75*
G02*
X149895000Y-101026666I0J-200000D01*
G01*
G37*
%TD*%
%TO.C,R4*%
G36*
G01*
X148225000Y-99118333D02*
X148225000Y-99668333D01*
G75*
G02*
X148025000Y-99868333I-200000J0D01*
G01*
X147625000Y-99868333D01*
G75*
G02*
X147425000Y-99668333I0J200000D01*
G01*
X147425000Y-99118333D01*
G75*
G02*
X147625000Y-98918333I200000J0D01*
G01*
X148025000Y-98918333D01*
G75*
G02*
X148225000Y-99118333I0J-200000D01*
G01*
G37*
G36*
G01*
X149875000Y-99118333D02*
X149875000Y-99668333D01*
G75*
G02*
X149675000Y-99868333I-200000J0D01*
G01*
X149275000Y-99868333D01*
G75*
G02*
X149075000Y-99668333I0J200000D01*
G01*
X149075000Y-99118333D01*
G75*
G02*
X149275000Y-98918333I200000J0D01*
G01*
X149675000Y-98918333D01*
G75*
G02*
X149875000Y-99118333I0J-200000D01*
G01*
G37*
%TD*%
%TO.C,R5*%
G36*
G01*
X166460000Y-103673332D02*
X166460000Y-104223332D01*
G75*
G02*
X166260000Y-104423332I-200000J0D01*
G01*
X165860000Y-104423332D01*
G75*
G02*
X165660000Y-104223332I0J200000D01*
G01*
X165660000Y-103673332D01*
G75*
G02*
X165860000Y-103473332I200000J0D01*
G01*
X166260000Y-103473332D01*
G75*
G02*
X166460000Y-103673332I0J-200000D01*
G01*
G37*
G36*
G01*
X164810000Y-103673332D02*
X164810000Y-104223332D01*
G75*
G02*
X164610000Y-104423332I-200000J0D01*
G01*
X164210000Y-104423332D01*
G75*
G02*
X164010000Y-104223332I0J200000D01*
G01*
X164010000Y-103673332D01*
G75*
G02*
X164210000Y-103473332I200000J0D01*
G01*
X164610000Y-103473332D01*
G75*
G02*
X164810000Y-103673332I0J-200000D01*
G01*
G37*
%TD*%
%TO.C,R6*%
G36*
G01*
X166515000Y-96536666D02*
X166515000Y-97086666D01*
G75*
G02*
X166315000Y-97286666I-200000J0D01*
G01*
X165915000Y-97286666D01*
G75*
G02*
X165715000Y-97086666I0J200000D01*
G01*
X165715000Y-96536666D01*
G75*
G02*
X165915000Y-96336666I200000J0D01*
G01*
X166315000Y-96336666D01*
G75*
G02*
X166515000Y-96536666I0J-200000D01*
G01*
G37*
G36*
G01*
X164865000Y-96536666D02*
X164865000Y-97086666D01*
G75*
G02*
X164665000Y-97286666I-200000J0D01*
G01*
X164265000Y-97286666D01*
G75*
G02*
X164065000Y-97086666I0J200000D01*
G01*
X164065000Y-96536666D01*
G75*
G02*
X164265000Y-96336666I200000J0D01*
G01*
X164665000Y-96336666D01*
G75*
G02*
X164865000Y-96536666I0J-200000D01*
G01*
G37*
%TD*%
%TO.C,R7*%
G36*
G01*
X151985000Y-97385000D02*
X151985000Y-97935000D01*
G75*
G02*
X151785000Y-98135000I-200000J0D01*
G01*
X151385000Y-98135000D01*
G75*
G02*
X151185000Y-97935000I0J200000D01*
G01*
X151185000Y-97385000D01*
G75*
G02*
X151385000Y-97185000I200000J0D01*
G01*
X151785000Y-97185000D01*
G75*
G02*
X151985000Y-97385000I0J-200000D01*
G01*
G37*
G36*
G01*
X153635000Y-97385000D02*
X153635000Y-97935000D01*
G75*
G02*
X153435000Y-98135000I-200000J0D01*
G01*
X153035000Y-98135000D01*
G75*
G02*
X152835000Y-97935000I0J200000D01*
G01*
X152835000Y-97385000D01*
G75*
G02*
X153035000Y-97185000I200000J0D01*
G01*
X153435000Y-97185000D01*
G75*
G02*
X153635000Y-97385000I0J-200000D01*
G01*
G37*
%TD*%
%TO.C,R8*%
G36*
G01*
X151195000Y-103375000D02*
X151195000Y-102825000D01*
G75*
G02*
X151395000Y-102625000I200000J0D01*
G01*
X151795000Y-102625000D01*
G75*
G02*
X151995000Y-102825000I0J-200000D01*
G01*
X151995000Y-103375000D01*
G75*
G02*
X151795000Y-103575000I-200000J0D01*
G01*
X151395000Y-103575000D01*
G75*
G02*
X151195000Y-103375000I0J200000D01*
G01*
G37*
G36*
G01*
X152845000Y-103375000D02*
X152845000Y-102825000D01*
G75*
G02*
X153045000Y-102625000I200000J0D01*
G01*
X153445000Y-102625000D01*
G75*
G02*
X153645000Y-102825000I0J-200000D01*
G01*
X153645000Y-103375000D01*
G75*
G02*
X153445000Y-103575000I-200000J0D01*
G01*
X153045000Y-103575000D01*
G75*
G02*
X152845000Y-103375000I0J200000D01*
G01*
G37*
%TD*%
M02*
