%TF.GenerationSoftware,KiCad,Pcbnew,5.1.10-88a1d61d58~90~ubuntu20.04.1*%
%TF.CreationDate,2021-07-15T12:02:29+05:30*%
%TF.ProjectId,kimchi-uart-adapter,6b696d63-6869-42d7-9561-72742d616461,rev?*%
%TF.SameCoordinates,Original*%
%TF.FileFunction,Copper,L1,Top*%
%TF.FilePolarity,Positive*%
%FSLAX46Y46*%
G04 Gerber Fmt 4.6, Leading zero omitted, Abs format (unit mm)*
G04 Created by KiCad (PCBNEW 5.1.10-88a1d61d58~90~ubuntu20.04.1) date 2021-07-15 12:02:29*
%MOMM*%
%LPD*%
G01*
G04 APERTURE LIST*
%TA.AperFunction,SMDPad,CuDef*%
%ADD10R,1.450000X0.600000*%
%TD*%
%TA.AperFunction,SMDPad,CuDef*%
%ADD11R,1.450000X0.300000*%
%TD*%
%TA.AperFunction,ComponentPad*%
%ADD12O,2.100000X1.050000*%
%TD*%
%TA.AperFunction,SMDPad,CuDef*%
%ADD13R,0.400000X1.200000*%
%TD*%
%TA.AperFunction,SMDPad,CuDef*%
%ADD14R,0.500000X0.800000*%
%TD*%
%TA.AperFunction,SMDPad,CuDef*%
%ADD15R,0.400000X0.800000*%
%TD*%
%TA.AperFunction,ComponentPad*%
%ADD16O,1.000000X1.000000*%
%TD*%
%TA.AperFunction,ComponentPad*%
%ADD17R,1.000000X1.000000*%
%TD*%
%TA.AperFunction,SMDPad,CuDef*%
%ADD18R,1.200000X0.600000*%
%TD*%
%TA.AperFunction,SMDPad,CuDef*%
%ADD19R,1.550000X0.600000*%
%TD*%
%TA.AperFunction,SMDPad,CuDef*%
%ADD20R,1.800000X1.200000*%
%TD*%
%TA.AperFunction,SMDPad,CuDef*%
%ADD21C,0.100000*%
%TD*%
%TA.AperFunction,SMDPad,CuDef*%
%ADD22R,1.500000X1.000000*%
%TD*%
%TA.AperFunction,ViaPad*%
%ADD23C,0.457200*%
%TD*%
%TA.AperFunction,Conductor*%
%ADD24C,0.400000*%
%TD*%
%TA.AperFunction,Conductor*%
%ADD25C,0.200000*%
%TD*%
%TA.AperFunction,Conductor*%
%ADD26C,0.127000*%
%TD*%
G04 APERTURE END LIST*
D10*
%TO.P,J1,A1B12*%
%TO.N,GND*%
X141045000Y-97130000D03*
%TO.P,J1,A4B9*%
%TO.N,Net-(FB1-Pad2)*%
X141045000Y-97930000D03*
D11*
%TO.P,J1,A6*%
%TO.N,/D+*%
X141045000Y-100130000D03*
%TO.P,J1,B7*%
%TO.N,/D-*%
X141045000Y-99630000D03*
%TO.P,J1,A5*%
%TO.N,Net-(J1-PadA5)*%
X141045000Y-99130000D03*
%TO.P,J1,B8*%
%TO.N,Net-(J1-PadB8)*%
X141045000Y-98630000D03*
%TO.P,J1,A7*%
%TO.N,/D-*%
X141045000Y-100630000D03*
%TO.P,J1,B6*%
%TO.N,/D+*%
X141045000Y-101130000D03*
%TO.P,J1,A8*%
%TO.N,Net-(J1-PadA8)*%
X141045000Y-101630000D03*
%TO.P,J1,B5*%
%TO.N,Net-(J1-PadB5)*%
X141045000Y-102130000D03*
D10*
%TO.P,J1,B4A9*%
%TO.N,Net-(FB1-Pad2)*%
X141045000Y-102830000D03*
%TO.P,J1,B1A12*%
%TO.N,GND*%
X141045000Y-103630000D03*
D12*
%TO.P,J1,S1*%
X140130000Y-96060000D03*
%TO.P,J1,S2*%
X140130000Y-104700000D03*
%TO.P,J1,S3*%
X135950000Y-96060000D03*
%TO.P,J1,S4*%
X135950000Y-104700000D03*
%TD*%
D13*
%TO.P,U2,1*%
%TO.N,/TX*%
X154697500Y-102980000D03*
%TO.P,U2,2*%
%TO.N,/RTS*%
X155332500Y-102980000D03*
%TO.P,U2,3*%
%TO.N,/VCCIO*%
X155967500Y-102980000D03*
%TO.P,U2,4*%
%TO.N,/RX*%
X156602500Y-102980000D03*
%TO.P,U2,5*%
%TO.N,GND*%
X157237500Y-102980000D03*
%TO.P,U2,6*%
%TO.N,/CTS*%
X157872500Y-102980000D03*
%TO.P,U2,7*%
%TO.N,Net-(R8-Pad2)*%
X158507500Y-102980000D03*
%TO.P,U2,8*%
%TO.N,/D1+*%
X159142500Y-102980000D03*
%TO.P,U2,9*%
%TO.N,/D1-*%
X159142500Y-97780000D03*
%TO.P,U2,10*%
%TO.N,+3V3*%
X158507500Y-97780000D03*
%TO.P,U2,11*%
X157872500Y-97780000D03*
%TO.P,U2,12*%
%TO.N,VBUS*%
X157237500Y-97780000D03*
%TO.P,U2,13*%
%TO.N,GND*%
X156602500Y-97780000D03*
%TO.P,U2,14*%
%TO.N,Net-(R7-Pad1)*%
X155967500Y-97780000D03*
%TO.P,U2,15*%
%TO.N,Net-(U2-Pad15)*%
X155332500Y-97780000D03*
%TO.P,U2,16*%
%TO.N,Net-(U2-Pad16)*%
X154697500Y-97780000D03*
%TD*%
%TO.P,C4,2*%
%TO.N,GND*%
%TA.AperFunction,SMDPad,CuDef*%
G36*
G01*
X146620000Y-98295000D02*
X146120000Y-98295000D01*
G75*
G02*
X145895000Y-98070000I0J225000D01*
G01*
X145895000Y-97620000D01*
G75*
G02*
X146120000Y-97395000I225000J0D01*
G01*
X146620000Y-97395000D01*
G75*
G02*
X146845000Y-97620000I0J-225000D01*
G01*
X146845000Y-98070000D01*
G75*
G02*
X146620000Y-98295000I-225000J0D01*
G01*
G37*
%TD.AperFunction*%
%TO.P,C4,1*%
%TO.N,/D-*%
%TA.AperFunction,SMDPad,CuDef*%
G36*
G01*
X146620000Y-99845000D02*
X146120000Y-99845000D01*
G75*
G02*
X145895000Y-99620000I0J225000D01*
G01*
X145895000Y-99170000D01*
G75*
G02*
X146120000Y-98945000I225000J0D01*
G01*
X146620000Y-98945000D01*
G75*
G02*
X146845000Y-99170000I0J-225000D01*
G01*
X146845000Y-99620000D01*
G75*
G02*
X146620000Y-99845000I-225000J0D01*
G01*
G37*
%TD.AperFunction*%
%TD*%
D14*
%TO.P,RN1,5*%
%TO.N,/VCCIO*%
X163790000Y-107610000D03*
D15*
%TO.P,RN1,6*%
X164590000Y-107610000D03*
D14*
%TO.P,RN1,8*%
X166190000Y-107610000D03*
D15*
%TO.P,RN1,7*%
X165390000Y-107610000D03*
D14*
%TO.P,RN1,4*%
%TO.N,/CTS*%
X163790000Y-105810000D03*
D15*
%TO.P,RN1,2*%
%TO.N,/RX*%
X165390000Y-105810000D03*
%TO.P,RN1,3*%
%TO.N,/RTS*%
X164590000Y-105810000D03*
D14*
%TO.P,RN1,1*%
%TO.N,/TX*%
X166190000Y-105810000D03*
%TD*%
D16*
%TO.P,J2,2*%
%TO.N,/RTS*%
X168930000Y-93930000D03*
D17*
%TO.P,J2,1*%
%TO.N,/CTS*%
X170200000Y-93930000D03*
%TD*%
%TO.P,C1,1*%
%TO.N,VBUS*%
%TA.AperFunction,SMDPad,CuDef*%
G36*
G01*
X141765000Y-91760000D02*
X141765000Y-92260000D01*
G75*
G02*
X141540000Y-92485000I-225000J0D01*
G01*
X141090000Y-92485000D01*
G75*
G02*
X140865000Y-92260000I0J225000D01*
G01*
X140865000Y-91760000D01*
G75*
G02*
X141090000Y-91535000I225000J0D01*
G01*
X141540000Y-91535000D01*
G75*
G02*
X141765000Y-91760000I0J-225000D01*
G01*
G37*
%TD.AperFunction*%
%TO.P,C1,2*%
%TO.N,GND*%
%TA.AperFunction,SMDPad,CuDef*%
G36*
G01*
X140215000Y-91760000D02*
X140215000Y-92260000D01*
G75*
G02*
X139990000Y-92485000I-225000J0D01*
G01*
X139540000Y-92485000D01*
G75*
G02*
X139315000Y-92260000I0J225000D01*
G01*
X139315000Y-91760000D01*
G75*
G02*
X139540000Y-91535000I225000J0D01*
G01*
X139990000Y-91535000D01*
G75*
G02*
X140215000Y-91760000I0J-225000D01*
G01*
G37*
%TD.AperFunction*%
%TD*%
%TO.P,C3,1*%
%TO.N,/D+*%
%TA.AperFunction,SMDPad,CuDef*%
G36*
G01*
X146120000Y-100852520D02*
X146620000Y-100852520D01*
G75*
G02*
X146845000Y-101077520I0J-225000D01*
G01*
X146845000Y-101527520D01*
G75*
G02*
X146620000Y-101752520I-225000J0D01*
G01*
X146120000Y-101752520D01*
G75*
G02*
X145895000Y-101527520I0J225000D01*
G01*
X145895000Y-101077520D01*
G75*
G02*
X146120000Y-100852520I225000J0D01*
G01*
G37*
%TD.AperFunction*%
%TO.P,C3,2*%
%TO.N,GND*%
%TA.AperFunction,SMDPad,CuDef*%
G36*
G01*
X146120000Y-102402520D02*
X146620000Y-102402520D01*
G75*
G02*
X146845000Y-102627520I0J-225000D01*
G01*
X146845000Y-103077520D01*
G75*
G02*
X146620000Y-103302520I-225000J0D01*
G01*
X146120000Y-103302520D01*
G75*
G02*
X145895000Y-103077520I0J225000D01*
G01*
X145895000Y-102627520D01*
G75*
G02*
X146120000Y-102402520I225000J0D01*
G01*
G37*
%TD.AperFunction*%
%TD*%
%TO.P,C5,2*%
%TO.N,GND*%
%TA.AperFunction,SMDPad,CuDef*%
G36*
G01*
X147650000Y-106240000D02*
X148150000Y-106240000D01*
G75*
G02*
X148375000Y-106465000I0J-225000D01*
G01*
X148375000Y-106915000D01*
G75*
G02*
X148150000Y-107140000I-225000J0D01*
G01*
X147650000Y-107140000D01*
G75*
G02*
X147425000Y-106915000I0J225000D01*
G01*
X147425000Y-106465000D01*
G75*
G02*
X147650000Y-106240000I225000J0D01*
G01*
G37*
%TD.AperFunction*%
%TO.P,C5,1*%
%TO.N,VBUS*%
%TA.AperFunction,SMDPad,CuDef*%
G36*
G01*
X147650000Y-104690000D02*
X148150000Y-104690000D01*
G75*
G02*
X148375000Y-104915000I0J-225000D01*
G01*
X148375000Y-105365000D01*
G75*
G02*
X148150000Y-105590000I-225000J0D01*
G01*
X147650000Y-105590000D01*
G75*
G02*
X147425000Y-105365000I0J225000D01*
G01*
X147425000Y-104915000D01*
G75*
G02*
X147650000Y-104690000I225000J0D01*
G01*
G37*
%TD.AperFunction*%
%TD*%
%TO.P,C6,1*%
%TO.N,+3V3*%
%TA.AperFunction,SMDPad,CuDef*%
G36*
G01*
X158055000Y-95650000D02*
X158055000Y-95150000D01*
G75*
G02*
X158280000Y-94925000I225000J0D01*
G01*
X158730000Y-94925000D01*
G75*
G02*
X158955000Y-95150000I0J-225000D01*
G01*
X158955000Y-95650000D01*
G75*
G02*
X158730000Y-95875000I-225000J0D01*
G01*
X158280000Y-95875000D01*
G75*
G02*
X158055000Y-95650000I0J225000D01*
G01*
G37*
%TD.AperFunction*%
%TO.P,C6,2*%
%TO.N,GND*%
%TA.AperFunction,SMDPad,CuDef*%
G36*
G01*
X159605000Y-95650000D02*
X159605000Y-95150000D01*
G75*
G02*
X159830000Y-94925000I225000J0D01*
G01*
X160280000Y-94925000D01*
G75*
G02*
X160505000Y-95150000I0J-225000D01*
G01*
X160505000Y-95650000D01*
G75*
G02*
X160280000Y-95875000I-225000J0D01*
G01*
X159830000Y-95875000D01*
G75*
G02*
X159605000Y-95650000I0J225000D01*
G01*
G37*
%TD.AperFunction*%
%TD*%
%TO.P,C7,1*%
%TO.N,+1V8*%
%TA.AperFunction,SMDPad,CuDef*%
G36*
G01*
X153840000Y-104695000D02*
X154340000Y-104695000D01*
G75*
G02*
X154565000Y-104920000I0J-225000D01*
G01*
X154565000Y-105370000D01*
G75*
G02*
X154340000Y-105595000I-225000J0D01*
G01*
X153840000Y-105595000D01*
G75*
G02*
X153615000Y-105370000I0J225000D01*
G01*
X153615000Y-104920000D01*
G75*
G02*
X153840000Y-104695000I225000J0D01*
G01*
G37*
%TD.AperFunction*%
%TO.P,C7,2*%
%TO.N,GND*%
%TA.AperFunction,SMDPad,CuDef*%
G36*
G01*
X153840000Y-106245000D02*
X154340000Y-106245000D01*
G75*
G02*
X154565000Y-106470000I0J-225000D01*
G01*
X154565000Y-106920000D01*
G75*
G02*
X154340000Y-107145000I-225000J0D01*
G01*
X153840000Y-107145000D01*
G75*
G02*
X153615000Y-106920000I0J225000D01*
G01*
X153615000Y-106470000D01*
G75*
G02*
X153840000Y-106245000I225000J0D01*
G01*
G37*
%TD.AperFunction*%
%TD*%
%TO.P,C8,1*%
%TO.N,VBUS*%
%TA.AperFunction,SMDPad,CuDef*%
G36*
G01*
X157035000Y-93630000D02*
X157035000Y-94130000D01*
G75*
G02*
X156810000Y-94355000I-225000J0D01*
G01*
X156360000Y-94355000D01*
G75*
G02*
X156135000Y-94130000I0J225000D01*
G01*
X156135000Y-93630000D01*
G75*
G02*
X156360000Y-93405000I225000J0D01*
G01*
X156810000Y-93405000D01*
G75*
G02*
X157035000Y-93630000I0J-225000D01*
G01*
G37*
%TD.AperFunction*%
%TO.P,C8,2*%
%TO.N,GND*%
%TA.AperFunction,SMDPad,CuDef*%
G36*
G01*
X155485000Y-93630000D02*
X155485000Y-94130000D01*
G75*
G02*
X155260000Y-94355000I-225000J0D01*
G01*
X154810000Y-94355000D01*
G75*
G02*
X154585000Y-94130000I0J225000D01*
G01*
X154585000Y-93630000D01*
G75*
G02*
X154810000Y-93405000I225000J0D01*
G01*
X155260000Y-93405000D01*
G75*
G02*
X155485000Y-93630000I0J-225000D01*
G01*
G37*
%TD.AperFunction*%
%TD*%
%TO.P,C9,2*%
%TO.N,GND*%
%TA.AperFunction,SMDPad,CuDef*%
G36*
G01*
X155485000Y-94990000D02*
X155485000Y-95490000D01*
G75*
G02*
X155260000Y-95715000I-225000J0D01*
G01*
X154810000Y-95715000D01*
G75*
G02*
X154585000Y-95490000I0J225000D01*
G01*
X154585000Y-94990000D01*
G75*
G02*
X154810000Y-94765000I225000J0D01*
G01*
X155260000Y-94765000D01*
G75*
G02*
X155485000Y-94990000I0J-225000D01*
G01*
G37*
%TD.AperFunction*%
%TO.P,C9,1*%
%TO.N,VBUS*%
%TA.AperFunction,SMDPad,CuDef*%
G36*
G01*
X157035000Y-94990000D02*
X157035000Y-95490000D01*
G75*
G02*
X156810000Y-95715000I-225000J0D01*
G01*
X156360000Y-95715000D01*
G75*
G02*
X156135000Y-95490000I0J225000D01*
G01*
X156135000Y-94990000D01*
G75*
G02*
X156360000Y-94765000I225000J0D01*
G01*
X156810000Y-94765000D01*
G75*
G02*
X157035000Y-94990000I0J-225000D01*
G01*
G37*
%TD.AperFunction*%
%TD*%
%TO.P,D1,2*%
%TO.N,+3V3*%
%TA.AperFunction,SMDPad,CuDef*%
G36*
G01*
X148310000Y-97403750D02*
X148310000Y-97916250D01*
G75*
G02*
X148091250Y-98135000I-218750J0D01*
G01*
X147653750Y-98135000D01*
G75*
G02*
X147435000Y-97916250I0J218750D01*
G01*
X147435000Y-97403750D01*
G75*
G02*
X147653750Y-97185000I218750J0D01*
G01*
X148091250Y-97185000D01*
G75*
G02*
X148310000Y-97403750I0J-218750D01*
G01*
G37*
%TD.AperFunction*%
%TO.P,D1,1*%
%TO.N,Net-(D1-Pad1)*%
%TA.AperFunction,SMDPad,CuDef*%
G36*
G01*
X149885000Y-97403750D02*
X149885000Y-97916250D01*
G75*
G02*
X149666250Y-98135000I-218750J0D01*
G01*
X149228750Y-98135000D01*
G75*
G02*
X149010000Y-97916250I0J218750D01*
G01*
X149010000Y-97403750D01*
G75*
G02*
X149228750Y-97185000I218750J0D01*
G01*
X149666250Y-97185000D01*
G75*
G02*
X149885000Y-97403750I0J-218750D01*
G01*
G37*
%TD.AperFunction*%
%TD*%
%TO.P,D2,1*%
%TO.N,Net-(D2-Pad1)*%
%TA.AperFunction,SMDPad,CuDef*%
G36*
G01*
X149885000Y-102843750D02*
X149885000Y-103356250D01*
G75*
G02*
X149666250Y-103575000I-218750J0D01*
G01*
X149228750Y-103575000D01*
G75*
G02*
X149010000Y-103356250I0J218750D01*
G01*
X149010000Y-102843750D01*
G75*
G02*
X149228750Y-102625000I218750J0D01*
G01*
X149666250Y-102625000D01*
G75*
G02*
X149885000Y-102843750I0J-218750D01*
G01*
G37*
%TD.AperFunction*%
%TO.P,D2,2*%
%TO.N,+3V3*%
%TA.AperFunction,SMDPad,CuDef*%
G36*
G01*
X148310000Y-102843750D02*
X148310000Y-103356250D01*
G75*
G02*
X148091250Y-103575000I-218750J0D01*
G01*
X147653750Y-103575000D01*
G75*
G02*
X147435000Y-103356250I0J218750D01*
G01*
X147435000Y-102843750D01*
G75*
G02*
X147653750Y-102625000I218750J0D01*
G01*
X148091250Y-102625000D01*
G75*
G02*
X148310000Y-102843750I0J-218750D01*
G01*
G37*
%TD.AperFunction*%
%TD*%
%TO.P,FB1,1*%
%TO.N,VBUS*%
%TA.AperFunction,SMDPad,CuDef*%
G36*
G01*
X141765000Y-93605000D02*
X141765000Y-94155000D01*
G75*
G02*
X141565000Y-94355000I-200000J0D01*
G01*
X141165000Y-94355000D01*
G75*
G02*
X140965000Y-94155000I0J200000D01*
G01*
X140965000Y-93605000D01*
G75*
G02*
X141165000Y-93405000I200000J0D01*
G01*
X141565000Y-93405000D01*
G75*
G02*
X141765000Y-93605000I0J-200000D01*
G01*
G37*
%TD.AperFunction*%
%TO.P,FB1,2*%
%TO.N,Net-(FB1-Pad2)*%
%TA.AperFunction,SMDPad,CuDef*%
G36*
G01*
X140115000Y-93605000D02*
X140115000Y-94155000D01*
G75*
G02*
X139915000Y-94355000I-200000J0D01*
G01*
X139515000Y-94355000D01*
G75*
G02*
X139315000Y-94155000I0J200000D01*
G01*
X139315000Y-93605000D01*
G75*
G02*
X139515000Y-93405000I200000J0D01*
G01*
X139915000Y-93405000D01*
G75*
G02*
X140115000Y-93605000I0J-200000D01*
G01*
G37*
%TD.AperFunction*%
%TD*%
D18*
%TO.P,IC1,1*%
%TO.N,VBUS*%
X149730000Y-105240000D03*
%TO.P,IC1,2*%
%TO.N,GND*%
X149730000Y-106190000D03*
%TO.P,IC1,3*%
%TO.N,VBUS*%
X149730000Y-107140000D03*
%TO.P,IC1,4*%
%TO.N,Net-(IC1-Pad4)*%
X152230000Y-107140000D03*
%TO.P,IC1,5*%
%TO.N,+1V8*%
X152230000Y-105240000D03*
%TD*%
D19*
%TO.P,J3,6*%
%TO.N,GND*%
X168770000Y-97880000D03*
%TO.P,J3,1*%
%TO.N,/VCC_KIMCHI*%
X168770000Y-102880000D03*
%TO.P,J3,2*%
%TO.N,Net-(J3-Pad2)*%
X168770000Y-101880000D03*
%TO.P,J3,3*%
%TO.N,/RX*%
X168770000Y-100880000D03*
%TO.P,J3,4*%
%TO.N,Net-(J3-Pad4)*%
X168770000Y-99880000D03*
%TO.P,J3,5*%
%TO.N,/CTS*%
X168770000Y-98880000D03*
D20*
%TO.P,J3,S1*%
%TO.N,GND*%
X172645000Y-104180000D03*
%TO.P,J3,S2*%
X172645000Y-96580000D03*
%TD*%
%TA.AperFunction,SMDPad,CuDef*%
D21*
%TO.P,JP1,1*%
%TO.N,+1V8*%
G36*
X161030000Y-107900000D02*
G01*
X161030000Y-108450000D01*
X161029398Y-108450000D01*
X161029398Y-108474534D01*
X161024588Y-108523365D01*
X161015016Y-108571490D01*
X161000772Y-108618445D01*
X160981995Y-108663778D01*
X160958864Y-108707051D01*
X160931604Y-108747850D01*
X160900476Y-108785779D01*
X160865779Y-108820476D01*
X160827850Y-108851604D01*
X160787051Y-108878864D01*
X160743778Y-108901995D01*
X160698445Y-108920772D01*
X160651490Y-108935016D01*
X160603365Y-108944588D01*
X160554534Y-108949398D01*
X160530000Y-108949398D01*
X160530000Y-108950000D01*
X160030000Y-108950000D01*
X160030000Y-108949398D01*
X160005466Y-108949398D01*
X159956635Y-108944588D01*
X159908510Y-108935016D01*
X159861555Y-108920772D01*
X159816222Y-108901995D01*
X159772949Y-108878864D01*
X159732150Y-108851604D01*
X159694221Y-108820476D01*
X159659524Y-108785779D01*
X159628396Y-108747850D01*
X159601136Y-108707051D01*
X159578005Y-108663778D01*
X159559228Y-108618445D01*
X159544984Y-108571490D01*
X159535412Y-108523365D01*
X159530602Y-108474534D01*
X159530602Y-108450000D01*
X159530000Y-108450000D01*
X159530000Y-107900000D01*
X161030000Y-107900000D01*
G37*
%TD.AperFunction*%
%TA.AperFunction,SMDPad,CuDef*%
%TO.P,JP1,3*%
%TO.N,+3V3*%
G36*
X159530602Y-105850000D02*
G01*
X159530602Y-105825466D01*
X159535412Y-105776635D01*
X159544984Y-105728510D01*
X159559228Y-105681555D01*
X159578005Y-105636222D01*
X159601136Y-105592949D01*
X159628396Y-105552150D01*
X159659524Y-105514221D01*
X159694221Y-105479524D01*
X159732150Y-105448396D01*
X159772949Y-105421136D01*
X159816222Y-105398005D01*
X159861555Y-105379228D01*
X159908510Y-105364984D01*
X159956635Y-105355412D01*
X160005466Y-105350602D01*
X160030000Y-105350602D01*
X160030000Y-105350000D01*
X160530000Y-105350000D01*
X160530000Y-105350602D01*
X160554534Y-105350602D01*
X160603365Y-105355412D01*
X160651490Y-105364984D01*
X160698445Y-105379228D01*
X160743778Y-105398005D01*
X160787051Y-105421136D01*
X160827850Y-105448396D01*
X160865779Y-105479524D01*
X160900476Y-105514221D01*
X160931604Y-105552150D01*
X160958864Y-105592949D01*
X160981995Y-105636222D01*
X161000772Y-105681555D01*
X161015016Y-105728510D01*
X161024588Y-105776635D01*
X161029398Y-105825466D01*
X161029398Y-105850000D01*
X161030000Y-105850000D01*
X161030000Y-106400000D01*
X159530000Y-106400000D01*
X159530000Y-105850000D01*
X159530602Y-105850000D01*
G37*
%TD.AperFunction*%
D22*
%TO.P,JP1,2*%
%TO.N,/VCCIO*%
X160280000Y-107150000D03*
%TD*%
%TA.AperFunction,SMDPad,CuDef*%
D21*
%TO.P,JP2,1*%
%TO.N,/VCCIO*%
G36*
X169740000Y-107410000D02*
G01*
X169740000Y-107910000D01*
X169739398Y-107910000D01*
X169739398Y-107934534D01*
X169734588Y-107983365D01*
X169725016Y-108031490D01*
X169710772Y-108078445D01*
X169691995Y-108123778D01*
X169668864Y-108167051D01*
X169641604Y-108207850D01*
X169610476Y-108245779D01*
X169575779Y-108280476D01*
X169537850Y-108311604D01*
X169497051Y-108338864D01*
X169453778Y-108361995D01*
X169408445Y-108380772D01*
X169361490Y-108395016D01*
X169313365Y-108404588D01*
X169264534Y-108409398D01*
X169240000Y-108409398D01*
X169240000Y-108410000D01*
X168740000Y-108410000D01*
X168740000Y-108409398D01*
X168715466Y-108409398D01*
X168666635Y-108404588D01*
X168618510Y-108395016D01*
X168571555Y-108380772D01*
X168526222Y-108361995D01*
X168482949Y-108338864D01*
X168442150Y-108311604D01*
X168404221Y-108280476D01*
X168369524Y-108245779D01*
X168338396Y-108207850D01*
X168311136Y-108167051D01*
X168288005Y-108123778D01*
X168269228Y-108078445D01*
X168254984Y-108031490D01*
X168245412Y-107983365D01*
X168240602Y-107934534D01*
X168240602Y-107910000D01*
X168240000Y-107910000D01*
X168240000Y-107410000D01*
X169740000Y-107410000D01*
G37*
%TD.AperFunction*%
%TA.AperFunction,SMDPad,CuDef*%
%TO.P,JP2,2*%
%TO.N,/VCC_KIMCHI*%
G36*
X168240602Y-106610000D02*
G01*
X168240602Y-106585466D01*
X168245412Y-106536635D01*
X168254984Y-106488510D01*
X168269228Y-106441555D01*
X168288005Y-106396222D01*
X168311136Y-106352949D01*
X168338396Y-106312150D01*
X168369524Y-106274221D01*
X168404221Y-106239524D01*
X168442150Y-106208396D01*
X168482949Y-106181136D01*
X168526222Y-106158005D01*
X168571555Y-106139228D01*
X168618510Y-106124984D01*
X168666635Y-106115412D01*
X168715466Y-106110602D01*
X168740000Y-106110602D01*
X168740000Y-106110000D01*
X169240000Y-106110000D01*
X169240000Y-106110602D01*
X169264534Y-106110602D01*
X169313365Y-106115412D01*
X169361490Y-106124984D01*
X169408445Y-106139228D01*
X169453778Y-106158005D01*
X169497051Y-106181136D01*
X169537850Y-106208396D01*
X169575779Y-106239524D01*
X169610476Y-106274221D01*
X169641604Y-106312150D01*
X169668864Y-106352949D01*
X169691995Y-106396222D01*
X169710772Y-106441555D01*
X169725016Y-106488510D01*
X169734588Y-106536635D01*
X169739398Y-106585466D01*
X169739398Y-106610000D01*
X169740000Y-106610000D01*
X169740000Y-107110000D01*
X168240000Y-107110000D01*
X168240000Y-106610000D01*
X168240602Y-106610000D01*
G37*
%TD.AperFunction*%
%TD*%
%TO.P,R1,1*%
%TO.N,Net-(J1-PadA5)*%
%TA.AperFunction,SMDPad,CuDef*%
G36*
G01*
X143845000Y-97990000D02*
X143295000Y-97990000D01*
G75*
G02*
X143095000Y-97790000I0J200000D01*
G01*
X143095000Y-97390000D01*
G75*
G02*
X143295000Y-97190000I200000J0D01*
G01*
X143845000Y-97190000D01*
G75*
G02*
X144045000Y-97390000I0J-200000D01*
G01*
X144045000Y-97790000D01*
G75*
G02*
X143845000Y-97990000I-200000J0D01*
G01*
G37*
%TD.AperFunction*%
%TO.P,R1,2*%
%TO.N,GND*%
%TA.AperFunction,SMDPad,CuDef*%
G36*
G01*
X143845000Y-96340000D02*
X143295000Y-96340000D01*
G75*
G02*
X143095000Y-96140000I0J200000D01*
G01*
X143095000Y-95740000D01*
G75*
G02*
X143295000Y-95540000I200000J0D01*
G01*
X143845000Y-95540000D01*
G75*
G02*
X144045000Y-95740000I0J-200000D01*
G01*
X144045000Y-96140000D01*
G75*
G02*
X143845000Y-96340000I-200000J0D01*
G01*
G37*
%TD.AperFunction*%
%TD*%
%TO.P,R2,2*%
%TO.N,GND*%
%TA.AperFunction,SMDPad,CuDef*%
G36*
G01*
X143295000Y-104415000D02*
X143845000Y-104415000D01*
G75*
G02*
X144045000Y-104615000I0J-200000D01*
G01*
X144045000Y-105015000D01*
G75*
G02*
X143845000Y-105215000I-200000J0D01*
G01*
X143295000Y-105215000D01*
G75*
G02*
X143095000Y-105015000I0J200000D01*
G01*
X143095000Y-104615000D01*
G75*
G02*
X143295000Y-104415000I200000J0D01*
G01*
G37*
%TD.AperFunction*%
%TO.P,R2,1*%
%TO.N,Net-(J1-PadB5)*%
%TA.AperFunction,SMDPad,CuDef*%
G36*
G01*
X143295000Y-102765000D02*
X143845000Y-102765000D01*
G75*
G02*
X144045000Y-102965000I0J-200000D01*
G01*
X144045000Y-103365000D01*
G75*
G02*
X143845000Y-103565000I-200000J0D01*
G01*
X143295000Y-103565000D01*
G75*
G02*
X143095000Y-103365000I0J200000D01*
G01*
X143095000Y-102965000D01*
G75*
G02*
X143295000Y-102765000I200000J0D01*
G01*
G37*
%TD.AperFunction*%
%TD*%
%TO.P,R3,2*%
%TO.N,/D+*%
%TA.AperFunction,SMDPad,CuDef*%
G36*
G01*
X148245000Y-101026666D02*
X148245000Y-101576666D01*
G75*
G02*
X148045000Y-101776666I-200000J0D01*
G01*
X147645000Y-101776666D01*
G75*
G02*
X147445000Y-101576666I0J200000D01*
G01*
X147445000Y-101026666D01*
G75*
G02*
X147645000Y-100826666I200000J0D01*
G01*
X148045000Y-100826666D01*
G75*
G02*
X148245000Y-101026666I0J-200000D01*
G01*
G37*
%TD.AperFunction*%
%TO.P,R3,1*%
%TO.N,/D1+*%
%TA.AperFunction,SMDPad,CuDef*%
G36*
G01*
X149895000Y-101026666D02*
X149895000Y-101576666D01*
G75*
G02*
X149695000Y-101776666I-200000J0D01*
G01*
X149295000Y-101776666D01*
G75*
G02*
X149095000Y-101576666I0J200000D01*
G01*
X149095000Y-101026666D01*
G75*
G02*
X149295000Y-100826666I200000J0D01*
G01*
X149695000Y-100826666D01*
G75*
G02*
X149895000Y-101026666I0J-200000D01*
G01*
G37*
%TD.AperFunction*%
%TD*%
%TO.P,R4,2*%
%TO.N,/D-*%
%TA.AperFunction,SMDPad,CuDef*%
G36*
G01*
X148225000Y-99118333D02*
X148225000Y-99668333D01*
G75*
G02*
X148025000Y-99868333I-200000J0D01*
G01*
X147625000Y-99868333D01*
G75*
G02*
X147425000Y-99668333I0J200000D01*
G01*
X147425000Y-99118333D01*
G75*
G02*
X147625000Y-98918333I200000J0D01*
G01*
X148025000Y-98918333D01*
G75*
G02*
X148225000Y-99118333I0J-200000D01*
G01*
G37*
%TD.AperFunction*%
%TO.P,R4,1*%
%TO.N,/D1-*%
%TA.AperFunction,SMDPad,CuDef*%
G36*
G01*
X149875000Y-99118333D02*
X149875000Y-99668333D01*
G75*
G02*
X149675000Y-99868333I-200000J0D01*
G01*
X149275000Y-99868333D01*
G75*
G02*
X149075000Y-99668333I0J200000D01*
G01*
X149075000Y-99118333D01*
G75*
G02*
X149275000Y-98918333I200000J0D01*
G01*
X149675000Y-98918333D01*
G75*
G02*
X149875000Y-99118333I0J-200000D01*
G01*
G37*
%TD.AperFunction*%
%TD*%
%TO.P,R5,1*%
%TO.N,Net-(J3-Pad2)*%
%TA.AperFunction,SMDPad,CuDef*%
G36*
G01*
X166460000Y-103673332D02*
X166460000Y-104223332D01*
G75*
G02*
X166260000Y-104423332I-200000J0D01*
G01*
X165860000Y-104423332D01*
G75*
G02*
X165660000Y-104223332I0J200000D01*
G01*
X165660000Y-103673332D01*
G75*
G02*
X165860000Y-103473332I200000J0D01*
G01*
X166260000Y-103473332D01*
G75*
G02*
X166460000Y-103673332I0J-200000D01*
G01*
G37*
%TD.AperFunction*%
%TO.P,R5,2*%
%TO.N,/TX*%
%TA.AperFunction,SMDPad,CuDef*%
G36*
G01*
X164810000Y-103673332D02*
X164810000Y-104223332D01*
G75*
G02*
X164610000Y-104423332I-200000J0D01*
G01*
X164210000Y-104423332D01*
G75*
G02*
X164010000Y-104223332I0J200000D01*
G01*
X164010000Y-103673332D01*
G75*
G02*
X164210000Y-103473332I200000J0D01*
G01*
X164610000Y-103473332D01*
G75*
G02*
X164810000Y-103673332I0J-200000D01*
G01*
G37*
%TD.AperFunction*%
%TD*%
%TO.P,R6,1*%
%TO.N,Net-(J3-Pad4)*%
%TA.AperFunction,SMDPad,CuDef*%
G36*
G01*
X166515000Y-96536666D02*
X166515000Y-97086666D01*
G75*
G02*
X166315000Y-97286666I-200000J0D01*
G01*
X165915000Y-97286666D01*
G75*
G02*
X165715000Y-97086666I0J200000D01*
G01*
X165715000Y-96536666D01*
G75*
G02*
X165915000Y-96336666I200000J0D01*
G01*
X166315000Y-96336666D01*
G75*
G02*
X166515000Y-96536666I0J-200000D01*
G01*
G37*
%TD.AperFunction*%
%TO.P,R6,2*%
%TO.N,/RTS*%
%TA.AperFunction,SMDPad,CuDef*%
G36*
G01*
X164865000Y-96536666D02*
X164865000Y-97086666D01*
G75*
G02*
X164665000Y-97286666I-200000J0D01*
G01*
X164265000Y-97286666D01*
G75*
G02*
X164065000Y-97086666I0J200000D01*
G01*
X164065000Y-96536666D01*
G75*
G02*
X164265000Y-96336666I200000J0D01*
G01*
X164665000Y-96336666D01*
G75*
G02*
X164865000Y-96536666I0J-200000D01*
G01*
G37*
%TD.AperFunction*%
%TD*%
%TO.P,R7,2*%
%TO.N,Net-(D1-Pad1)*%
%TA.AperFunction,SMDPad,CuDef*%
G36*
G01*
X151985000Y-97385000D02*
X151985000Y-97935000D01*
G75*
G02*
X151785000Y-98135000I-200000J0D01*
G01*
X151385000Y-98135000D01*
G75*
G02*
X151185000Y-97935000I0J200000D01*
G01*
X151185000Y-97385000D01*
G75*
G02*
X151385000Y-97185000I200000J0D01*
G01*
X151785000Y-97185000D01*
G75*
G02*
X151985000Y-97385000I0J-200000D01*
G01*
G37*
%TD.AperFunction*%
%TO.P,R7,1*%
%TO.N,Net-(R7-Pad1)*%
%TA.AperFunction,SMDPad,CuDef*%
G36*
G01*
X153635000Y-97385000D02*
X153635000Y-97935000D01*
G75*
G02*
X153435000Y-98135000I-200000J0D01*
G01*
X153035000Y-98135000D01*
G75*
G02*
X152835000Y-97935000I0J200000D01*
G01*
X152835000Y-97385000D01*
G75*
G02*
X153035000Y-97185000I200000J0D01*
G01*
X153435000Y-97185000D01*
G75*
G02*
X153635000Y-97385000I0J-200000D01*
G01*
G37*
%TD.AperFunction*%
%TD*%
%TO.P,R8,1*%
%TO.N,Net-(D2-Pad1)*%
%TA.AperFunction,SMDPad,CuDef*%
G36*
G01*
X151195000Y-103375000D02*
X151195000Y-102825000D01*
G75*
G02*
X151395000Y-102625000I200000J0D01*
G01*
X151795000Y-102625000D01*
G75*
G02*
X151995000Y-102825000I0J-200000D01*
G01*
X151995000Y-103375000D01*
G75*
G02*
X151795000Y-103575000I-200000J0D01*
G01*
X151395000Y-103575000D01*
G75*
G02*
X151195000Y-103375000I0J200000D01*
G01*
G37*
%TD.AperFunction*%
%TO.P,R8,2*%
%TO.N,Net-(R8-Pad2)*%
%TA.AperFunction,SMDPad,CuDef*%
G36*
G01*
X152845000Y-103375000D02*
X152845000Y-102825000D01*
G75*
G02*
X153045000Y-102625000I200000J0D01*
G01*
X153445000Y-102625000D01*
G75*
G02*
X153645000Y-102825000I0J-200000D01*
G01*
X153645000Y-103375000D01*
G75*
G02*
X153445000Y-103575000I-200000J0D01*
G01*
X153045000Y-103575000D01*
G75*
G02*
X152845000Y-103375000I0J200000D01*
G01*
G37*
%TD.AperFunction*%
%TD*%
D23*
%TO.N,GND*%
X173270000Y-96250000D03*
X173290000Y-103840000D03*
X172030000Y-103870000D03*
X172020000Y-96260000D03*
X143570000Y-106300000D03*
X143570000Y-94530000D03*
X146370000Y-96370000D03*
X146390000Y-104380000D03*
X154090000Y-107750000D03*
X161420000Y-95400000D03*
X155040002Y-96540000D03*
X155035000Y-92605000D03*
X156600000Y-98870000D03*
X166960000Y-97890000D03*
X157240000Y-101495610D03*
X146780000Y-106689998D03*
X165750000Y-102540000D03*
X166780000Y-101510000D03*
X161823260Y-99668380D03*
X162593260Y-99658380D03*
X161823260Y-101278380D03*
X162593260Y-101278380D03*
X163363260Y-99668380D03*
X157237500Y-105197500D03*
X163363260Y-101278380D03*
X158442660Y-99783900D03*
X159143700Y-99781360D03*
X159143700Y-101056440D03*
X138149100Y-92010000D03*
%TO.N,/CTS*%
X157870000Y-101870000D03*
X166350000Y-99610000D03*
X167340000Y-98880000D03*
X160910002Y-101870000D03*
%TO.N,/RTS*%
X155330000Y-101870000D03*
X167130000Y-102910000D03*
X164990000Y-100780000D03*
%TO.N,/RX*%
X156600000Y-101870000D03*
X160930000Y-102480000D03*
%TO.N,/TX*%
X154700000Y-101870000D03*
X163300000Y-103940000D03*
%TD*%
D24*
%TO.N,VBUS*%
X141365000Y-92060000D02*
X141315000Y-92010000D01*
X141365000Y-93880000D02*
X141365000Y-92060000D01*
X148000000Y-105240000D02*
X147900000Y-105140000D01*
X149730000Y-105240000D02*
X148000000Y-105240000D01*
X150268602Y-107140000D02*
X149730000Y-107140000D01*
X150950000Y-105921398D02*
X150950000Y-106458602D01*
X150268602Y-105240000D02*
X150950000Y-105921398D01*
X150950000Y-106458602D02*
X150268602Y-107140000D01*
X149730000Y-105240000D02*
X150268602Y-105240000D01*
X156585000Y-93880000D02*
X156585000Y-95240000D01*
X157237500Y-97780000D02*
X157237500Y-96652500D01*
X156585000Y-96000000D02*
X157237500Y-96652500D01*
X156585000Y-95240000D02*
X156585000Y-96000000D01*
D25*
X141354999Y-92049999D02*
X141315000Y-92010000D01*
D24*
X141324800Y-92000200D02*
X141315000Y-92010000D01*
X140425000Y-92940000D02*
X141365000Y-93880000D01*
X138590000Y-92940000D02*
X140425000Y-92940000D01*
X137710000Y-93820000D02*
X138590000Y-92940000D01*
X137710000Y-106170000D02*
X137710000Y-93820000D01*
X139640000Y-108100000D02*
X137710000Y-106170000D01*
X149360000Y-108100000D02*
X139640000Y-108100000D01*
X149730000Y-107730000D02*
X149360000Y-108100000D01*
X149730000Y-107140000D02*
X149730000Y-107730000D01*
X141325000Y-92020000D02*
X141315000Y-92010000D01*
X155600000Y-92020000D02*
X141325000Y-92020000D01*
X156585000Y-93005000D02*
X155600000Y-92020000D01*
X156585000Y-93880000D02*
X156585000Y-93005000D01*
%TO.N,GND*%
X141045000Y-103785000D02*
X140130000Y-104700000D01*
X141045000Y-103630000D02*
X141045000Y-103785000D01*
X141045000Y-96975000D02*
X140130000Y-96060000D01*
X141045000Y-97130000D02*
X141045000Y-96975000D01*
D25*
X143570000Y-104815000D02*
X143570000Y-106300000D01*
X143570000Y-95940000D02*
X143570000Y-94530000D01*
X146370000Y-97845000D02*
X146370000Y-96370000D01*
D24*
X148400000Y-106190000D02*
X149730000Y-106190000D01*
X147900000Y-106690000D02*
X148400000Y-106190000D01*
X154090000Y-106695000D02*
X154090000Y-107750000D01*
X161420000Y-95400000D02*
X160055000Y-95400000D01*
X155035000Y-93880000D02*
X155035000Y-95240000D01*
X155035000Y-95240000D02*
X155035000Y-96534998D01*
X155035000Y-93880000D02*
X155035000Y-92605000D01*
X156600000Y-97782500D02*
X156602500Y-97780000D01*
X156600000Y-98870000D02*
X156600000Y-97782500D01*
X166970000Y-97880000D02*
X166960000Y-97890000D01*
X168770000Y-97880000D02*
X166970000Y-97880000D01*
X157237500Y-102980000D02*
X157237500Y-101498110D01*
X157237500Y-101498110D02*
X157240000Y-101495610D01*
X147900000Y-106690000D02*
X146780002Y-106690000D01*
X146780002Y-106690000D02*
X146780000Y-106689998D01*
X165750000Y-102540000D02*
X166780000Y-101510000D01*
X166780000Y-101510000D02*
X166780000Y-101510000D01*
X161823260Y-99668380D02*
X161823260Y-101278380D01*
X162593260Y-99658380D02*
X162593260Y-101278380D01*
X157237500Y-102980000D02*
X157237500Y-105197500D01*
X157237500Y-105197500D02*
X157237500Y-105197500D01*
X163363260Y-99668380D02*
X163363260Y-101278380D01*
D25*
X146387820Y-104377820D02*
X146390000Y-104380000D01*
X146387820Y-102852520D02*
X146387820Y-104377820D01*
D24*
X159143700Y-99781360D02*
X159143700Y-101056440D01*
X158442660Y-100355400D02*
X159143700Y-101056440D01*
X158442660Y-99783900D02*
X158442660Y-100355400D01*
X139765000Y-92010000D02*
X138149100Y-92010000D01*
X138149100Y-92010000D02*
X138149100Y-92010000D01*
D25*
%TO.N,/D+*%
X147844146Y-101302520D02*
X147845000Y-101301666D01*
X146370000Y-101302520D02*
X147844146Y-101302520D01*
X140120000Y-100130000D02*
X139948920Y-100301080D01*
X141045000Y-100130000D02*
X140120000Y-100130000D01*
X140146940Y-101130000D02*
X141045000Y-101130000D01*
X139948920Y-100931980D02*
X140146940Y-101130000D01*
X139948920Y-100301080D02*
X139948920Y-100931980D01*
D26*
X143981720Y-99696746D02*
X143986057Y-99658250D01*
X143830239Y-101339999D02*
X143893945Y-101276293D01*
X143215494Y-101276293D02*
X143279200Y-101339999D01*
X144079658Y-99540879D02*
X144116223Y-99528084D01*
X144289976Y-99588883D02*
X144310587Y-99621685D01*
X143123382Y-100610263D02*
X143127720Y-100648760D01*
X144415494Y-100324280D02*
X144479200Y-100387986D01*
X143753956Y-101387931D02*
X143830239Y-101339999D01*
X143668919Y-101417686D02*
X143753956Y-101387931D01*
X143941877Y-101200010D02*
X143971632Y-101114973D01*
X142417142Y-100475760D02*
X142954720Y-100475760D01*
X143062583Y-100513503D02*
X143089976Y-100540896D01*
X143530046Y-101427774D02*
X143579393Y-101427774D01*
X143127720Y-100648760D02*
X143127720Y-101025447D01*
X143440520Y-101417686D02*
X143530046Y-101427774D01*
X144640520Y-100465673D02*
X144730046Y-100475760D01*
X143981720Y-101025447D02*
X143981720Y-99696746D01*
X143167562Y-101200010D02*
X143215494Y-101276293D01*
X144019463Y-99588883D02*
X144046856Y-99561490D01*
X141045000Y-101130000D02*
X141762902Y-101130000D01*
X144154720Y-99523746D02*
X144193216Y-99528084D01*
X143579393Y-101427774D02*
X143668919Y-101417686D01*
X144337807Y-100162960D02*
X144367562Y-100247997D01*
X144116223Y-99528084D02*
X144154720Y-99523746D01*
X142954720Y-100475760D02*
X142993216Y-100480097D01*
X144555483Y-100435918D02*
X144640520Y-100465673D01*
X143893945Y-101276293D02*
X143941877Y-101200010D01*
X143986057Y-99658250D02*
X143998852Y-99621685D01*
X143029781Y-100492892D02*
X143062583Y-100513503D01*
X143137807Y-101114973D02*
X143167562Y-101200010D01*
X143971632Y-101114973D02*
X143981720Y-101025447D01*
X143127720Y-101025447D02*
X143137807Y-101114973D01*
X143998852Y-99621685D02*
X144019463Y-99588883D01*
X144046856Y-99561490D02*
X144079658Y-99540879D01*
X143279200Y-101339999D02*
X143355483Y-101387931D01*
X144327720Y-100073434D02*
X144337807Y-100162960D01*
X144193216Y-99528084D02*
X144229781Y-99540879D01*
X142993216Y-100480097D02*
X143029781Y-100492892D01*
X144229781Y-99540879D02*
X144262583Y-99561490D01*
X144262583Y-99561490D02*
X144289976Y-99588883D01*
X145543240Y-100475760D02*
X146370000Y-101302520D01*
X144310587Y-99621685D02*
X144323382Y-99658250D01*
X144323382Y-99658250D02*
X144327720Y-99696746D01*
X141762902Y-101130000D02*
X142417142Y-100475760D01*
X144327720Y-99696746D02*
X144327720Y-100073434D01*
X143355483Y-101387931D02*
X143440520Y-101417686D01*
X143089976Y-100540896D02*
X143110587Y-100573698D01*
X144367562Y-100247997D02*
X144415494Y-100324280D01*
X143110587Y-100573698D02*
X143123382Y-100610263D01*
X144479200Y-100387986D02*
X144555483Y-100435918D01*
X144730046Y-100475760D02*
X145543240Y-100475760D01*
D25*
%TO.N,/D-*%
X147823333Y-99395000D02*
X147825000Y-99393333D01*
X146370000Y-99395000D02*
X147823333Y-99395000D01*
X141828602Y-99630000D02*
X141045000Y-99630000D01*
X141997001Y-99798399D02*
X141828602Y-99630000D01*
X141045000Y-100630000D02*
X141828602Y-100630000D01*
X141828602Y-100630000D02*
X141997001Y-100461601D01*
X141997001Y-100461601D02*
X141997001Y-99798399D01*
D26*
X144754720Y-100221760D02*
X145543240Y-100221760D01*
X144716223Y-100217423D02*
X144754720Y-100221760D01*
X144619463Y-100156624D02*
X144646856Y-100184017D01*
X145543240Y-100221760D02*
X146370000Y-99395000D01*
X144581720Y-100048760D02*
X144586057Y-100087257D01*
X144541877Y-99497510D02*
X144571632Y-99582547D01*
X144679658Y-100204628D02*
X144716223Y-100217423D01*
X144353956Y-99309589D02*
X144430239Y-99357521D01*
X144179393Y-99269746D02*
X144268919Y-99279834D01*
X144130046Y-99269746D02*
X144179393Y-99269746D01*
X143955483Y-99309589D02*
X144040520Y-99279834D01*
X143879200Y-99357521D02*
X143955483Y-99309589D01*
X143767562Y-99497510D02*
X143815494Y-99421227D01*
X143727720Y-101000774D02*
X143727720Y-99672073D01*
X143723382Y-101039270D02*
X143727720Y-101000774D01*
X143710587Y-101075835D02*
X143723382Y-101039270D01*
X143662583Y-101136030D02*
X143689976Y-101108637D01*
X144581720Y-99672073D02*
X144581720Y-100048760D01*
X144571632Y-99582547D02*
X144581720Y-99672073D01*
X143629781Y-101156641D02*
X143662583Y-101136030D01*
X143593216Y-101169436D02*
X143629781Y-101156641D01*
X143554720Y-101173774D02*
X143593216Y-101169436D01*
X143516223Y-101169436D02*
X143554720Y-101173774D01*
X143446856Y-101136030D02*
X143479658Y-101156641D01*
X144646856Y-100184017D02*
X144679658Y-100204628D01*
X143398852Y-101075835D02*
X143419463Y-101108637D01*
X143371632Y-100534560D02*
X143381720Y-100624086D01*
X143341877Y-100449523D02*
X143371632Y-100534560D01*
X143479658Y-101156641D02*
X143516223Y-101169436D01*
X143727720Y-99672073D02*
X143737807Y-99582547D01*
X143815494Y-99421227D02*
X143879200Y-99357521D01*
X143737807Y-99582547D02*
X143767562Y-99497510D01*
X143381720Y-101000774D02*
X143386057Y-101039270D01*
X143381720Y-100624086D02*
X143381720Y-101000774D01*
X142239020Y-100221760D02*
X142979393Y-100221760D01*
X144493945Y-99421227D02*
X144541877Y-99497510D01*
X143386057Y-101039270D02*
X143398852Y-101075835D01*
X143230239Y-100309534D02*
X143293945Y-100373240D01*
X141830780Y-100630000D02*
X142239020Y-100221760D01*
X144586057Y-100087257D02*
X144598852Y-100123822D01*
X144040520Y-99279834D02*
X144130046Y-99269746D01*
X144430239Y-99357521D02*
X144493945Y-99421227D01*
X143419463Y-101108637D02*
X143446856Y-101136030D01*
X141045000Y-100630000D02*
X141830780Y-100630000D01*
X144268919Y-99279834D02*
X144353956Y-99309589D01*
X142979393Y-100221760D02*
X143068919Y-100231847D01*
X143068919Y-100231847D02*
X143153956Y-100261602D01*
X144598852Y-100123822D02*
X144619463Y-100156624D01*
X143689976Y-101108637D02*
X143710587Y-101075835D01*
X143153956Y-100261602D02*
X143230239Y-100309534D01*
X143293945Y-100373240D02*
X143341877Y-100449523D01*
D24*
%TO.N,+3V3*%
X157872500Y-97780000D02*
X158507500Y-97780000D01*
X158505000Y-97777500D02*
X158507500Y-97780000D01*
X158505000Y-95400000D02*
X158505000Y-97777500D01*
X159900000Y-105470000D02*
X160280000Y-105850000D01*
X159900000Y-96795000D02*
X159900000Y-105470000D01*
X158505000Y-95400000D02*
X159900000Y-96795000D01*
X147872500Y-97660000D02*
X147872500Y-97660000D01*
X147872500Y-103100000D02*
X147872500Y-103100000D01*
X147870000Y-103097500D02*
X147872500Y-103100000D01*
D25*
X157062301Y-99390199D02*
X154241529Y-99390199D01*
X157872500Y-97780000D02*
X157872500Y-98580000D01*
X157872500Y-98580000D02*
X157062301Y-99390199D01*
X148683980Y-102288520D02*
X147872500Y-103100000D01*
X148683980Y-98471480D02*
X148683980Y-102288520D01*
X147872500Y-97660000D02*
X148683980Y-98471480D01*
X153322810Y-98471480D02*
X154241529Y-99390199D01*
X148683980Y-98471480D02*
X153322810Y-98471480D01*
D24*
%TO.N,+1V8*%
X152325000Y-105145000D02*
X152230000Y-105240000D01*
X154090000Y-105145000D02*
X152325000Y-105145000D01*
X156535000Y-107590000D02*
X154090000Y-105145000D01*
X157395000Y-108450000D02*
X156535000Y-107590000D01*
X160280000Y-108450000D02*
X157395000Y-108450000D01*
D25*
%TO.N,Net-(D1-Pad1)*%
X149447500Y-97660000D02*
X151585000Y-97660000D01*
%TO.N,Net-(D2-Pad1)*%
X151595000Y-103100000D02*
X149447500Y-103100000D01*
D24*
%TO.N,Net-(FB1-Pad2)*%
X140281398Y-97930000D02*
X141045000Y-97930000D01*
X139070000Y-99141398D02*
X140281398Y-97930000D01*
X139070000Y-101738038D02*
X139070000Y-99141398D01*
X140161962Y-102830000D02*
X139070000Y-101738038D01*
X141045000Y-102830000D02*
X140161962Y-102830000D01*
X138570000Y-98641398D02*
X139070000Y-99141398D01*
X138570000Y-94370000D02*
X138570000Y-98641398D01*
X139060000Y-93880000D02*
X138570000Y-94370000D01*
X139715000Y-93880000D02*
X139060000Y-93880000D01*
D25*
%TO.N,Net-(J1-PadA5)*%
X141045000Y-99130000D02*
X142540000Y-99130000D01*
X143570000Y-98100000D02*
X143570000Y-97590000D01*
X142540000Y-99130000D02*
X143570000Y-98100000D01*
%TO.N,Net-(J1-PadB5)*%
X142535000Y-102130000D02*
X143570000Y-103165000D01*
X141045000Y-102130000D02*
X142535000Y-102130000D01*
%TO.N,/CTS*%
X157870000Y-102977500D02*
X157872500Y-102980000D01*
X157870000Y-101870000D02*
X157870000Y-102977500D01*
X170200000Y-98425000D02*
X170200000Y-93930000D01*
X169745000Y-98880000D02*
X170200000Y-98425000D01*
X168770000Y-98880000D02*
X169745000Y-98880000D01*
X167340000Y-98880000D02*
X168770000Y-98880000D01*
X166350000Y-100330000D02*
X164810000Y-101870000D01*
X164810000Y-101870000D02*
X160910002Y-101870000D01*
X166350000Y-99610000D02*
X166350000Y-100330000D01*
X163790000Y-105810000D02*
X163180000Y-105810000D01*
X163180000Y-105810000D02*
X160350000Y-102980000D01*
X160586713Y-101870000D02*
X160910002Y-101870000D01*
X160350000Y-102106713D02*
X160586713Y-101870000D01*
X160350000Y-102980000D02*
X160350000Y-102106713D01*
%TO.N,/RTS*%
X155330000Y-102977500D02*
X155332500Y-102980000D01*
X155330000Y-101870000D02*
X155330000Y-102977500D01*
X168930000Y-94950000D02*
X168930000Y-93930000D01*
X168030000Y-95850000D02*
X168930000Y-94950000D01*
X165426666Y-95850000D02*
X168030000Y-95850000D01*
X164465000Y-96811666D02*
X165426666Y-95850000D01*
X164590000Y-106410000D02*
X164860000Y-106680000D01*
X164590000Y-105810000D02*
X164590000Y-106410000D01*
X164860000Y-106680000D02*
X167190000Y-106680000D01*
X167190000Y-106680000D02*
X167340000Y-106530000D01*
X167340000Y-106530000D02*
X167340000Y-103120000D01*
X167340000Y-103120000D02*
X167130000Y-102910000D01*
X164465000Y-100255000D02*
X164990000Y-100780000D01*
X164465000Y-96811666D02*
X164465000Y-100255000D01*
D24*
%TO.N,/VCC_KIMCHI*%
X168770000Y-106390000D02*
X168990000Y-106610000D01*
X168770000Y-102880000D02*
X168770000Y-106390000D01*
D25*
%TO.N,Net-(J3-Pad2)*%
X167370000Y-101880000D02*
X168770000Y-101880000D01*
X166060000Y-103190000D02*
X167370000Y-101880000D01*
X166060000Y-103948332D02*
X166060000Y-103190000D01*
%TO.N,/RX*%
X156602500Y-101872500D02*
X156600000Y-101870000D01*
X156600000Y-102977500D02*
X156602500Y-102980000D01*
X156600000Y-101870000D02*
X156600000Y-102977500D01*
X168770000Y-100880000D02*
X166450000Y-100880000D01*
X166450000Y-100880000D02*
X164850000Y-102480000D01*
X164850000Y-102480000D02*
X160930000Y-102480000D01*
X165390000Y-105210000D02*
X165170000Y-104990000D01*
X165390000Y-105810000D02*
X165390000Y-105210000D01*
X165170000Y-104990000D02*
X162920000Y-104990000D01*
X160930000Y-103000000D02*
X160930000Y-102480000D01*
X162920000Y-104990000D02*
X160930000Y-103000000D01*
%TO.N,Net-(J3-Pad4)*%
X166115000Y-96811666D02*
X166115000Y-98515000D01*
X167480000Y-99880000D02*
X168770000Y-99880000D01*
X166115000Y-98515000D02*
X167480000Y-99880000D01*
D24*
%TO.N,/VCCIO*%
X157960000Y-107150000D02*
X155967500Y-105157500D01*
X155967500Y-105157500D02*
X155967500Y-102980000D01*
X160280000Y-107150000D02*
X157960000Y-107150000D01*
X164590000Y-107610000D02*
X163790000Y-107610000D01*
X164590000Y-107610000D02*
X165390000Y-107610000D01*
X165390000Y-107610000D02*
X166190000Y-107610000D01*
X168690000Y-107610000D02*
X168990000Y-107910000D01*
X161890000Y-107610000D02*
X168690000Y-107610000D01*
X161430000Y-107150000D02*
X161890000Y-107610000D01*
X160280000Y-107150000D02*
X161430000Y-107150000D01*
D26*
%TO.N,/D1+*%
X152762425Y-100563856D02*
X152772590Y-100534807D01*
X152715819Y-101148465D02*
X152748052Y-101056346D01*
X152758980Y-100594440D02*
X152762425Y-100563856D01*
X152420129Y-101384269D02*
X152512248Y-101352036D01*
X152788965Y-100508747D02*
X152810727Y-100486985D01*
X152772590Y-100534807D02*
X152788965Y-100508747D01*
X152512248Y-101352036D02*
X152594884Y-101300112D01*
X151803874Y-100508747D02*
X151820249Y-100534807D01*
X152323148Y-101395197D02*
X152420129Y-101384269D01*
X149495000Y-101301666D02*
X150339666Y-100457000D01*
X152594884Y-101300112D02*
X152663895Y-101231101D01*
X152080591Y-101352036D02*
X152172710Y-101384269D01*
X151928944Y-101231101D02*
X151997955Y-101300112D01*
X151820249Y-100534807D02*
X151830414Y-100563856D01*
X150339666Y-100457000D02*
X151696420Y-100457000D01*
X151696420Y-100457000D02*
X151727003Y-100460445D01*
X151727003Y-100460445D02*
X151756052Y-100470610D01*
X152172710Y-101384269D02*
X152269691Y-101395197D01*
X151756052Y-100470610D02*
X151782112Y-100486985D01*
X151833860Y-100959365D02*
X151844787Y-101056346D01*
X152663895Y-101231101D02*
X152715819Y-101148465D01*
X151833860Y-100594440D02*
X151833860Y-100959365D01*
X151844787Y-101056346D02*
X151877020Y-101148465D01*
X151877020Y-101148465D02*
X151928944Y-101231101D01*
X152269691Y-101395197D02*
X152323148Y-101395197D01*
X151830414Y-100563856D02*
X151833860Y-100594440D01*
X152810727Y-100486985D02*
X152836787Y-100470610D01*
X152836787Y-100470610D02*
X152865836Y-100460445D01*
X152865836Y-100460445D02*
X152896420Y-100457000D01*
X152896420Y-100457000D02*
X157607843Y-100457000D01*
X157607843Y-100457000D02*
X159141160Y-101990317D01*
X159141160Y-101990317D02*
X159141160Y-102978660D01*
X151997955Y-101300112D02*
X152080591Y-101352036D01*
X151782112Y-100486985D02*
X151803874Y-100508747D01*
X152758980Y-100959365D02*
X152758980Y-100594440D01*
X152748052Y-101056346D02*
X152758980Y-100959365D01*
%TO.N,/D1-*%
X159142500Y-98507000D02*
X159142500Y-97780000D01*
X152772710Y-100142807D02*
X152869691Y-100131880D01*
X152680591Y-100175040D02*
X152772710Y-100142807D01*
X152597955Y-100226964D02*
X152680591Y-100175040D01*
X152528944Y-100295975D02*
X152597955Y-100226964D01*
X152477020Y-100378611D02*
X152528944Y-100295975D01*
X152444787Y-100470730D02*
X152477020Y-100378611D01*
X157517620Y-100131880D02*
X159142500Y-98507000D01*
X152172590Y-100992269D02*
X152188965Y-101018329D01*
X152210727Y-101040091D02*
X152236787Y-101056466D01*
X152430414Y-100963220D02*
X152433860Y-100932637D01*
X152433860Y-100567711D02*
X152444787Y-100470730D01*
X152158980Y-100567711D02*
X152158980Y-100932637D01*
X152327003Y-101066631D02*
X152356052Y-101056466D01*
X152148052Y-100470730D02*
X152158980Y-100567711D01*
X152382112Y-101040091D02*
X152403874Y-101018329D01*
X152420249Y-100992269D02*
X152430414Y-100963220D01*
X149475000Y-99393333D02*
X150213547Y-100131880D01*
X151820129Y-100142807D02*
X151912248Y-100175040D01*
X152188965Y-101018329D02*
X152210727Y-101040091D01*
X150213547Y-100131880D02*
X151723148Y-100131880D01*
X152236787Y-101056466D02*
X152265836Y-101066631D01*
X152869691Y-100131880D02*
X157517620Y-100131880D01*
X152296420Y-101070077D02*
X152327003Y-101066631D01*
X152433860Y-100932637D02*
X152433860Y-100567711D01*
X151912248Y-100175040D02*
X151994884Y-100226964D01*
X151994884Y-100226964D02*
X152063895Y-100295975D01*
X152063895Y-100295975D02*
X152115819Y-100378611D01*
X152115819Y-100378611D02*
X152148052Y-100470730D01*
X152158980Y-100932637D02*
X152162425Y-100963220D01*
X152162425Y-100963220D02*
X152172590Y-100992269D01*
X151723148Y-100131880D02*
X151820129Y-100142807D01*
X152265836Y-101066631D02*
X152296420Y-101070077D01*
X152356052Y-101056466D02*
X152382112Y-101040091D01*
X152403874Y-101018329D02*
X152420249Y-100992269D01*
D25*
%TO.N,/TX*%
X154697500Y-101802500D02*
X154700000Y-101800000D01*
X154700000Y-102977500D02*
X154697500Y-102980000D01*
X154700000Y-101870000D02*
X154700000Y-102977500D01*
X164401668Y-103940000D02*
X164410000Y-103948332D01*
X163300000Y-103940000D02*
X164401668Y-103940000D01*
X166190000Y-105328332D02*
X166190000Y-105810000D01*
X164810000Y-103948332D02*
X166190000Y-105328332D01*
X164410000Y-103948332D02*
X164810000Y-103948332D01*
%TO.N,Net-(R7-Pad1)*%
X155547500Y-99000000D02*
X155967500Y-98580000D01*
X155967500Y-98580000D02*
X155967500Y-97780000D01*
X154575000Y-99000000D02*
X155547500Y-99000000D01*
X153235000Y-97660000D02*
X154575000Y-99000000D01*
%TO.N,Net-(R8-Pad2)*%
X158507500Y-101767500D02*
X158507500Y-102980000D01*
X157780000Y-101040000D02*
X158507500Y-101767500D01*
X153245000Y-102425000D02*
X154630000Y-101040000D01*
X153245000Y-103100000D02*
X153245000Y-102425000D01*
X154630000Y-101040000D02*
X157780000Y-101040000D01*
%TD*%
M02*
