M48
METRIC,TZ
T1C0.254
T2C0.650
%
G90
G05
T1
X138149Y-92010
X143570Y-94530
X143570Y-106300
X146370Y-96370
X146390Y-104380
X146780Y-106690
X154090Y-107750
X154700Y-101870
X155035Y-92605
X155040Y-96540
X155330Y-101870
X156600Y-98870
X156600Y-101870
X157237Y-105198
X157240Y-101496
X157870Y-101870
X158443Y-99784
X159144Y-99781
X159144Y-101056
X160910Y-101870
X160930Y-102480
X161420Y-95400
X161823Y-99668
X161823Y-101278
X162593Y-99658
X162593Y-101278
X163300Y-103940
X163363Y-99668
X163363Y-101278
X164990Y-100780
X165750Y-102540
X166350Y-99610
X166780Y-101510
X166960Y-97890
X167130Y-102910
X167340Y-98880
X172020Y-96260
X172030Y-103870
X173270Y-96250
X173290Y-103840
T2
X168930Y-93930
X170200Y-93930
T2
G00X136250Y-96060
M15
G01X135650Y-96060
M16
G05
G00X136250Y-104700
M15
G01X135650Y-104700
M16
G05
G00X140680Y-96060
M15
G01X139580Y-96060
M16
G05
G00X140680Y-104700
M15
G01X139580Y-104700
M16
G05
T0
M30
